<svg width="90" height="132" viewBox="0 0 90 132" fill="none" xmlns="http://www.w3.org/2000/svg">
<g clip-path="url(#clip0)">
<path d="M6.89853 122C7.76366 122 8.54768 121.406 8.74368 120.538L31.9534 18.2829C32.1832 17.2747 31.5411 16.2731 30.5205 16.0461C29.4999 15.819 28.4861 16.4534 28.2563 17.4616L5.04662 119.716C4.81682 120.725 5.45891 121.726 6.47949 121.953C6.62142 121.987 6.7566 122 6.89853 122Z" fill="white"/>
<path d="M50.6616 46.3248C50.647 46.3248 50.6396 46.3248 50.625 46.3248C50.4196 46.3029 50.2656 46.1207 50.2803 45.9167L50.3829 44.7945C50.4049 44.5904 50.5883 44.4374 50.7936 44.452C50.999 44.4738 51.153 44.656 51.1383 44.86L51.0356 45.9823C51.021 46.179 50.8523 46.3248 50.6616 46.3248ZM50.9916 42.5864C50.977 42.5864 50.9696 42.5864 50.955 42.5864C50.7496 42.5646 50.5956 42.3824 50.6103 42.1784L50.713 41.0561C50.735 40.8521 50.911 40.6991 51.1236 40.7136C51.329 40.7355 51.483 40.9177 51.4683 41.1217L51.3657 42.244C51.351 42.4407 51.1897 42.5864 50.9916 42.5864ZM51.3217 38.8481C51.307 38.8481 51.2997 38.8481 51.285 38.8481C51.0796 38.8263 50.9256 38.6441 50.9403 38.44L51.043 37.3178C51.065 37.1138 51.241 36.9608 51.4537 36.9753C51.659 36.9972 51.813 37.1794 51.7984 37.3834L51.6957 38.5056C51.681 38.6951 51.5197 38.8481 51.3217 38.8481Z" fill="url(#paint0_linear)"/>
<path d="M74.9094 122C74.9842 122 75.0522 121.993 75.127 121.987C76.1741 121.865 76.922 120.926 76.7996 119.885L64.833 16.4306C64.7106 15.3902 63.7655 14.647 62.7253 14.7686C61.6782 14.8903 60.9303 15.8293 61.0527 16.8698L73.0193 120.325C73.128 121.284 73.9507 122 74.9094 122Z" fill="white"/>
<path d="M48.5626 122C49.6165 122 50.4664 121.149 50.4664 120.108V69.0462C50.4664 67.999 49.6097 67.1545 48.5626 67.1545C47.5087 67.1545 46.6588 68.0058 46.6588 69.0462V120.101C46.6588 121.149 47.5087 122 48.5626 122Z" fill="white"/>
<path d="M86.7057 5.07353L80.0017 88.9426C79.8589 90.7195 78.3495 92.0707 76.5545 92.0301L6.57029 90.3344C4.53053 90.2871 3.00071 88.463 3.32028 86.4564L16.7215 2.82378C16.9867 1.16856 18.4417 -0.0407673 20.1279 -0.000231235L83.4217 1.45907C85.3595 1.4996 86.8621 3.15483 86.7057 5.07353Z" fill="url(#paint1_linear)"/>
<path opacity="0.97" d="M80.8519 3.76308L22.1612 2.41188C20.475 2.37134 19.0199 3.58067 18.7548 5.23589L6.10824 84.1529C5.78868 86.1527 7.3185 87.9835 9.35826 88.0308L74.3722 89.605C76.1604 89.6455 77.6767 88.2943 77.8194 86.5175L84.1427 7.37755C84.2855 5.4656 82.7896 3.81037 80.8519 3.76308Z" fill="white"/>
<path d="M49.1744 9.0006L78.7577 10.6423C79.0637 10.6558 79.288 10.9193 79.2608 11.2233L79.22 11.6962C79.1929 11.9868 78.9413 12.2029 78.6421 12.1827L49.1064 10.0681C48.8072 10.0478 48.5828 9.7843 48.61 9.48703C48.6372 9.20328 48.882 8.98709 49.1744 9.0006Z" fill="url(#paint2_linear)"/>
<path d="M49.1744 6.0006L78.7577 7.64231C79.0637 7.65582 79.288 7.91931 79.2608 8.22333L79.22 8.69625C79.1929 8.98676 78.9413 9.20295 78.6421 9.18268L49.1064 7.06805C48.8072 7.04778 48.5828 6.7843 48.61 6.48703C48.6372 6.20328 48.882 5.98709 49.1744 6.0006Z" fill="url(#paint3_linear)"/>
<path d="M48.3993 12.4887L48.3789 12.6913C48.3517 12.9886 48.5761 13.2453 48.8685 13.2724L78.377 15.7856C78.6762 15.8126 78.9346 15.5897 78.9618 15.2992L78.9822 15.0965C79.0094 14.7992 78.785 14.5425 78.4926 14.5155L48.9841 12.0022C48.6849 11.9752 48.4197 12.1981 48.3993 12.4887Z" fill="url(#paint4_linear)"/>
<path d="M57.1227 16.4877L57.1159 16.5756C57.0887 16.8728 57.3131 17.1296 57.6054 17.1566L78.1526 18.9064C78.4518 18.9334 78.7102 18.7105 78.7374 18.42L78.7714 18.0079C78.7986 17.7106 78.5742 17.4471 78.275 17.4268L57.6938 16.0013C57.4082 15.981 57.1499 16.1972 57.1227 16.4877Z" fill="url(#paint5_linear)"/>
<path d="M70.8435 57.8213C70.7143 57.8213 70.5783 57.774 70.4763 57.6727L61.481 48.9912L51.3094 55.1054C51.0714 55.2473 50.7654 55.1865 50.6022 54.9568L38.6764 37.8844C36.4599 39.4923 26.4583 46.7685 25.078 47.7616C24.8469 47.9305 24.5137 47.8832 24.3437 47.6468C24.1737 47.4171 24.2213 47.086 24.4593 46.9171C26.0095 45.7956 38.4861 36.7156 38.4861 36.7156C38.6016 36.6345 38.7444 36.6007 38.8804 36.621C39.0232 36.6412 39.1456 36.7223 39.2272 36.8372L51.1802 53.9501L61.277 47.8832C61.481 47.7616 61.7461 47.7887 61.9161 47.9576L70.8911 56.612L76.3848 52.626C76.616 52.4571 76.9492 52.5044 77.1191 52.7408C77.2891 52.9705 77.2415 53.3016 77.0036 53.4705L71.1494 57.7132C71.061 57.7876 70.9523 57.8213 70.8435 57.8213Z" fill="url(#paint6_linear)"/>
<path d="M36.7727 62.5573C36.7591 62.5573 36.7523 62.5573 36.7387 62.5573C36.5483 62.5371 36.4055 62.3682 36.4191 62.179L36.5143 61.1386C36.5347 60.9494 36.7047 60.8075 36.8951 60.821C37.0854 60.8413 37.2282 61.0102 37.2146 61.1994L37.1194 62.2398C37.1058 62.4222 36.9562 62.5573 36.7727 62.5573ZM37.0854 59.0915C37.0718 59.0915 37.065 59.0915 37.0514 59.0915C36.8611 59.0712 36.7183 58.9023 36.7319 58.7132L36.8271 57.6727C36.8475 57.4836 37.0174 57.3417 37.2078 57.3552C37.3982 57.3755 37.541 57.5444 37.5274 57.7335L37.4322 58.774C37.4186 58.9564 37.2622 59.0915 37.0854 59.0915ZM37.3914 55.6257C37.3778 55.6257 37.371 55.6257 37.3574 55.6257C37.167 55.6054 37.0242 55.4433 37.0378 55.2473L37.133 54.2069C37.1534 54.0177 37.3166 53.8759 37.5138 53.8894C37.7042 53.9096 37.8469 54.0785 37.8334 54.2677L37.7382 55.3081C37.7246 55.4905 37.5682 55.6257 37.3914 55.6257ZM37.6974 52.1598C37.6838 52.1598 37.677 52.1598 37.6634 52.1598C37.473 52.1396 37.3302 51.9707 37.3438 51.7815L37.439 50.7411C37.4594 50.5519 37.6294 50.41 37.8198 50.4235C38.0101 50.4438 38.1529 50.6127 38.1393 50.8019L38.0441 51.8423C38.0305 52.0247 37.8809 52.1598 37.6974 52.1598ZM38.0101 48.694C37.9965 48.694 37.9897 48.694 37.9761 48.694C37.7858 48.6737 37.643 48.5048 37.6566 48.3157L37.7518 47.2752C37.7722 47.0861 37.9421 46.9442 38.1325 46.9577C38.3229 46.978 38.4657 47.1469 38.4521 47.336L38.3569 48.3765C38.3433 48.5589 38.1869 48.694 38.0101 48.694ZM38.3161 45.2282C38.3025 45.2282 38.2957 45.2282 38.2821 45.2282C38.0917 45.2079 37.9489 45.039 37.9625 44.8498L38.0577 43.8094C38.0781 43.6202 38.2481 43.4784 38.4385 43.4919C38.6289 43.5121 38.7716 43.681 38.758 43.8702L38.6629 44.9106C38.6493 45.093 38.4929 45.2282 38.3161 45.2282ZM38.6221 41.7623C38.6085 41.7623 38.6017 41.7623 38.5881 41.7623C38.3977 41.7421 38.2549 41.5732 38.2685 41.384L38.3637 40.3436C38.3841 40.1544 38.5473 40.0125 38.7444 40.026C38.9348 40.0463 39.0776 40.2152 39.064 40.4044L38.9688 41.4448C38.9552 41.6272 38.8056 41.7623 38.6221 41.7623Z" fill="url(#paint7_linear)"/>
<path d="M60.4272 65.1922C60.4204 65.1922 60.4136 65.1922 60.4068 65.1922C60.2164 65.1786 60.0669 65.0165 60.0804 64.8273L60.1416 63.7869C60.1552 63.5977 60.3184 63.4491 60.5088 63.4626C60.6992 63.4761 60.8488 63.6383 60.8352 63.8274L60.774 64.8679C60.7672 65.0503 60.6108 65.1922 60.4272 65.1922ZM60.6244 61.7128C60.6176 61.7128 60.6108 61.7128 60.604 61.7128C60.4136 61.6993 60.264 61.5372 60.2776 61.348L60.3388 60.3076C60.3524 60.1184 60.5156 59.963 60.706 59.9833C60.8963 59.9968 61.0459 60.1589 61.0323 60.3481L60.9711 61.3885C60.9643 61.5709 60.808 61.7128 60.6244 61.7128ZM60.8284 58.2402C60.8216 58.2402 60.8148 58.2402 60.808 58.2402C60.6176 58.2267 60.468 58.0646 60.4816 57.8754L60.5428 56.835C60.5564 56.6458 60.7196 56.4904 60.9099 56.5107C61.1003 56.5242 61.2499 56.6863 61.2363 56.8755L61.1751 57.9159C61.1615 58.0983 61.0119 58.2402 60.8284 58.2402ZM61.0255 54.7676C61.0187 54.7676 61.0119 54.7676 61.0051 54.7676C60.8148 54.7541 60.6652 54.592 60.6788 54.4028L60.7332 53.3556C60.7468 53.1665 60.91 53.0111 61.1003 53.0313C61.2907 53.0449 61.4403 53.207 61.4267 53.3962L61.3655 54.4366C61.3655 54.6258 61.2091 54.7676 61.0255 54.7676ZM61.2227 51.295C61.2159 51.295 61.2091 51.295 61.2023 51.295C61.0119 51.2815 60.8624 51.1194 60.876 50.9302L60.9371 49.8898C60.9507 49.7006 61.1139 49.5452 61.3043 49.5655C61.4947 49.579 61.6443 49.7412 61.6307 49.9303L61.5695 50.9708C61.5627 51.1532 61.4063 51.295 61.2227 51.295Z" fill="url(#paint8_linear)"/>
<path d="M70.2113 66.2664C70.1977 66.2664 70.1909 66.2664 70.1773 66.2664C69.9869 66.2462 69.8441 66.0773 69.8577 65.8881L69.9529 64.8477C69.9733 64.6585 70.1365 64.5166 70.3337 64.5301C70.524 64.5504 70.6668 64.7193 70.6532 64.9085L70.558 65.9489C70.5444 66.1245 70.388 66.2664 70.2113 66.2664ZM70.5172 62.8006C70.5036 62.8006 70.4968 62.8006 70.4832 62.8006C70.2929 62.7803 70.1501 62.6114 70.1637 62.4223L70.2589 61.3818C70.2793 61.1927 70.4424 61.0508 70.6396 61.0643C70.83 61.0846 70.9728 61.2535 70.9592 61.4426L70.864 62.4831C70.8504 62.6587 70.7008 62.8006 70.5172 62.8006ZM70.8232 59.328C70.8096 59.328 70.8028 59.328 70.7892 59.328C70.5988 59.3077 70.456 59.1388 70.4696 58.9497L70.5648 57.9092C70.5852 57.7201 70.7552 57.5782 70.9456 57.5917C71.136 57.612 71.2787 57.7809 71.2651 57.97L71.1699 59.0105C71.1564 59.1929 71.0068 59.328 70.8232 59.328Z" fill="url(#paint9_linear)"/>
<path d="M22.0796 65.0909C22.0592 65.0909 22.0456 65.0909 22.0252 65.0909C21.7397 65.0638 21.5289 64.8071 21.5561 64.5166L24.7109 33.1417C24.7381 32.8512 24.9965 32.6485 25.2888 32.6755C25.5744 32.7025 25.7852 32.9593 25.758 33.2498L22.6032 64.6247C22.576 64.8882 22.3448 65.0909 22.0796 65.0909Z" fill="url(#paint10_linear)"/>
<path d="M23.2559 35.0807L25.2004 33.4998L26.7982 35.4321L26.9478 33.939L25.3568 32L23.4054 33.5877L23.2559 35.0807Z" fill="url(#paint11_linear)"/>
<path d="M76.3645 68.3201C76.3509 68.3201 76.3305 68.3201 76.3169 68.3201L20.0807 63.3882C19.7951 63.3612 19.5775 63.1112 19.6047 62.8207C19.6319 62.5302 19.8903 62.3208 20.1758 62.3478L76.412 67.2797C76.6976 67.3067 76.9152 67.5567 76.888 67.8472C76.8676 68.1107 76.6364 68.3201 76.3645 68.3201Z" fill="url(#paint12_linear)"/>
<path d="M74.1276 69.374L76.0585 67.7661L74.4403 65.8474L75.9429 65.9825L77.5612 67.9012L75.6302 69.5092L74.1276 69.374Z" fill="url(#paint13_linear)"/>
<path d="M29.9693 121.881C29.9693 121.821 29.9693 121.769 29.9544 121.71C29.0882 118.29 24.7799 116.168 24.7799 116.168L23.0775 116.301C22.0994 119.314 22.2263 121.161 22.3831 121.984C22.3906 122.007 22.398 122.029 22.398 122.051C23.8018 122.17 26.6989 122.252 29.9693 121.881Z" fill="url(#paint14_linear)"/>
<path d="M22.3979 122.044C22.4726 122.318 22.6817 122.533 22.943 122.585C24.9441 123.001 28.1249 122.667 29.4615 122.496C29.7527 122.459 29.9692 122.185 29.9767 121.88C26.6988 122.251 23.8017 122.17 22.3979 122.044Z" fill="url(#paint15_linear)"/>
<path d="M47.2622 11.7482L58.4996 7.69727L59.3657 9.50015L48.5614 13.5437C48.5614 13.5437 47.0606 13.4101 47.2622 11.7482Z" fill="#FFB900"/>
<path d="M58.4996 7.69746C58.171 8.69165 59.3657 9.50036 59.3657 9.50036L61.4041 8.06843C61.2921 7.7865 61.2249 7.5194 61.1876 7.28198L58.4996 7.69746Z" fill="#F8BEA1"/>
<path d="M61.1876 7.27451C61.225 7.51193 61.2922 7.77903 61.4042 8.06096L62.9124 7L61.1876 7.27451Z" fill="url(#paint16_linear)"/>
<path d="M15.6407 61.3909C14.5879 62.5112 13.0348 63.4757 11.9447 64.0766C13.5724 66.0799 15.7826 68.0831 18.7021 70.0492L19.5384 71.9114L22.2189 68.7211C22.2115 68.7211 17.4103 66.347 15.6407 61.3909Z" fill="#F8BEA1"/>
<path d="M22.3906 113.771L23.1149 117.228C23.1672 117.481 23.3613 117.674 23.6002 117.696C23.8914 117.725 24.3021 117.74 24.7202 117.681C25.0936 117.629 25.3549 117.251 25.2877 116.843L24.7874 113.771H22.3906Z" fill="#F8BEA1"/>
<path d="M37.3614 122.007C35.4798 121.955 34.5016 121.732 34.0013 121.532C34.0013 121.717 34.0013 121.91 34.0088 122.103C34.0163 122.311 34.1731 122.481 34.3672 122.481L44.7161 122.415C45.0446 122.415 45.2388 122.029 45.0969 121.732C43.7305 121.843 40.2734 122.088 37.3614 122.007Z" fill="url(#paint17_linear)"/>
<path d="M45.082 121.732C45.067 121.702 45.0596 121.68 45.0446 121.658C44.1337 120.389 41.8041 117.866 37.2046 116.768L35.0019 116.702C35.0019 116.702 34.0163 118.401 34.0013 121.539C34.5016 121.747 35.4798 121.962 37.3614 122.014C40.2734 122.088 43.7305 121.843 45.082 121.732Z" fill="url(#paint18_linear)"/>
<path d="M34.5912 113.37C34.6136 113.534 34.9197 116.019 35.0317 116.976C35.0616 117.206 35.2259 117.384 35.4349 117.406C35.8083 117.451 36.4205 117.488 36.9507 117.384C37.2344 117.325 37.4435 117.05 37.4435 116.731V112.836L34.5912 113.37Z" fill="#FEBBBA"/>
<path d="M32.8216 68.0535C32.8216 68.0535 38.1453 88.1449 38.0483 113.43C38.0483 113.89 37.7197 114.291 37.2643 114.387C36.5923 114.528 35.6141 114.691 34.8003 114.669C34.3672 114.654 34.0013 114.335 33.9266 113.912C33.18 109.564 28.9015 85.0733 26.4599 81.104C26.4599 81.104 24.8546 102.917 25.3698 114.231C25.3847 114.513 25.1756 114.758 24.8919 114.788C24.4663 114.84 23.7794 114.877 22.9132 114.78C22.5847 114.743 22.3159 114.498 22.2711 114.172C21.7409 110.492 18.6796 88.5975 18.814 72.8167C18.8215 71.9263 21.1809 68.0609 21.1809 68.0609H32.8216V68.0535Z" fill="url(#paint19_linear)"/>
<path d="M50.2191 24.7913C47.882 29.1093 44.0068 33.5163 37.6974 34.696C31.8734 35.7867 21.4199 37.137 17.2162 37.6637C15.9543 37.8195 14.7969 38.4428 13.9607 39.3998C10.6604 43.1985 3.41018 53.6004 11.9372 64.0764C13.0273 63.4755 14.5804 62.5109 15.6332 61.3906C14.6924 58.7494 14.6103 55.3662 16.589 51.2262C16.6562 51.5527 16.7383 51.8791 16.8428 52.1981C19.5682 60.7822 19.7175 67.9196 19.7101 69.5667C19.7101 69.7893 19.8445 69.9896 20.0535 70.0712C23.645 71.5031 30.5517 70.6499 32.8664 70.3086C33.292 70.2493 33.5758 69.856 33.516 69.4257C32.3811 61.2348 38.2201 47.7614 39.7582 44.3856C39.9822 43.8885 40.378 43.4953 40.8782 43.2727C49.7114 39.3108 53.5493 33.2047 55.1024 27.707C53.7583 25.9116 51.6751 25.1325 50.2191 24.7913Z" fill="url(#paint20_linear)"/>
<path d="M55.1024 27.7071C56.984 21.0445 55.5205 15.2649 55.5205 15.2649H53.512C53.512 15.2649 52.825 19.9687 50.2191 24.7913C51.6751 25.1326 53.7584 25.9116 55.1024 27.7071Z" fill="#F8BEA1"/>
<path d="M54.2138 16.3334C54.2138 16.3334 51.1524 12.3937 52.1455 10.346C53.1386 8.29827 56.5508 8.49118 56.5508 8.49118L57.0287 10.1012C57.1556 10.5241 57.1407 10.9766 56.9839 11.3921L55.1023 16.3334H54.2138Z" fill="#F8BEA1"/>
<path d="M23.421 29.7846L22.7266 36.8032C22.7266 36.8032 26.6989 37.9903 29.5885 35.9648L27.5575 29.5842L23.421 29.7846Z" fill="#E3AC91"/>
<path d="M28.0279 21.7794C28.125 21.8684 32.0674 29.5623 32.0674 29.5623L27.6023 31.7064L22.7714 24.9697C22.7714 24.9697 26.4301 20.2807 28.0279 21.7794Z" fill="#F8BEA1"/>
<path d="M24.7501 25.1552C24.668 25.3629 24.6904 25.5855 24.8024 25.7784L27.0275 29.4658C27.0648 29.5251 27.1021 29.5696 27.1469 29.6142C27.4157 29.859 28.3192 30.5712 29.0211 29.5993C29.6184 28.7684 30.1784 28.019 30.7832 27.7074C31.1342 27.5293 31.5672 27.6703 31.7464 28.019C32.1123 28.7387 32.8217 30.2151 33.2697 31.6099C33.3817 31.9586 33.2025 32.337 32.859 32.4706C31.9555 32.8341 30.1635 33.4944 28.5805 33.7096C28.3192 33.7467 28.0653 33.6354 27.9085 33.4277C27.2291 32.5003 25.3027 29.9035 24.6456 29.2506C24.0333 28.6496 22.9133 28.8722 22.4056 29.0206C22.2114 29.0725 22.0098 29.0503 21.8381 28.9464C21.3229 28.6348 20.4269 27.8706 21.2482 26.5722C21.4498 26.2458 21.3453 25.8229 21.0242 25.6077C20.4493 25.2294 19.8295 24.5245 20.4194 23.3819C21.0242 22.2245 22.092 22.1207 22.8237 22.2097C23.1448 22.2468 23.4733 22.0836 23.6002 21.7794C23.6525 21.6458 23.7645 21.5345 23.9661 21.49C24.3469 21.4158 24.6008 21.0671 24.5261 20.6813C24.3992 20.0284 24.4963 19.1752 25.5416 18.6039C27.468 17.5504 29.1555 19.2642 29.5886 20.7184C30.0142 22.1652 27.8637 23.189 26.5048 23.3597C25.5192 23.5081 24.9741 24.5913 24.7501 25.1552Z" fill="url(#paint21_linear)"/>
<path d="M25.4818 30.6232C25.4818 30.6232 24.6231 28.1303 23.5255 28.2194C22.4279 28.3084 21.5618 29.399 22.9282 30.6158C24.6231 32.1368 25.4818 30.6232 25.4818 30.6232Z" fill="#F8BEA1"/>
<path d="M16.2379 50.5811C14.7894 46.6489 15.3195 41.9006 15.3195 41.8486L15.7153 41.8931C15.7078 41.9377 15.2001 46.597 16.6113 50.4402L16.2379 50.5811Z" fill="url(#paint22_linear)"/>
<path d="M26.2658 80.5844C26.1762 80.5844 26.0941 80.525 26.0717 80.436C25.6311 78.7444 22.3234 76.8895 22.2935 76.8673C22.1964 76.8153 22.1591 76.6892 22.2188 76.5928C22.2711 76.4963 22.398 76.4592 22.4951 76.5186C22.637 76.6002 25.9821 78.4773 26.4674 80.3321C26.4973 80.436 26.4301 80.5473 26.3255 80.5769C26.2957 80.5844 26.2807 80.5844 26.2658 80.5844Z" fill="url(#paint23_linear)"/>
</g>
<defs>
<linearGradient id="paint0_linear" x1="50.2894" y1="37.1241" x2="52.7937" y2="37.3971" gradientUnits="userSpaceOnUse">
<stop stop-color="#AAD6FF"/>
<stop offset="1" stop-color="#2E8ACB"/>
</linearGradient>
<linearGradient id="paint1_linear" x1="3.26706" y1="46.0092" x2="86.7281" y2="46.0092" gradientUnits="userSpaceOnUse">
<stop stop-color="#144188"/>
<stop offset="0.998" stop-color="#102465"/>
</linearGradient>
<linearGradient id="paint2_linear" x1="48.8111" y1="9.05098" x2="50.0079" y2="16.7795" gradientUnits="userSpaceOnUse">
<stop stop-color="#AAD6FF"/>
<stop offset="1" stop-color="#2E8ACB"/>
</linearGradient>
<linearGradient id="paint3_linear" x1="48.8111" y1="6.05098" x2="50.0079" y2="13.7795" gradientUnits="userSpaceOnUse">
<stop stop-color="#AAD6FF"/>
<stop offset="1" stop-color="#2E8ACB"/>
</linearGradient>
<linearGradient id="paint4_linear" x1="48.5797" y1="12.0606" x2="50.2595" y2="21.1654" gradientUnits="userSpaceOnUse">
<stop stop-color="#AAD6FF"/>
<stop offset="1" stop-color="#2E8ACB"/>
</linearGradient>
<linearGradient id="paint5_linear" x1="57.2573" y1="16.0466" x2="58.6489" y2="22.9974" gradientUnits="userSpaceOnUse">
<stop stop-color="#AAD6FF"/>
<stop offset="1" stop-color="#2E8ACB"/>
</linearGradient>
<linearGradient id="paint6_linear" x1="24.2355" y1="47.217" x2="77.2275" y2="47.217" gradientUnits="userSpaceOnUse">
<stop stop-color="#144188"/>
<stop offset="0.998" stop-color="#102465"/>
</linearGradient>
<linearGradient id="paint7_linear" x1="36.4179" y1="51.2898" x2="39.0653" y2="51.2898" gradientUnits="userSpaceOnUse">
<stop stop-color="#144188"/>
<stop offset="0.998" stop-color="#102465"/>
</linearGradient>
<linearGradient id="paint8_linear" x1="60.0794" y1="57.377" x2="61.6317" y2="57.377" gradientUnits="userSpaceOnUse">
<stop stop-color="#144188"/>
<stop offset="0.998" stop-color="#102465"/>
</linearGradient>
<linearGradient id="paint9_linear" x1="69.8566" y1="61.9281" x2="71.2662" y2="61.9281" gradientUnits="userSpaceOnUse">
<stop stop-color="#144188"/>
<stop offset="0.998" stop-color="#102465"/>
</linearGradient>
<linearGradient id="paint10_linear" x1="21.5532" y1="48.88" x2="25.7609" y2="48.88" gradientUnits="userSpaceOnUse">
<stop stop-color="#144188"/>
<stop offset="0.998" stop-color="#102465"/>
</linearGradient>
<linearGradient id="paint11_linear" x1="23.2554" y1="33.7158" x2="26.9483" y2="33.7158" gradientUnits="userSpaceOnUse">
<stop stop-color="#144188"/>
<stop offset="0.998" stop-color="#102465"/>
</linearGradient>
<linearGradient id="paint12_linear" x1="19.5949" y1="65.3324" x2="76.898" y2="65.3324" gradientUnits="userSpaceOnUse">
<stop stop-color="#144188"/>
<stop offset="0.998" stop-color="#102465"/>
</linearGradient>
<linearGradient id="paint13_linear" x1="74.1271" y1="67.6781" x2="77.5616" y2="67.6781" gradientUnits="userSpaceOnUse">
<stop stop-color="#144188"/>
<stop offset="0.998" stop-color="#102465"/>
</linearGradient>
<linearGradient id="paint14_linear" x1="22.2745" y1="119.159" x2="29.9703" y2="119.159" gradientUnits="userSpaceOnUse">
<stop stop-color="#144188"/>
<stop offset="0.998" stop-color="#102465"/>
</linearGradient>
<linearGradient id="paint15_linear" x1="22.4482" y1="121.895" x2="22.8362" y2="124.075" gradientUnits="userSpaceOnUse">
<stop stop-color="#AAD6FF"/>
<stop offset="1" stop-color="#2E8ACB"/>
</linearGradient>
<linearGradient id="paint16_linear" x1="61.1874" y1="7.53041" x2="62.9127" y2="7.53041" gradientUnits="userSpaceOnUse">
<stop stop-color="#144188"/>
<stop offset="0.998" stop-color="#102465"/>
</linearGradient>
<linearGradient id="paint17_linear" x1="34.0752" y1="121.547" x2="34.3704" y2="123.87" gradientUnits="userSpaceOnUse">
<stop stop-color="#AAD6FF"/>
<stop offset="1" stop-color="#2E8ACB"/>
</linearGradient>
<linearGradient id="paint18_linear" x1="33.9999" y1="119.364" x2="45.0835" y2="119.364" gradientUnits="userSpaceOnUse">
<stop stop-color="#144188"/>
<stop offset="0.998" stop-color="#102465"/>
</linearGradient>
<linearGradient id="paint19_linear" x1="18.8072" y1="91.4439" x2="38.0522" y2="91.4439" gradientUnits="userSpaceOnUse">
<stop stop-color="#144188"/>
<stop offset="0.998" stop-color="#102465"/>
</linearGradient>
<linearGradient id="paint20_linear" x1="8.24814" y1="25.529" x2="61.6925" y2="62.2207" gradientUnits="userSpaceOnUse">
<stop stop-color="#AAD6FF"/>
<stop offset="1" stop-color="#2E8ACB"/>
</linearGradient>
<linearGradient id="paint21_linear" x1="20.1791" y1="25.9964" x2="33.3047" y2="25.9964" gradientUnits="userSpaceOnUse">
<stop stop-color="#144188"/>
<stop offset="0.998" stop-color="#102465"/>
</linearGradient>
<linearGradient id="paint22_linear" x1="15.234" y1="41.9884" x2="17.5195" y2="42.2318" gradientUnits="userSpaceOnUse">
<stop stop-color="#AAD6FF"/>
<stop offset="1" stop-color="#2E8ACB"/>
</linearGradient>
<linearGradient id="paint23_linear" x1="22.1895" y1="78.5369" x2="26.4751" y2="78.5369" gradientUnits="userSpaceOnUse">
<stop stop-color="#144188"/>
<stop offset="0.998" stop-color="#102465"/>
</linearGradient>
<clipPath id="clip0">
<rect width="90" height="132" fill="white"/>
</clipPath>
</defs>
</svg>
