<svg width="105" height="112" viewBox="0 0 105 112" fill="none" xmlns="http://www.w3.org/2000/svg">
<path d="M15.3999 91L6.14434 107.411C4.97768 109.433 6.45545 112 8.78879 112H12.4443C13.611 112 14.7777 111.844 15.9443 111.611L38.3443 106.089L15.3999 91Z" fill="url(#paint0_linear)"/>
<path d="M91.0001 91L100.256 107.411C101.422 109.433 99.9445 112 97.6112 112H93.9557C92.789 112 91.6223 111.844 90.4557 111.611L68.0557 106.089L91.0001 91Z" fill="url(#paint1_linear)"/>
<path d="M64.7889 9.1H41.0667V5.98889C41.0667 2.72222 43.7111 0 47.0555 0H58.8C62.0667 0 64.7889 2.64444 64.7889 5.98889V9.1Z" fill="url(#paint2_linear)"/>
<path d="M89.0555 21.6221L75.1333 12.211L75.4444 11.8222C77.3111 9.09993 80.9666 8.39993 83.7666 10.1888L87.8111 12.911C90.5333 14.7777 91.2333 18.4333 89.4444 21.2333L89.0555 21.6221Z" fill="url(#paint3_linear)"/>
<path d="M52.5 110.756C81.4949 110.756 105 87.2506 105 58.2556C105 29.2607 81.4949 5.75562 52.5 5.75562C23.5051 5.75562 0 29.2607 0 58.2556C0 87.2506 23.5051 110.756 52.5 110.756Z" fill="url(#paint4_linear)"/>
<path d="M52.4999 102.9C77.1563 102.9 97.1443 82.912 97.1443 58.2555C97.1443 33.5991 77.1563 13.6111 52.4999 13.6111C27.8435 13.6111 7.85547 33.5991 7.85547 58.2555C7.85547 82.912 27.8435 102.9 52.4999 102.9Z" fill="#E4E4E4"/>
<path d="M52.5 81.1223C65.1289 81.1223 75.3666 70.8845 75.3666 58.2556C75.3666 45.6267 65.1289 35.3889 52.5 35.3889C39.8711 35.3889 29.6333 45.6267 29.6333 58.2556C29.6333 70.8845 39.8711 81.1223 52.5 81.1223Z" fill="white"/>
<path d="M57.2445 58.2557C57.2445 60.9001 55.1445 63.0001 52.5001 63.0001C49.8556 63.0001 47.7556 60.9001 47.7556 58.2557C47.7556 55.6112 49.8556 53.5112 52.5001 53.5112C55.1445 53.5112 57.2445 55.6112 57.2445 58.2557Z" fill="#E1E5FF"/>
<path d="M53.2778 14.8555H52.1111V18.8221H53.2778V14.8555Z" fill="url(#paint5_linear)"/>
<path d="M74.3246 20.6567L73.3057 20.0886L71.3743 23.5531L72.3933 24.1212L74.3246 20.6567Z" fill="url(#paint6_linear)"/>
<path d="M89.8307 36.0676L89.2173 35.0752L85.8432 37.1609L86.4567 38.1532L89.8307 36.0676Z" fill="url(#paint7_linear)"/>
<path d="M95.9621 57.0539L95.9097 55.8884L91.947 56.0668L91.9994 57.2323L95.9621 57.0539Z" fill="url(#paint8_linear)"/>
<path d="M91.0613 78.3574L91.583 77.314L88.0352 75.5401L87.5135 76.5835L91.0613 78.3574Z" fill="url(#paint9_linear)"/>
<path d="M76.377 94.6144L77.3408 93.957L75.1056 90.6802L74.1418 91.3376L76.377 94.6144Z" fill="url(#paint10_linear)"/>
<path d="M55.6544 101.572L56.8164 101.468L56.4599 97.5167L55.2979 97.6216L55.6544 101.572Z" fill="url(#paint11_linear)"/>
<path d="M34.1406 97.6011L35.2065 98.0752L36.8186 94.4508L35.7526 93.9767L34.1406 97.6011Z" fill="url(#paint12_linear)"/>
<path d="M17.3234 83.6654L18.0237 84.5986L21.1966 82.2178L20.4964 81.2846L17.3234 83.6654Z" fill="url(#paint13_linear)"/>
<path d="M9.37996 63.3449L9.53711 64.501L13.4677 63.9667L13.3105 62.8106L9.37996 63.3449Z" fill="url(#paint14_linear)"/>
<path d="M12.7653 41.3269L12.3396 42.4131L16.0326 43.8605L16.4583 42.7744L12.7653 41.3269Z" fill="url(#paint15_linear)"/>
<path d="M26.9331 23.1599L26.0024 23.8635L28.3947 27.0277L29.3254 26.3241L26.9331 23.1599Z" fill="url(#paint16_linear)"/>
<path d="M37.4888 19.4444C37.5666 19.6777 37.4888 19.911 37.2555 19.9888C37.0222 20.0666 36.7888 19.9888 36.7111 19.7555C36.6333 19.5222 36.7111 19.2888 36.9444 19.2111C37.1777 19.1333 37.4111 19.2111 37.4888 19.4444Z" fill="url(#paint17_linear)"/>
<path d="M63.6223 18.1222C63.5445 18.3555 63.3111 18.4333 63.1556 18.4333C62.9223 18.3555 62.8445 18.1222 62.8445 17.9666C62.9223 17.7333 63.1556 17.6555 63.3111 17.6555C63.5445 17.6555 63.7 17.8888 63.6223 18.1222Z" fill="url(#paint18_linear)"/>
<path d="M81.8999 28.7778C81.7443 28.9334 81.511 28.9334 81.3554 28.7778C81.1999 28.6223 81.1999 28.3889 81.3554 28.2334C81.511 28.0778 81.7443 28.0778 81.8999 28.2334C82.0554 28.3889 82.0554 28.6223 81.8999 28.7778Z" fill="url(#paint19_linear)"/>
<path d="M92.5555 46.8222C92.3221 46.9 92.0888 46.7445 92.0888 46.5889C92.011 46.3556 92.1666 46.1223 92.3221 46.1223C92.5555 46.0445 92.7888 46.2 92.7888 46.3556C92.8666 46.5111 92.7888 46.7445 92.5555 46.8222Z" fill="url(#paint20_linear)"/>
<path d="M92.9444 68.2111C92.7111 68.1334 92.6333 67.9778 92.6333 67.7445C92.7111 67.5111 92.8666 67.4333 93.1 67.4333C93.3333 67.5111 93.4111 67.6667 93.4111 67.9C93.4111 68.1334 93.1778 68.2889 92.9444 68.2111Z" fill="url(#paint21_linear)"/>
<path d="M84.0778 85.4778C83.9223 85.3222 83.9223 85.0889 84.0001 84.9333C84.1556 84.7778 84.3889 84.7778 84.5445 84.8555C84.7001 85.0111 84.7001 85.2444 84.6223 85.4C84.4667 85.5555 84.2334 85.6333 84.0778 85.4778Z" fill="url(#paint22_linear)"/>
<path d="M66.8111 97.3778C66.7334 97.1445 66.8111 96.9111 67.0445 96.8334C67.2778 96.7556 67.5112 96.8334 67.5889 97.0667C67.6667 97.3 67.5889 97.5334 67.3556 97.6111C67.1223 97.6889 66.8889 97.6111 66.8111 97.3778Z" fill="url(#paint23_linear)"/>
<path d="M44.7221 99.1665C44.7999 98.9332 44.9555 98.7777 45.1888 98.8554C45.4221 98.9332 45.5777 99.0888 45.4999 99.3221C45.4221 99.5554 45.2666 99.711 45.0332 99.6332C44.7999 99.5554 44.6444 99.3999 44.7221 99.1665Z" fill="url(#paint24_linear)"/>
<path d="M26.2112 90.5334C26.3668 90.3779 26.6001 90.3001 26.7556 90.4556C26.9112 90.6112 26.989 90.8445 26.8334 91.0001C26.6779 91.1556 26.4445 91.2334 26.289 91.0779C26.0556 90.9223 26.0556 90.689 26.2112 90.5334Z" fill="url(#paint25_linear)"/>
<path d="M14 74.0443C14.2334 73.9665 14.4667 74.0443 14.5445 74.2776C14.6223 74.511 14.5445 74.7443 14.3112 74.8221C14.0778 74.8999 13.8445 74.8221 13.7667 74.5887C13.6889 74.3554 13.7667 74.1221 14 74.0443Z" fill="url(#paint26_linear)"/>
<path d="M11.2777 52.5779C11.511 52.5779 11.6666 52.8112 11.5888 53.0445C11.5888 53.2779 11.3554 53.4334 11.1221 53.3557C10.8888 53.3557 10.7332 53.1223 10.811 52.889C10.811 52.7334 11.0443 52.5779 11.2777 52.5779Z" fill="url(#paint27_linear)"/>
<path d="M20.3001 31.8111C20.4557 31.9667 20.4557 32.2 20.3779 32.3555C20.2223 32.5111 19.989 32.5111 19.8335 32.4333C19.6779 32.2778 19.6779 32.0444 19.7557 31.8889C19.9112 31.7333 20.1446 31.7333 20.3001 31.8111Z" fill="url(#paint28_linear)"/>
<path d="M53.6668 38.5001C53.589 29.789 53.2001 23.1001 52.6556 23.1001C52.189 23.1001 51.7223 29.789 51.6445 38.5001V57.6334C51.6445 58.1779 52.1112 58.6445 52.6556 58.6445C53.2001 58.6445 53.6668 58.1779 53.6668 57.6334V38.5001Z" fill="url(#paint29_linear)"/>
<path d="M59.7334 56.2334C72.8001 50.5556 82.7557 45.5778 82.3668 44.8778C82.0557 44.1001 71.6334 47.8334 58.4112 53.2778L52.3446 56.0778C51.489 56.4667 51.1001 57.4001 51.489 58.1778C51.8779 59.0334 52.8112 59.4223 53.589 59.0334L59.7334 56.2334Z" fill="url(#paint30_linear)"/>
<path opacity="0.32" d="M0 58.2556C0 68.0556 2.72222 77.2334 7.38889 85.089C15.2444 89.7556 24.4222 92.4778 34.2222 92.4778C63.2333 92.4778 86.7222 68.989 86.7222 39.9778C86.7222 30.1778 84 21.0001 79.3333 13.1445C71.4778 8.47784 62.3 5.75562 52.5 5.75562C23.4889 5.75562 0 29.2445 0 58.2556Z" fill="white"/>
<path opacity="0.32" d="M37.2555 12.6778C35.3111 12.5223 33.3666 12.9112 31.5777 13.689C25.2 16.6445 5.36662 27.3001 4.7444 46.8223C3.96663 70.1556 39.1222 42.8556 42.6222 29.089C45.5777 17.6556 42.6222 13.2223 37.2555 12.6778Z" fill="white"/>
<defs>
<linearGradient id="paint0_linear" x1="5.73231" y1="101.499" x2="38.3487" y2="101.499" gradientUnits="userSpaceOnUse">
<stop stop-color="#144188"/>
<stop offset="0.998" stop-color="#102465"/>
</linearGradient>
<linearGradient id="paint1_linear" x1="68.0514" y1="101.499" x2="100.668" y2="101.499" gradientUnits="userSpaceOnUse">
<stop stop-color="#144188"/>
<stop offset="0.998" stop-color="#102465"/>
</linearGradient>
<linearGradient id="paint2_linear" x1="41.0636" y1="4.54944" x2="64.7921" y2="4.54944" gradientUnits="userSpaceOnUse">
<stop stop-color="#144188"/>
<stop offset="0.998" stop-color="#102465"/>
</linearGradient>
<linearGradient id="paint3_linear" x1="75.1313" y1="15.4111" x2="90.4336" y2="15.4111" gradientUnits="userSpaceOnUse">
<stop stop-color="#144188"/>
<stop offset="0.998" stop-color="#102465"/>
</linearGradient>
<linearGradient id="paint4_linear" x1="0.696428" y1="7.43665" x2="121.429" y2="88.418" gradientUnits="userSpaceOnUse">
<stop stop-color="#AAD6FF"/>
<stop offset="1" stop-color="#2E8ACB"/>
</linearGradient>
<linearGradient id="paint5_linear" x1="52.1109" y1="16.8386" x2="53.2779" y2="16.8386" gradientUnits="userSpaceOnUse">
<stop stop-color="#144188"/>
<stop offset="0.998" stop-color="#102465"/>
</linearGradient>
<linearGradient id="paint6_linear" x1="72.34" y1="21.8206" x2="73.3592" y2="22.3888" gradientUnits="userSpaceOnUse">
<stop stop-color="#144188"/>
<stop offset="0.998" stop-color="#102465"/>
</linearGradient>
<linearGradient id="paint7_linear" x1="87.5304" y1="36.1178" x2="88.144" y2="37.1104" gradientUnits="userSpaceOnUse">
<stop stop-color="#144188"/>
<stop offset="0.998" stop-color="#102465"/>
</linearGradient>
<linearGradient id="paint8_linear" x1="93.9285" y1="55.9775" x2="93.981" y2="57.1433" gradientUnits="userSpaceOnUse">
<stop stop-color="#144188"/>
<stop offset="0.998" stop-color="#102465"/>
</linearGradient>
<linearGradient id="paint9_linear" x1="89.8094" y1="76.427" x2="89.2875" y2="77.4707" gradientUnits="userSpaceOnUse">
<stop stop-color="#144188"/>
<stop offset="0.998" stop-color="#102465"/>
</linearGradient>
<linearGradient id="paint10_linear" x1="76.2235" y1="92.3187" x2="75.2594" y2="92.9763" gradientUnits="userSpaceOnUse">
<stop stop-color="#144188"/>
<stop offset="0.998" stop-color="#102465"/>
</linearGradient>
<linearGradient id="paint11_linear" x1="56.6383" y1="99.4924" x2="55.476" y2="99.5973" gradientUnits="userSpaceOnUse">
<stop stop-color="#144188"/>
<stop offset="0.998" stop-color="#102465"/>
</linearGradient>
<linearGradient id="paint12_linear" x1="36.0126" y1="96.2633" x2="34.9463" y2="95.7891" gradientUnits="userSpaceOnUse">
<stop stop-color="#144188"/>
<stop offset="0.998" stop-color="#102465"/>
</linearGradient>
<linearGradient id="paint13_linear" x1="19.61" y1="83.4085" x2="18.9096" y2="82.475" gradientUnits="userSpaceOnUse">
<stop stop-color="#144188"/>
<stop offset="0.998" stop-color="#102465"/>
</linearGradient>
<linearGradient id="paint14_linear" x1="11.5022" y1="64.234" x2="11.345" y2="63.0777" gradientUnits="userSpaceOnUse">
<stop stop-color="#144188"/>
<stop offset="0.998" stop-color="#102465"/>
</linearGradient>
<linearGradient id="paint15_linear" x1="14.1858" y1="43.1369" x2="14.6116" y2="42.0504" gradientUnits="userSpaceOnUse">
<stop stop-color="#144188"/>
<stop offset="0.998" stop-color="#102465"/>
</linearGradient>
<linearGradient id="paint16_linear" x1="27.1983" y1="25.4455" x2="28.1292" y2="24.7417" gradientUnits="userSpaceOnUse">
<stop stop-color="#144188"/>
<stop offset="0.998" stop-color="#102465"/>
</linearGradient>
<linearGradient id="paint17_linear" x1="36.6818" y1="19.5999" x2="37.5181" y2="19.5999" gradientUnits="userSpaceOnUse">
<stop stop-color="#144188"/>
<stop offset="0.998" stop-color="#102465"/>
</linearGradient>
<linearGradient id="paint18_linear" x1="62.8444" y1="18.0444" x2="63.6426" y2="18.0444" gradientUnits="userSpaceOnUse">
<stop stop-color="#144188"/>
<stop offset="0.998" stop-color="#102465"/>
</linearGradient>
<linearGradient id="paint19_linear" x1="81.2387" y1="28.5055" x2="82.0167" y2="28.5055" gradientUnits="userSpaceOnUse">
<stop stop-color="#144188"/>
<stop offset="0.998" stop-color="#102465"/>
</linearGradient>
<linearGradient id="paint20_linear" x1="92.068" y1="46.4722" x2="92.8181" y2="46.4722" gradientUnits="userSpaceOnUse">
<stop stop-color="#144188"/>
<stop offset="0.998" stop-color="#102465"/>
</linearGradient>
<linearGradient id="paint21_linear" x1="92.6332" y1="67.8323" x2="93.4112" y2="67.8323" gradientUnits="userSpaceOnUse">
<stop stop-color="#144188"/>
<stop offset="0.998" stop-color="#102465"/>
</linearGradient>
<linearGradient id="paint22_linear" x1="83.9489" y1="85.1834" x2="84.6735" y2="85.1834" gradientUnits="userSpaceOnUse">
<stop stop-color="#144188"/>
<stop offset="0.998" stop-color="#102465"/>
</linearGradient>
<linearGradient id="paint23_linear" x1="66.7819" y1="97.2222" x2="67.6182" y2="97.2222" gradientUnits="userSpaceOnUse">
<stop stop-color="#144188"/>
<stop offset="0.998" stop-color="#102465"/>
</linearGradient>
<linearGradient id="paint24_linear" x1="44.7018" y1="99.2443" x2="45.5203" y2="99.2443" gradientUnits="userSpaceOnUse">
<stop stop-color="#144188"/>
<stop offset="0.998" stop-color="#102465"/>
</linearGradient>
<linearGradient id="paint25_linear" x1="26.1027" y1="90.7667" x2="26.9183" y2="90.7667" gradientUnits="userSpaceOnUse">
<stop stop-color="#144188"/>
<stop offset="0.998" stop-color="#102465"/>
</linearGradient>
<linearGradient id="paint26_linear" x1="13.7374" y1="74.4331" x2="14.5738" y2="74.4331" gradientUnits="userSpaceOnUse">
<stop stop-color="#144188"/>
<stop offset="0.998" stop-color="#102465"/>
</linearGradient>
<linearGradient id="paint27_linear" x1="10.7907" y1="52.9768" x2="11.6091" y2="52.9768" gradientUnits="userSpaceOnUse">
<stop stop-color="#144188"/>
<stop offset="0.998" stop-color="#102465"/>
</linearGradient>
<linearGradient id="paint28_linear" x1="19.7045" y1="32.1222" x2="20.4291" y2="32.1222" gradientUnits="userSpaceOnUse">
<stop stop-color="#144188"/>
<stop offset="0.998" stop-color="#102465"/>
</linearGradient>
<linearGradient id="paint29_linear" x1="51.6443" y1="40.8701" x2="53.667" y2="40.8701" gradientUnits="userSpaceOnUse">
<stop stop-color="#144188"/>
<stop offset="0.998" stop-color="#102465"/>
</linearGradient>
<linearGradient id="paint30_linear" x1="51.3338" y1="51.979" x2="82.382" y2="51.979" gradientUnits="userSpaceOnUse">
<stop stop-color="#144188"/>
<stop offset="0.998" stop-color="#102465"/>
</linearGradient>
</defs>
</svg>
