<svg width="155" height="123" viewBox="0 0 155 123" fill="none" xmlns="http://www.w3.org/2000/svg">
<path d="M67.903 64.6374L54.0918 94.3018L54.62 94.5473L68.4312 64.883L67.903 64.6374Z" fill="url(#paint0_linear)"/>
<path d="M13.1999 77.4526L12.8071 77.8826L42.7121 105.198L43.1048 104.768L13.1999 77.4526Z" fill="url(#paint1_linear)"/>
<path d="M14.1436 90.9948C19.6275 89.8316 23.1297 84.446 21.966 78.9657C20.8023 73.4854 15.4134 69.9857 9.92949 71.149C4.44559 72.3122 0.943351 77.6978 2.10703 83.178C3.27071 88.6583 8.65965 92.158 14.1436 90.9948Z" fill="url(#paint2_linear)"/>
<path d="M39.3688 26.7359L38.9111 27.0962L71.078 67.958L71.5356 67.5977L39.3688 26.7359Z" fill="url(#paint3_linear)"/>
<path d="M103.391 22.2335L79.6299 53.7253L80.0951 54.0759L103.856 22.584L103.391 22.2335Z" fill="url(#paint4_linear)"/>
<path d="M71.9277 66.8269L71.6228 67.323L108.839 90.2015L109.144 89.7055L71.9277 66.8269Z" fill="url(#paint5_linear)"/>
<path d="M142.789 62.4172L108.82 89.6958L109.185 90.1496L143.154 62.871L142.789 62.4172Z" fill="url(#paint6_linear)"/>
<path d="M143.728 73.8879C149.953 73.4669 154.658 68.0829 154.238 61.8623C153.817 55.6418 148.43 50.9403 142.205 51.3613C135.98 51.7823 131.275 57.1663 131.696 63.3869C132.117 69.6074 137.504 74.3089 143.728 73.8879Z" fill="url(#paint7_linear)"/>
<path d="M11.672 87.2101C13.3698 87.3265 14.9511 86.7277 16.1329 85.6963C15.9831 85.1142 15.7834 84.532 15.567 83.9997C15.2008 83.0848 14.5017 82.3695 13.6694 81.937C13.6694 81.9204 13.6861 81.9204 13.6861 81.9038C14.0523 81.3216 14.1688 80.6396 14.1521 79.9742C14.1521 79.3421 14.0356 78.6934 13.6528 78.1611C13.2699 77.6288 12.5708 77.2462 11.8384 77.2961C11.0561 77.3627 10.4402 77.9449 10.1739 78.5769C9.90759 79.209 9.94088 79.9077 9.99082 80.5897C10.0241 81.0721 10.1573 81.5711 10.3903 81.9703C9.8743 82.2864 9.42488 82.7355 8.9921 83.2844C8.54268 83.85 8.57597 83.8832 8.293 84.5486C8.15984 84.8813 8.02667 85.214 7.91016 85.5965C8.92552 86.5281 10.2239 87.1102 11.672 87.2101Z" fill="white"/>
<path d="M51.5265 120.469C59.3533 119.447 64.869 112.278 63.846 104.456C62.8231 96.6348 55.6489 91.1229 47.8221 92.1451C39.9953 93.1674 34.4797 100.337 35.5026 108.158C36.5256 115.98 43.6997 121.492 51.5265 120.469Z" fill="url(#paint8_linear)"/>
<path d="M49.1571 115.488C51.5707 115.637 53.8178 114.806 55.499 113.325C55.2826 112.493 55.0163 111.678 54.7 110.913C54.1674 109.616 53.202 108.584 52.0035 107.986C52.0201 107.969 52.0201 107.952 52.0368 107.936C52.5528 107.104 52.7192 106.139 52.7026 105.191C52.7026 104.293 52.5361 103.378 51.9869 102.613C51.4376 101.864 50.4388 101.299 49.4068 101.398C48.3082 101.498 47.4094 102.313 47.0432 103.228C46.6603 104.143 46.7103 105.124 46.7768 106.089C46.8268 106.771 47.0265 107.47 47.3428 108.069C46.6104 108.501 45.9779 109.15 45.362 109.948C44.7295 110.763 44.7627 110.797 44.3633 111.745C44.1635 112.211 43.9804 112.693 43.814 113.225C45.2288 114.523 47.0765 115.355 49.1571 115.488Z" fill="white"/>
<path d="M142.538 69.694C144.618 69.8271 146.566 69.1118 148.014 67.831C147.831 67.1157 147.598 66.4005 147.315 65.7517C146.865 64.6373 146.016 63.739 144.984 63.2233C144.984 63.2067 145.001 63.2067 145.018 63.1901C145.467 62.4748 145.6 61.6431 145.6 60.828C145.6 60.0462 145.451 59.2644 144.984 58.599C144.518 57.9503 143.653 57.4679 142.771 57.5511C141.822 57.6343 141.056 58.3329 140.723 59.1313C140.39 59.9131 140.424 60.7781 140.49 61.5932C140.54 62.192 140.707 62.7909 140.99 63.2899C140.357 63.6725 139.808 64.2214 139.275 64.9034C138.726 65.602 138.759 65.6353 138.409 66.4504C138.243 66.8496 138.077 67.2821 137.927 67.7312C139.159 68.8623 140.756 69.5776 142.538 69.694Z" fill="white"/>
<path d="M74.0552 75.3488C83.9661 74.4515 91.2726 65.6952 90.3748 55.791C89.4769 45.8868 80.7146 38.5853 70.8037 39.4825C60.8928 40.3798 53.5863 49.1361 54.4841 59.0403C55.382 68.9445 64.1443 76.246 74.0552 75.3488Z" fill="#FFB900"/>
<path d="M71.8637 69.7231C75.3072 69.93 78.5145 68.8015 80.915 66.77C80.6002 65.6227 80.2263 64.5129 79.7738 63.4596C79.0261 61.6915 77.629 60.2808 75.9171 59.472C75.9368 59.4531 75.9565 59.4343 75.9565 59.4155C76.7042 58.287 76.9207 56.9515 76.901 55.6724C76.8813 54.4498 76.6649 53.1896 75.8778 52.1551C75.0907 51.1205 73.674 50.3682 72.1982 50.4998C70.6241 50.6315 69.3648 51.7413 68.8138 52.9827C68.2826 54.2241 68.3219 55.5784 68.44 56.8951C68.5187 57.8355 68.7942 58.7948 69.2467 59.5848C68.2038 60.1867 67.2987 61.052 66.4133 62.1429C65.5081 63.2527 65.5475 63.2903 64.9965 64.6069C64.7211 65.2465 64.4456 65.9048 64.2095 66.6384C66.2755 68.3877 68.9122 69.535 71.8637 69.7231Z" fill="white"/>
<path d="M122.717 100.013C130.611 92.1252 130.611 79.3362 122.717 71.4482C114.824 63.5602 102.026 63.5602 94.133 71.4482C86.2397 79.3362 86.2397 92.1252 94.133 100.013C102.026 107.901 114.824 107.901 122.717 100.013Z" fill="url(#paint9_linear)"/>
<path d="M107.714 100.536C111.695 100.802 115.41 99.357 118.182 96.8071C117.816 95.3626 117.38 93.9475 116.859 92.621C115.987 90.3805 114.383 88.597 112.413 87.5652C112.427 87.5357 112.441 87.521 112.469 87.4915C113.327 86.047 113.581 84.3814 113.567 82.7453C113.553 81.1976 113.285 79.591 112.385 78.2939C111.484 76.9821 109.838 76.024 108.136 76.1861C106.321 76.363 104.857 77.7633 104.224 79.3404C103.605 80.9176 103.661 82.6274 103.788 84.293C103.872 85.4869 104.182 86.6956 104.731 87.6979C103.535 88.4496 102.48 89.5698 101.466 90.9406C100.425 92.3409 100.468 92.3999 99.8203 94.0507C99.4967 94.8614 99.1872 95.7016 98.9058 96.6302C101.241 98.8559 104.295 100.315 107.714 100.536Z" fill="white"/>
<path d="M116.952 24.1158C120.602 18.3186 118.858 10.6623 113.056 7.01504C107.255 3.36779 99.5938 5.1107 95.9441 10.9079C92.2944 16.7052 94.0385 24.3615 99.8397 28.0087C105.641 31.656 113.302 29.9131 116.952 24.1158Z" fill="url(#paint10_linear)"/>
<path d="M105.989 25.0151C108.189 25.147 110.235 24.3996 111.774 23.0368C111.576 22.2675 111.334 21.5202 111.048 20.8388C110.565 19.6518 109.685 18.7066 108.585 18.1791C108.585 18.1571 108.607 18.1571 108.607 18.1351C109.069 17.3658 109.223 16.4866 109.223 15.6294C109.223 14.8161 109.069 13.9588 108.563 13.2774C108.057 12.596 107.155 12.0905 106.209 12.1564C105.198 12.2443 104.384 12.9917 104.054 13.8269C103.702 14.6622 103.746 15.5634 103.812 16.4426C103.856 17.0801 104.032 17.7175 104.34 18.245C103.68 18.6407 103.086 19.2342 102.536 19.9595C101.964 20.7069 101.986 20.7289 101.634 21.6081C101.458 22.0257 101.282 22.4873 101.128 22.9709C102.404 24.1139 104.098 24.8832 105.989 25.0151Z" fill="white"/>
<path d="M48.6389 19.1931C49.4793 11.0829 43.5815 3.82748 35.4658 2.98768C27.3501 2.14788 20.0898 8.04169 19.2494 16.1519C18.409 24.2621 24.3068 31.5175 32.4225 32.3573C40.5382 33.1971 47.7985 27.3033 48.6389 19.1931Z" fill="url(#paint11_linear)"/>
<path d="M33.5222 27.1846C36.1934 27.3626 38.6866 26.4333 40.5465 24.7921C40.3091 23.8627 40.0123 22.9729 39.6561 22.1227C39.0823 20.699 37.994 19.5521 36.6683 18.8996C36.6881 18.8798 36.6881 18.8601 36.7079 18.8601C37.2817 17.9307 37.4598 16.863 37.44 15.8347C37.44 14.8461 37.2619 13.8179 36.6485 12.9874C36.0351 12.1569 34.9469 11.5439 33.7992 11.6428C32.5724 11.7614 31.6029 12.6512 31.1874 13.6597C30.7718 14.6681 30.8114 15.7556 30.8906 16.8234C30.9499 17.5946 31.1676 18.3657 31.5237 18.9985C30.7125 19.473 30.0199 20.1849 29.3274 21.0747C28.6349 21.9645 28.6547 22.004 28.2193 23.0718C28.0017 23.5859 27.784 24.1198 27.606 24.713C29.1889 26.0971 31.2467 27.0265 33.5222 27.1846Z" fill="white"/>
<defs>
<linearGradient id="paint0_linear" x1="54.3541" y1="94.4284" x2="68.1536" y2="64.7491" gradientUnits="userSpaceOnUse">
<stop stop-color="#144188"/>
<stop offset="0.998" stop-color="#102465"/>
</linearGradient>
<linearGradient id="paint1_linear" x1="27.7577" y1="91.5388" x2="28.1506" y2="91.1087" gradientUnits="userSpaceOnUse">
<stop stop-color="#144188"/>
<stop offset="0.998" stop-color="#102465"/>
</linearGradient>
<linearGradient id="paint2_linear" x1="0.199184" y1="73.5449" x2="26.2788" y2="84.0202" gradientUnits="userSpaceOnUse">
<stop stop-color="#AAD6FF"/>
<stop offset="1" stop-color="#2E8ACB"/>
</linearGradient>
<linearGradient id="paint3_linear" x1="54.9925" y1="47.5246" x2="55.4503" y2="47.1642" gradientUnits="userSpaceOnUse">
<stop stop-color="#144188"/>
<stop offset="0.998" stop-color="#102465"/>
</linearGradient>
<linearGradient id="paint4_linear" x1="79.8593" y1="53.9047" x2="103.606" y2="22.389" gradientUnits="userSpaceOnUse">
<stop stop-color="#144188"/>
<stop offset="0.998" stop-color="#102465"/>
</linearGradient>
<linearGradient id="paint5_linear" x1="90.2284" y1="78.7609" x2="90.5335" y2="78.2647" gradientUnits="userSpaceOnUse">
<stop stop-color="#144188"/>
<stop offset="0.998" stop-color="#102465"/>
</linearGradient>
<linearGradient id="paint6_linear" x1="108.998" y1="89.9262" x2="142.958" y2="62.618" gradientUnits="userSpaceOnUse">
<stop stop-color="#144188"/>
<stop offset="0.998" stop-color="#102465"/>
</linearGradient>
<linearGradient id="paint7_linear" x1="131.693" y1="63.3857" x2="154.241" y2="61.8608" gradientUnits="userSpaceOnUse">
<stop stop-color="#144188"/>
<stop offset="0.998" stop-color="#102465"/>
</linearGradient>
<linearGradient id="paint8_linear" x1="33.8977" y1="94.425" x2="69.3355" y2="112.033" gradientUnits="userSpaceOnUse">
<stop stop-color="#AAD6FF"/>
<stop offset="1" stop-color="#2E8ACB"/>
</linearGradient>
<linearGradient id="paint9_linear" x1="80.488" y1="85.9986" x2="135.398" y2="75.1701" gradientUnits="userSpaceOnUse">
<stop stop-color="#AAD6FF"/>
<stop offset="1" stop-color="#2E8ACB"/>
</linearGradient>
<linearGradient id="paint10_linear" x1="89.7597" y1="21.477" x2="121.152" y2="7.50846" gradientUnits="userSpaceOnUse">
<stop stop-color="#AAD6FF"/>
<stop offset="1" stop-color="#2E8ACB"/>
</linearGradient>
<linearGradient id="paint11_linear" x1="32.4203" y1="32.3609" x2="35.4603" y2="2.98312" gradientUnits="userSpaceOnUse">
<stop stop-color="#144188"/>
<stop offset="0.998" stop-color="#102465"/>
</linearGradient>
</defs>
</svg>
