<svg width="128" height="113" viewBox="0 0 128 113" fill="none" xmlns="http://www.w3.org/2000/svg">
<path d="M49.6251 49.204C49.6251 49.7878 49.1858 50.2637 48.6478 50.2637C48.1048 50.2637 47.6655 49.7927 47.6655 49.204C47.6655 48.6202 48.1048 48.1443 48.6478 48.1443C49.1858 48.1443 49.6251 48.6202 49.6251 49.204Z" fill="white"/>
<path d="M127.415 5.02486V46.172C127.415 48.0706 126.117 49.6406 124.483 49.6798L110.875 50.0085L68.9054 51.029C67.1975 51.0683 65.6082 49.6897 65.4206 47.8695C65.4058 47.7321 65.2183 47.5899 65.2183 47.4476V3.61192C65.2183 2.8711 65.6033 2.18916 65.9488 1.62496C65.9586 1.61025 66.0574 1.59553 66.0672 1.58081C66.6694 0.624127 67.7257 0.0157756 68.8659 0.045212L75.2331 0.212019L124.473 1.51213C126.107 1.55628 127.415 3.12622 127.415 5.02486Z" fill="white"/>
<path d="M68.9101 49.8662C67.6613 49.8956 66.6445 48.8016 66.6445 47.4279V3.64126C66.6445 2.26757 67.6613 1.17842 68.9101 1.20786L124.503 2.61099C125.613 2.64043 126.517 3.70995 126.517 5.00515V46.1915C126.517 47.4818 125.613 48.5514 124.503 48.5808L68.9101 49.8662Z" fill="url(#paint0_linear)"/>
<path d="M124.508 1.51196L68.9156 0.0450445C67.0795 -0.00401613 65.5889 1.59536 65.5889 3.61666V6.2414L127.465 7.48754V5.0247C127.46 3.12605 126.137 1.55611 124.508 1.51196Z" fill="#D8DEE8"/>
<path d="M71.5062 3.29787C71.5062 3.90131 71.0225 4.3772 70.4252 4.36248C69.828 4.34777 69.3394 3.84735 69.3394 3.2439C69.3394 2.64046 69.8231 2.16457 70.4252 2.17929C71.0225 2.19891 71.5062 2.69933 71.5062 3.29787Z" fill="white"/>
<path d="M75.2872 3.38629C75.2872 3.98483 74.8084 4.46071 74.2161 4.4509C73.6238 4.43618 73.1401 3.94067 73.1401 3.33722C73.1401 2.73378 73.6238 2.2628 74.2161 2.27261C74.8035 2.28733 75.2872 2.78775 75.2872 3.38629Z" fill="white"/>
<path d="M79.0385 3.47458C79.0385 4.07312 78.5598 4.5441 77.9724 4.53429C77.385 4.51957 76.9062 4.02406 76.9062 3.42552C76.9062 2.82698 77.385 2.35109 77.9724 2.36581C78.5598 2.38053 79.0385 2.87604 79.0385 3.47458Z" fill="white"/>
<path d="M124.014 46.2601L69.4629 47.3885V12.9038L124.014 13.6446V46.2601Z" fill="#D8DEE8"/>
<g opacity="0.5">
<path opacity="0.5" d="M98.6289 9.83269L69.4629 9.33228V11.1966L98.6289 11.643V9.83269Z" fill="white"/>
<path opacity="0.5" d="M120.865 10.2153V11.9815L124.014 12.0306V10.2693L120.865 10.2153Z" fill="white"/>
</g>
<g opacity="0.5">
<path opacity="0.5" d="M111.23 50.0085L69.2556 51.0289C67.5477 51.0682 65.9485 49.6896 65.756 47.8694C65.756 47.8302 65.5586 47.7909 65.5586 47.7517V3.59223C65.5586 2.86123 65.9436 2.1891 66.2792 1.6249C66.2891 1.61018 66.3928 1.59546 66.4026 1.58074C66.9999 0.599532 68.071 -0.0284444 69.2259 0.000991974L75.5587 0.167799C75.5636 0.182517 75.5784 0.197237 75.5833 0.211955C75.7018 0.594628 75.8351 0.982206 75.9782 1.3796C76.5409 2.94463 77.2911 4.58325 78.2981 6.20226C78.3573 6.30038 78.4215 6.3985 78.4856 6.49662C79.226 7.64954 80.0157 8.64547 80.8351 9.51875C81.4916 10.2154 82.1727 10.8385 82.8687 11.3929C83.6831 12.0454 84.5271 12.6096 85.381 13.1149C91.5459 16.7503 98.466 17.2262 103.056 24.5117C106.99 30.7571 104.172 34.0343 107.977 43.5914C108.392 44.6314 108.836 45.6225 109.305 46.5742C109.705 47.3837 110.125 48.1638 110.564 48.9144C110.786 49.2824 111.008 49.6503 111.23 50.0085Z" fill="white"/>
</g>
<path d="M89.0189 45.9266C79.5469 44.4744 77.4393 43.4049 76.462 41.4081C75.0405 38.5037 76.0721 33.7694 78.5055 30.8601C80.6279 28.3138 83.2686 27.8232 83.1946 26.062C83.1304 24.6147 81.3239 24.4184 79.9912 21.6857C79.6012 20.8861 78.8461 19.3357 79.1768 17.4763C79.6605 14.7584 82.1087 13.3602 82.311 13.2522C84.8678 11.8491 86.319 13.527 88.2341 12.2661C90.623 10.6962 89.5421 7.29627 91.778 6.35921C93.4019 5.68217 95.4701 6.84981 96.0081 7.15399C97.8047 8.16955 97.6122 9.15566 99.1275 9.78854C100.9 10.5294 101.744 9.41569 103.792 9.90139C105.48 10.3037 106.699 11.54 107.691 12.7812C109.917 15.563 108.812 17.182 110.455 20.5917C112.76 25.3751 116.23 24.8452 116.847 28.6573C117.168 30.6491 116.344 31.5567 116.976 34.6083C117.405 36.6689 117.938 37.0368 118.037 38.2437C118.308 41.727 114.35 44.8276 113.609 45.3722C108.866 48.88 102.262 47.9528 89.0189 45.9266Z" fill="#263238"/>
<path d="M78.4557 58.6284C77.0194 55.0519 77.8931 49.4001 78.0806 48.2079C78.8013 43.5668 80.4943 40.6869 81.1112 39.6615C85.3265 32.6704 91.6987 32.7195 96.4815 32.7587C98.8359 32.7783 101.274 32.7244 104.246 33.8135C104.246 33.8135 106.59 34.6721 108.569 36.1095C114.463 40.3827 119.098 54.3748 114.359 59.747C111.334 63.1812 108.219 58.908 94.6256 61.1992C89.1271 62.1264 83.3077 63.6375 79.8378 60.6497C79.2603 60.1591 78.8062 59.4968 78.4557 58.6284Z" fill="#FFC733"/>
<path d="M93.9745 24.3792C93.9745 24.3792 94.9814 31.8756 89.8629 33.372C89.2706 33.5437 89.088 34.3237 89.5372 34.7555L95.8501 40.8537C96.2302 41.2217 96.8274 41.1922 97.1779 40.785L102.834 34.2403C103.205 33.8135 103.042 33.1365 102.523 32.9353C100.712 32.2436 97.4592 30.2223 98.1453 24.7569L93.9745 24.3792Z" fill="#E3AC91"/>
<path d="M90.8351 20.1944C90.8351 20.2778 92.2172 27.6124 95.7513 27.6222C99.078 27.632 100.337 22.2795 100.746 19.7823C100.791 19.3555 100.835 18.9335 100.875 18.5067C100.648 18.5803 100.09 18.7324 99.4236 18.5362C99.2705 18.492 98.3081 18.2074 97.9477 17.3783C97.5479 16.4511 98.2834 15.7299 97.8638 14.9155C97.622 14.4445 97.1333 14.2188 96.7582 14.1011C97.005 14.4837 97.4887 15.3325 97.2172 16.0978C97.0346 16.613 96.5213 17.0987 95.3761 17.3881C92.0889 18.2173 90.8006 18.5313 90.8351 20.1944Z" fill="#F8BEA1"/>
<path d="M90.4355 43.1989C90.4355 44.2684 89.5964 45.1466 88.5549 45.1613C87.5135 45.176 86.6694 44.3126 86.6694 43.2381C86.6694 42.1637 87.5135 41.2855 88.5549 41.2757C89.5964 41.2659 90.4355 42.1245 90.4355 43.1989Z" fill="white"/>
<path d="M99.1717 43.1007C99.1717 44.1653 98.3425 45.0337 97.3207 45.0484C96.2941 45.0631 95.4648 44.2094 95.4648 43.1399C95.4648 42.0753 96.299 41.202 97.3207 41.1922C98.3425 41.1824 99.1717 42.0361 99.1717 43.1007Z" fill="white"/>
<path d="M107.77 43.0027C107.77 44.0575 106.956 44.921 105.949 44.9357C104.937 44.9504 104.118 44.1017 104.118 43.042C104.118 41.9822 104.937 41.1188 105.949 41.109C106.956 41.0992 107.77 41.9479 107.77 43.0027Z" fill="white"/>
<path d="M118.802 65.379V99.2259C118.802 100.786 117.735 102.135 116.383 102.228L105.154 103.028H105.144L70.7756 105.471C70.5485 105.486 70.3314 105.471 70.1191 105.432C70.0796 105.427 70.0401 105.417 70.0006 105.408C69.9266 105.388 69.8476 105.363 69.7736 105.339C69.6996 105.309 69.6255 105.28 69.5564 105.246C69.4478 105.197 69.3442 105.138 69.2504 105.074C69.1862 105.03 69.1221 104.986 69.0628 104.937C68.9987 104.888 68.9394 104.834 68.8851 104.78C68.4261 104.343 68.1201 103.725 68.046 103.018C68.0362 102.905 67.9868 102.793 67.9868 102.675V66.9588C67.9868 66.9244 67.9868 66.895 67.9868 66.8606C67.9868 66.8214 67.9918 66.7871 67.9918 66.7478C68.0362 66.2278 68.2237 65.7421 68.4705 65.325C68.4755 65.3103 68.5051 65.3005 68.515 65.2858C68.9098 64.6333 69.5317 64.1574 70.2474 63.9857C70.3314 63.9661 70.4153 63.9464 70.5041 63.9366C70.593 63.9219 70.6818 63.9268 70.7706 63.9219L75.9434 63.7845H75.9484L87.1133 63.4558L116.393 62.6218C116.422 62.6218 116.452 62.6169 116.482 62.6218C116.516 62.6218 116.556 62.6218 116.59 62.6218C116.625 62.6218 116.659 62.6267 116.694 62.6316C117.888 62.7788 118.802 63.9366 118.802 65.379Z" fill="white"/>
<path d="M70.7703 104.519C69.7535 104.588 68.9292 103.739 68.9292 102.621V66.9488C68.9292 65.8303 69.7584 64.8981 70.7703 64.8687L116.412 63.5342C117.33 63.5097 118.081 64.3486 118.081 65.4132V99.2896C118.081 100.349 117.335 101.267 116.412 101.331L70.7703 104.519Z" fill="url(#paint1_linear)"/>
<path d="M116.407 62.6266L70.765 63.9169C69.2694 63.9611 68.0552 65.3299 68.0552 66.9734V69.1125L118.85 67.4101V65.3839C118.855 63.8237 117.764 62.5874 116.407 62.6266Z" fill="#D8DEE8"/>
<path d="M72.8832 66.4535C72.8832 66.9441 72.4883 67.3562 72.0046 67.3709C71.516 67.3856 71.1211 66.9981 71.1211 66.5075C71.1211 66.0168 71.516 65.6047 72.0046 65.59C72.4883 65.5802 72.8832 65.9629 72.8832 66.4535Z" fill="white"/>
<path d="M75.9627 66.3602C75.9627 66.8508 75.5728 67.258 75.089 67.2727C74.6053 67.2874 74.2104 66.9048 74.2104 66.4142C74.2104 65.9236 74.6053 65.5163 75.089 65.5016C75.5678 65.4869 75.9627 65.8696 75.9627 66.3602Z" fill="white"/>
<path d="M79.0226 66.2669C79.0226 66.7527 78.6326 67.1648 78.1539 67.1795C77.6751 67.1942 77.2852 66.8115 77.2852 66.3209C77.2852 65.8303 77.6751 65.4231 78.1539 65.4084C78.6326 65.3937 79.0226 65.7763 79.0226 66.2669Z" fill="white"/>
<path d="M116.002 99.4369L71.2192 102.479V74.3718L116.002 72.6252V99.4369Z" fill="#D8DEE8"/>
<g opacity="0.5">
<path opacity="0.5" d="M95.0694 70.604L71.2192 71.4626V72.9785L95.0694 72.0807V70.604Z" fill="white"/>
<path opacity="0.5" d="M113.396 69.9416V71.3938L116.002 71.2956V69.8484L113.396 69.9416Z" fill="white"/>
</g>
<g opacity="0.5">
<path opacity="0.5" d="M105.153 103.028L70.7702 105.466C70.5432 105.481 70.326 105.466 70.1137 105.427C70.0743 105.422 70.0348 105.412 69.9953 105.403C69.9212 105.383 69.8423 105.358 69.7682 105.334C69.6942 105.304 69.6202 105.275 69.5511 105.241C69.4425 105.192 69.3388 105.133 69.245 105.069C69.1809 105.025 69.1167 104.981 69.0575 104.932C68.9933 104.883 68.9341 104.829 68.8798 104.775C68.4207 104.338 68.1098 103.725 68.0357 103.018C68.0357 102.984 67.9814 102.95 67.9814 102.92V66.9538C67.9814 66.9194 67.9814 66.89 67.9814 66.8557C67.9814 66.8164 67.9864 66.7821 67.9864 66.7428C68.0259 66.2228 68.2184 65.742 68.4602 65.3201C68.4652 65.3053 68.4997 65.2955 68.5096 65.2808C68.9933 64.4566 69.8373 63.8973 70.7801 63.8679L75.9085 63.7256C75.9134 63.7354 75.9035 63.7501 75.9035 63.7599C76.0763 64.069 76.1256 64.3781 76.2392 64.6921C76.6982 65.9431 77.3152 67.253 78.1395 68.5237C78.1888 68.6022 78.2481 68.6807 78.2974 68.7543C78.9045 69.6619 79.5462 70.442 80.2175 71.119C80.7555 71.6636 81.3132 72.1395 81.8809 72.5614C82.5472 73.0618 83.2333 73.4837 83.9342 73.8566C84.9707 74.411 86.0369 74.8574 87.103 75.2646C91.2343 76.8395 95.4348 77.8403 98.4308 82.4275C101.294 86.8037 99.8129 89.502 101.595 95.3648C101.782 95.978 101.999 96.6256 102.266 97.3174C102.335 97.4989 102.409 97.6804 102.483 97.8669C102.824 98.7009 103.189 99.5006 103.579 100.261C103.91 100.909 104.255 101.532 104.615 102.13C104.788 102.449 104.971 102.743 105.153 103.028Z" fill="white"/>
</g>
<path d="M76.9453 110.422C75.5632 106.845 77.5129 100.703 78.737 97.9062C82.2908 89.7915 88.7667 89.193 94.0184 88.7073C99.132 88.2363 104.023 87.7801 107.582 93.5349C109.892 97.2733 112.01 104.23 110.598 108.101C109.112 112.183 104.961 109.386 94.9661 110.029C83.7716 110.75 78.6679 114.876 76.9453 110.422Z" fill="#2B58A6"/>
<path d="M98.8455 89.2813C98.8455 90.2625 96.5404 91.5627 93.6776 91.7197C90.8049 91.8717 88.4653 90.812 88.4653 89.821C88.4653 88.83 90.8049 89.1538 93.6776 89.0066C96.5404 88.8545 98.8455 88.3001 98.8455 89.2813Z" fill="#113065"/>
<path d="M91.773 82.7563C90.9833 82.7907 92.8096 88.4571 89.927 89.3942C89.6457 89.4874 89.6012 89.875 89.8579 90.0026C90.6328 90.395 92.0791 90.866 94.4483 90.7434C95.9784 90.66 97.0989 90.0026 97.6813 89.5708C97.8788 89.4236 97.859 89.1146 97.6468 89.0115C96.7682 88.5847 95.5441 87.1472 95.9093 82.7122L91.773 82.7563Z" fill="#E3AC91"/>
<path d="M89.3591 75.9567C89.369 76.0303 89.6108 81.2798 90.7757 83.8555C91.1113 84.5914 92.7599 84.4246 93.8261 84.2823C94.7491 84.1597 96.1953 84.4393 96.605 83.7623C98.2387 81.0345 97.9623 74.4751 97.9623 74.4751C97.9623 74.4751 97.1281 72.3213 93.6829 72.5078C90.2229 72.6942 89.3591 75.9567 89.3591 75.9567Z" fill="#F8BEA1"/>
<path d="M90.1732 78.7483C90.1732 78.7483 89.4476 77.9045 88.7615 77.8162C88.0755 77.7279 87.6263 79.5823 88.5641 80.7352C89.5019 81.8882 90.5779 80.8481 90.5779 80.8481L90.1732 78.7483Z" fill="#F8BEA1"/>
<path d="M97.2123 78.449C97.2123 78.449 97.928 77.5512 98.6042 77.4089C99.2805 77.2666 99.7148 79.0623 98.7967 80.2839C97.8737 81.5104 96.8125 80.5733 96.8125 80.5733L97.2123 78.449Z" fill="#F8BEA1"/>
<path d="M89.6058 78.7038C89.6996 78.8755 89.8032 79.0325 89.8723 79.008C90.1636 78.9148 89.0332 76.0055 90.0747 74.9311C90.6127 74.3767 91.2198 74.8378 93.4212 74.6514C95.6276 74.4601 96.1903 73.8959 96.8566 74.2884C97.4637 74.6465 98.0017 75.7111 97.5526 78.954C97.676 78.9197 97.8043 78.8853 97.9277 78.8461C97.7599 77.7962 97.9425 77.1241 98.1547 76.6972C98.3078 76.3833 98.5842 75.981 98.5644 75.4119C98.5496 75.0586 98.4361 75.0488 98.4213 74.7593C98.367 73.9106 99.2949 73.6506 99.3393 72.8116C99.3739 72.164 98.8408 72.0365 98.9395 71.3595C99.0234 70.7854 99.4381 70.6628 99.3739 70.2507C99.3048 69.8042 98.7421 69.4952 98.3522 69.3921C97.9524 69.2891 97.8043 69.4216 97.5723 69.2646C97.1922 69.0045 97.3749 68.5139 97.0985 68.3422C96.6098 68.0381 95.6325 69.3529 95.0007 69.0536C94.6207 68.8721 94.7638 68.2932 94.4282 68.1656C93.7717 67.9154 92.6118 69.8582 92.1478 69.6227C91.9257 69.5099 92.1379 69.0389 91.8269 68.7053C91.4568 68.3177 90.5732 68.3471 90.1685 68.7838C89.7934 69.191 90.1093 69.6571 89.7144 70.1722C89.3541 70.6383 88.9395 70.4666 88.5347 70.8394C87.8437 71.4772 88.0855 72.8607 88.1695 73.3562C88.4656 75.0537 89.3837 75.3628 89.1764 76.5402C89.1221 76.8395 89.0036 77.178 89.0875 77.6588C89.1665 78.1298 89.4084 78.4781 89.6058 78.7038Z" fill="url(#paint2_linear)"/>
<path d="M88.1352 97.558C88.1352 98.4362 87.4442 99.1868 86.5952 99.2359C85.7413 99.2849 85.0503 98.6177 85.0503 97.7395C85.0503 96.8613 85.7413 96.1107 86.5952 96.0616C87.4442 96.0126 88.1352 96.6798 88.1352 97.558Z" fill="white"/>
<path d="M95.3023 97.1361C95.3023 98.0045 94.6211 98.7551 93.782 98.8041C92.938 98.8532 92.2568 98.186 92.2568 97.3127C92.2568 96.4394 92.938 95.6937 93.782 95.6446C94.6211 95.6005 95.3023 96.2677 95.3023 97.1361Z" fill="white"/>
<path d="M102.38 96.7239C102.38 97.5874 101.709 98.3282 100.879 98.3822C100.05 98.4312 99.374 97.7689 99.374 96.9005C99.374 96.0322 100.05 95.2913 100.879 95.2423C101.709 95.1932 102.38 95.8605 102.38 96.7239Z" fill="white"/>
<path d="M87.0987 63.4561V79.5332C87.0987 81.8145 85.4501 83.7475 83.4067 83.8555L71.22 84.4835L68.9297 84.6012L67.9722 84.6503V66.9639C67.9722 66.9295 67.9722 66.9001 67.9722 66.8658C67.9722 66.8265 67.9771 66.7922 67.9771 66.7529C68.0166 66.2329 68.2091 65.7521 68.4509 65.3302C68.4559 65.3155 68.4904 65.3056 68.5003 65.2909C68.984 64.4667 69.8281 63.9074 70.7708 63.878L75.9189 63.7357C75.9239 63.7455 75.9288 63.7602 75.9337 63.77L87.0987 63.4561Z" fill="#D8DEE8"/>
<path d="M85.2282 28.3385C85.2282 26.3417 83.9548 24.6688 82.2766 24.2763C82.2174 24.2616 82.1483 24.2517 82.089 24.237C81.9064 24.2027 81.7139 24.188 81.5263 24.188L46.2595 23.9819L11.4616 23.7808C11.3876 23.7808 11.3136 23.7808 11.2445 23.7857C10.3165 23.8298 9.46756 24.188 8.78641 24.762C8.7716 24.7718 8.76172 24.7816 8.74692 24.7914C8.6482 24.8748 8.55442 24.9631 8.46557 25.0563L8.46064 25.0612C8.40634 25.1152 8.35698 25.1741 8.30763 25.233C7.63141 26.0179 7.2168 27.058 7.2168 28.2011V31.395V81.4859C7.2168 81.8686 7.26122 82.2414 7.35007 82.5898C7.40436 82.8007 7.46853 83.0019 7.55244 83.1981C8.09045 84.4982 9.22076 85.4402 10.5979 85.6659C10.8743 85.71 11.1655 85.7296 11.4616 85.7149L64.7148 82.9724L81.5362 82.109C83.5747 82.0059 85.2282 80.0681 85.2282 77.7916V31.3018V28.3385Z" fill="#D8DEE8"/>
<path d="M85.376 28.314V77.8161C85.376 80.0974 83.7224 82.0353 81.6839 82.1384L64.6157 83.0165L11.4712 85.7541C9.29447 85.867 7.36948 84.2431 7.12762 82.0353C7.10788 81.8685 6.97461 28.1815 6.97461 28.1815C6.97461 27.2788 7.35467 26.4447 7.79396 25.7432C7.80877 25.7236 7.87787 25.7039 7.89268 25.6843C8.65774 24.5068 9.98055 23.7415 11.4416 23.7513L19.5413 23.8004L81.679 24.1634C83.7175 24.1683 85.376 26.0277 85.376 28.314Z" fill="white"/>
<path d="M11.471 84.3363C9.88163 84.4148 8.5835 83.1245 8.5835 81.4516V28.1815C8.5835 26.5135 9.88163 25.1594 11.471 25.1643L81.6788 25.4783C83.0658 25.4832 84.1911 26.7539 84.1911 28.3091V77.8701C84.1911 79.4254 83.0658 80.7451 81.6788 80.8138L11.471 84.3363Z" fill="url(#paint3_linear)"/>
<path d="M81.6788 24.1536L11.471 23.7464C9.12644 23.7317 7.22119 25.7138 7.22119 28.1766V31.3704L85.3708 31.2723V28.3091C85.3659 26.0277 83.7222 24.1683 81.6788 24.1536Z" fill="#D8DEE8"/>
<path d="M14.7782 27.6418C14.7782 28.3728 14.1612 28.9664 13.4011 28.9664C12.636 28.9664 12.019 28.3679 12.019 27.6369C12.019 26.901 12.636 26.3123 13.4011 26.3123C14.1612 26.3123 14.7782 26.9059 14.7782 27.6418Z" fill="white"/>
<path d="M19.5954 27.6515C19.5954 28.3825 18.9833 28.9713 18.2281 28.9713C17.4729 28.9713 16.856 28.3776 16.856 27.6466C16.856 26.9156 17.468 26.3269 18.2281 26.3269C18.9833 26.3269 19.5954 26.9205 19.5954 27.6515Z" fill="white"/>
<path d="M24.3641 27.6616C24.3641 28.3877 23.757 28.9764 23.0117 28.9715C22.2614 28.9715 21.6543 28.3827 21.6543 27.6517C21.6543 26.9256 22.2614 26.3369 23.0117 26.3418C23.7619 26.3467 24.3641 26.9355 24.3641 27.6616Z" fill="white"/>
<path d="M81.0623 78.0372L12.1724 81.3046V39.3676L81.0623 38.7739V78.0372Z" fill="#D8DEE8"/>
<g opacity="0.5">
<path opacity="0.5" d="M49.1815 34.8538L12.1724 35.0255V37.2921L49.1815 37.0419V34.8538Z" fill="white"/>
<path opacity="0.5" d="M77.1235 34.7262V36.8554L81.0624 36.8309V34.7065L77.1235 34.7262Z" fill="white"/>
</g>
<g opacity="0.5">
<path opacity="0.5" d="M64.6171 83.0166L11.4726 85.7542C9.29588 85.867 7.36102 84.2431 7.11916 82.0354C7.11916 81.9863 6.98096 28.157 6.98096 28.157C6.98096 27.269 7.36102 26.4399 7.7855 25.7432C7.80031 25.7236 7.87435 25.704 7.88916 25.6843C8.64928 24.4774 9.9869 23.6827 11.4677 23.6925L19.523 23.7415C19.5279 23.7612 19.5427 23.7808 19.5526 23.7955C19.7007 24.2567 19.8734 24.7277 20.0511 25.2035C20.7668 27.0924 21.7195 29.0646 22.9979 31.0025C23.0768 31.1203 23.1558 31.238 23.2348 31.3557C24.1775 32.7393 25.1746 33.9265 26.221 34.9666C27.0551 35.7957 27.9189 36.5267 28.8024 37.1841C29.839 37.9544 30.9051 38.6167 31.991 39.2005C39.7995 43.4345 48.5459 43.8122 54.3357 52.4911C59.2913 59.9188 55.7424 63.9663 60.5351 75.3828C61.0534 76.624 61.6161 77.8063 62.2084 78.9347C62.7118 79.9012 63.24 80.8236 63.7879 81.7165C64.0544 82.1531 64.3357 82.5898 64.6171 83.0166Z" fill="white"/>
</g>
<path d="M39.1905 73.8179C39.1905 75.3781 37.9615 76.6978 36.4462 76.7616C34.9259 76.8254 33.687 75.6087 33.687 74.0387C33.687 72.4688 34.9259 71.1539 36.4462 71.0951C37.9615 71.0362 39.1905 72.2578 39.1905 73.8179Z" fill="white"/>
<path d="M50.2176 73.3715C50.2176 74.9169 49.0181 76.217 47.5324 76.2807C46.0418 76.3445 44.8325 75.1376 44.8325 73.5873C44.8325 72.037 46.0418 70.732 47.5324 70.678C49.0181 70.624 50.2176 71.8309 50.2176 73.3715Z" fill="white"/>
<path d="M61.0019 72.9397C61.0019 74.4655 59.8272 75.7558 58.376 75.8147C56.92 75.8785 55.7354 74.6863 55.7354 73.1507C55.7354 71.6151 56.92 70.3297 58.376 70.2757C59.8321 70.2217 61.0019 71.4139 61.0019 72.9397Z" fill="white"/>
<path d="M48.2928 83.0806C29.645 84.052 22.9668 86.8092 19.9214 82.8893C17.103 79.2637 19.4377 65.7524 22.7891 61.8962C28.0458 55.8421 36.3973 55.381 47.6313 54.8364C58.0065 54.336 64.3096 54.0318 69.2406 58.3393C73.8112 62.3378 76.7135 76.3986 73.8852 80.4559C71.2495 84.2384 65.5683 82.1779 48.2928 83.0806Z" fill="url(#paint4_linear)"/>
<path d="M41.4565 54.9439L39.2798 55.5425C38.7467 55.6896 38.5 56.3078 38.801 56.7592C40.2867 59.0159 44.2009 64.653 46.6392 65.2565C49.1516 65.8746 53.811 58.5352 55.3559 55.9693C55.6225 55.5277 55.4102 54.9586 54.9216 54.8164L53.3619 54.3503C52.0835 53.9676 50.731 53.8401 49.3835 53.9774L43.4901 54.5711C42.804 54.6348 42.1229 54.7575 41.4565 54.9439Z" fill="#4196D3"/>
<path d="M43.0708 46.5547C43.0708 46.5547 44.2603 55.0372 42.6167 55.886L47.291 60.8411L51.9899 54.7576C51.9899 54.7576 50.2179 53.4575 50.6868 46.4565L43.0708 46.5547Z" fill="#E3AC91"/>
<path d="M40.2967 34.3876C40.1288 34.6182 37.9077 45.3919 45.5484 46.4124C53.0904 47.423 53.4162 39.5635 53.3224 36.2323C53.2286 32.9011 49.7883 31.6942 47.814 31.4636C45.8298 31.233 40.8988 33.5781 40.2967 34.3876Z" fill="#F8BEA1"/>
<path d="M39.8525 40.6627C39.8525 40.6627 39.4675 38.9063 38.1546 40.0151C36.8367 41.1238 38.9295 44.0135 40.6521 43.8761L39.8525 40.6627Z" fill="#F8BEA1"/>
<path d="M53.09 39.3378C52.8728 39.485 52.2559 43.5717 52.2559 43.5717C52.2559 43.5717 53.3368 43.6845 54.1216 42.2127C54.8965 40.7458 55.2716 37.8414 53.09 39.3378Z" fill="#F8BEA1"/>
<path d="M56.0275 31.5422C55.2427 30.2372 53.2535 30.8553 52.6711 29.5896C52.1825 28.525 53.3325 27.529 52.7155 26.6116C52.1973 25.8413 50.9337 25.8561 50.7116 25.861C48.9988 25.8806 48.604 27.2347 47.3799 27.2003C45.8794 27.1611 45.8201 25.1201 43.8359 24.2469C41.901 23.3981 39.058 24.0653 37.9079 25.6353C37.0096 26.8569 37.7747 27.7596 36.5999 29.3296C35.7904 30.4138 35.0698 30.4579 34.67 31.5226C34.2899 32.5185 34.5466 33.4703 34.749 34.1718C35.2278 35.8595 36.1261 36.6003 37.4736 38.3861C38.0757 39.1858 38.905 40.3682 39.7539 41.9283C40.1093 42.8654 40.6227 44.3176 41.0916 46.1524C41.521 47.8205 41.4963 48.159 41.8961 48.6987C43.2732 50.5434 46.4075 50.3128 47.7204 50.2147C49.2209 50.1018 51.0867 49.9645 52.0245 48.6496C52.528 47.9432 52.4638 47.3103 52.5823 45.6128C52.6662 44.401 52.8389 42.7084 53.2289 40.6478C53.2387 40.6478 53.4016 39.7059 53.836 38.5382C54.3789 37.086 54.9416 36.8505 55.5537 35.3542C56.0324 34.1571 56.6642 32.6068 56.0275 31.5422ZM49.8182 42.8948C48.8902 43.1548 48.2634 42.939 47.0047 42.8801C44.4776 42.7624 43.673 43.9496 42.4736 43.4443C41.9751 43.2333 40.8152 42.6397 40.5684 41.4819C40.4252 40.7312 40.3265 39.701 40.4894 38.5088C40.6868 37.0517 40.9188 35.3689 42.0935 34.6232C43.7964 33.5439 45.9633 35.3836 47.5181 34.1816C48.1104 33.7205 48.3473 33.0238 48.4559 32.494C48.8014 32.6117 51.526 33.5929 52.523 36.4924C53.14 38.2733 52.7846 39.8727 52.4885 40.7411C51.9307 41.5898 51.0719 42.5465 49.8182 42.8948Z" fill="url(#paint5_linear)"/>
<path d="M44.586 44.7198C45.5633 45.0093 47.0292 45.1957 48.6679 44.5579C48.8358 44.4942 48.9838 44.6757 48.8407 44.7787C48.2533 45.2006 47.3994 45.652 46.4666 45.5931C45.6966 45.5441 44.9858 45.2595 44.4379 44.9553C44.2849 44.8719 44.4083 44.6708 44.586 44.7198Z" fill="#F8BEA1"/>
<path d="M38.8008 73.8031C38.8008 75.0983 37.7346 76.1924 36.4217 76.2415C35.1038 76.2905 34.0327 75.275 34.0327 73.9749C34.0327 72.6747 35.1038 71.5807 36.4217 71.5365C37.7346 71.4924 38.8008 72.5079 38.8008 73.8031Z" fill="white"/>
<path d="M49.8374 73.4056C49.8374 74.691 48.791 75.7752 47.5027 75.8243C46.2095 75.8733 45.1582 74.8676 45.1582 73.5773C45.1582 72.287 46.2095 71.2028 47.5027 71.1586C48.791 71.1145 49.8374 72.1202 49.8374 73.4056Z" fill="white"/>
<path d="M60.672 73.0082C60.672 74.2838 59.6453 75.3533 58.3768 75.4024C57.1083 75.4515 56.0718 74.4555 56.0718 73.1751C56.0718 71.8946 57.1034 70.8251 58.3768 70.7809C59.6503 70.7417 60.672 71.7376 60.672 73.0082Z" fill="white"/>
<path d="M30.1005 29.7955C31.5862 27.9459 32.4401 25.7775 32.4401 23.452C32.4401 16.7012 25.2041 11.2261 16.285 11.2261C7.36587 11.2261 0.129883 16.7012 0.129883 23.452C0.129883 30.2027 7.36587 35.6779 16.285 35.6779C19.6315 35.6779 22.7362 34.9076 25.3127 33.5928C27.0156 33.8823 29.6612 34.368 31.058 34.6231C31.4677 34.6967 31.8034 34.2993 31.6602 33.9117L30.1005 29.7955Z" fill="url(#paint6_linear)"/>
<path d="M26.999 18.9824C26.999 19.3209 26.7226 19.6006 26.377 19.6006H6.73227C6.3917 19.6006 6.11035 19.3258 6.11035 18.9824C6.11035 18.6439 6.38676 18.3643 6.73227 18.3643H26.3721C26.7176 18.3643 26.999 18.6439 26.999 18.9824Z" fill="white"/>
<path d="M26.999 22.6816C26.999 23.0202 26.7226 23.2998 26.377 23.2998H6.73227C6.3917 23.2998 6.11035 23.0251 6.11035 22.6816C6.11035 22.3431 6.38676 22.0635 6.73227 22.0635H26.3721C26.7176 22.0635 26.999 22.3431 26.999 22.6816Z" fill="white"/>
<path d="M17.6948 26.3809C17.6948 26.7194 17.4184 26.999 17.0729 26.999H6.73227C6.39169 26.999 6.11035 26.7243 6.11035 26.3809C6.11035 26.0423 6.38676 25.7627 6.73227 25.7627H17.068C17.4135 25.7627 17.6948 26.0423 17.6948 26.3809Z" fill="white"/>
<defs>
<linearGradient id="paint0_linear" x1="66.6473" y1="25.538" x2="126.518" y2="25.538" gradientUnits="userSpaceOnUse">
<stop stop-color="white"/>
<stop offset="0.9964" stop-color="#EBEFF2"/>
</linearGradient>
<linearGradient id="paint1_linear" x1="68.9285" y1="84.0273" x2="118.076" y2="84.0273" gradientUnits="userSpaceOnUse">
<stop stop-color="white"/>
<stop offset="0.9964" stop-color="#EBEFF2"/>
</linearGradient>
<linearGradient id="paint2_linear" x1="88.0581" y1="73.5762" x2="99.3821" y2="73.5762" gradientUnits="userSpaceOnUse">
<stop stop-color="#144188"/>
<stop offset="0.998" stop-color="#102465"/>
</linearGradient>
<linearGradient id="paint3_linear" x1="8.58072" y1="54.7512" x2="84.1934" y2="54.7512" gradientUnits="userSpaceOnUse">
<stop stop-color="white"/>
<stop offset="0.9964" stop-color="#EBEFF2"/>
</linearGradient>
<linearGradient id="paint4_linear" x1="19.0363" y1="55.0444" x2="55.8987" y2="100.909" gradientUnits="userSpaceOnUse">
<stop stop-color="#AAD6FF"/>
<stop offset="1" stop-color="#2E8ACB"/>
</linearGradient>
<linearGradient id="paint5_linear" x1="34.4718" y1="37.0761" x2="56.2994" y2="37.0761" gradientUnits="userSpaceOnUse">
<stop stop-color="#144188"/>
<stop offset="0.998" stop-color="#102465"/>
</linearGradient>
<linearGradient id="paint6_linear" x1="0.125663" y1="23.4505" x2="32.4444" y2="23.4505" gradientUnits="userSpaceOnUse">
<stop stop-color="#144188"/>
<stop offset="0.998" stop-color="#102465"/>
</linearGradient>
</defs>
</svg>
