<svg width="231" height="64" viewBox="0 0 231 64" fill="none" xmlns="http://www.w3.org/2000/svg">
<path fill-rule="evenodd" clip-rule="evenodd" d="M51.3501 28.1838V28.1433C51.3096 27.9404 51.3907 28.265 51.3907 28.265C51.269 28.2244 51.3907 28.1838 51.3501 28.1838ZM47.7393 20.8404C50.985 24.6947 52.9324 29.685 52.9324 35.1621C52.9324 35.2027 52.9324 35.3244 52.9324 35.5272C52.9324 35.4461 52.8918 35.3649 52.8918 35.0809C52.8918 34.4724 52.8918 34.8375 52.8918 34.3912C52.8107 33.8638 52.8107 33.8638 52.7296 33.2958C52.689 33.093 52.689 32.8495 52.6484 32.6872C52.6078 32.4032 52.5673 32.3627 52.5267 32.1192C52.4456 31.7541 52.4861 31.8758 52.405 31.673C52.3644 31.5918 52.3644 31.5918 52.3238 31.5107C52.2833 31.3484 52.2833 31.3484 52.2427 31.2672C52.3238 31.6324 52.3644 31.8352 52.4456 32.1192C52.6078 32.6061 52.5267 32.4032 52.5673 33.0118C52.6484 33.1741 52.6484 33.2147 52.689 33.4581C52.7296 33.7015 52.7296 33.8638 52.7701 34.0667C52.8107 34.3912 52.8107 34.3912 52.8513 34.7158C52.8513 34.9187 52.8513 34.9187 52.8918 35.0404C52.8918 35.2432 52.8918 36.1764 52.9324 35.8924C52.9324 36.5415 52.8513 37.1501 52.8107 37.7992C52.7701 37.9209 52.7701 38.0832 52.7296 38.2455C52.6484 38.5701 52.5267 39.1787 52.4456 39.6249C52.405 39.9495 52.2833 40.3958 52.2427 40.6798C52.1616 41.0449 51.9993 41.6941 51.837 42.0998C51.7558 42.3026 51.7558 42.3432 51.6747 42.5461C51.6341 42.7084 51.5936 42.7895 51.5124 42.9518C51.3501 43.3575 51.3501 43.3575 51.2284 43.7226C51.1067 44.0472 51.1067 44.0472 50.985 44.2501C50.9444 44.3718 50.8633 44.5746 50.8227 44.6558C50.6198 45.0615 50.7416 44.7775 50.6198 45.0209C50.4576 45.3861 50.5793 45.1832 50.2547 45.7106C50.0113 46.1975 50.1736 45.9135 49.8896 46.3598C49.6056 46.6843 49.7678 46.4815 49.5244 46.7249C49.4433 46.8872 49.4433 46.8872 49.3621 47.0089C49.1998 47.1306 49.1187 47.1712 49.1998 46.9683C49.3216 46.6438 49.3216 46.8061 49.3621 46.6032C49.3621 46.5626 49.3621 46.5626 49.3621 46.5626C49.3621 46.5221 49.3621 46.5221 49.3621 46.4815C49.4027 46.2786 49.4433 46.0758 49.4433 45.8324C49.4027 45.6701 49.6867 44.8586 49.6867 44.4529C49.6056 43.3169 49.565 43.5198 50.2547 42.1404C50.2547 41.4912 50.2547 41.4912 50.2141 40.8826C50.2141 40.7204 50.2141 40.8015 50.2547 40.6392C50.2953 39.8278 49.7273 40.1118 50.0113 39.1787C50.0924 38.9352 50.1736 38.4484 50.133 38.2049C49.9707 38.0427 49.8896 38.1238 49.6867 38.0427C49.4027 37.8804 49.5244 37.7992 49.4433 37.3935C48.7941 37.3935 48.7941 37.7992 48.429 37.9209C48.2261 37.9615 47.9827 37.8804 47.7393 37.9209C47.0496 38.1238 47.4958 39.0164 46.5627 37.5152C46.4816 37.3935 46.5221 37.4341 46.441 37.3529C46.441 37.3529 46.4004 37.3529 46.4004 37.3124C45.9136 36.5415 45.9136 36.5415 45.3861 35.7301C45.4267 35.4461 45.4673 35.4055 45.5079 35.2027C45.3861 35.1215 45.3456 35.0404 45.1427 34.9592C45.3456 34.6347 45.589 34.513 45.589 34.0261C45.5079 32.9712 45.3861 32.6467 45.6701 31.6324C45.873 30.9832 45.9541 31.673 46.0353 30.7398C46.3599 30.7804 46.3599 30.6181 46.5221 30.4152C46.9279 29.969 46.5221 29.5632 46.7656 29.1981C47.009 28.8735 47.009 29.1575 47.1713 28.9547C47.2524 28.7113 47.2524 28.7113 47.3741 28.4678C47.7393 28.7113 47.8204 28.7518 48.1044 28.549C48.3478 28.4678 48.3478 28.4678 48.5507 28.3867C48.9158 28.3461 49.8896 28.1838 50.0113 28.9547C50.0518 29.1575 50.0518 29.1981 50.0113 29.3604C49.9707 29.3604 49.9707 29.401 49.9707 29.4415C50.3764 29.969 50.417 29.8067 50.701 30.1718C50.8633 30.2935 50.8633 30.2935 50.985 30.4558C51.0256 30.4964 51.0661 30.537 51.1473 30.6181C51.1878 30.4152 51.1473 30.0907 51.2284 29.9284C51.3501 29.969 51.5124 30.2124 51.6341 30.4152C51.7153 30.4964 51.7153 30.4964 51.7964 30.5775C51.9587 30.6992 51.8776 30.5775 51.9993 30.8615C51.9993 30.821 51.9993 30.821 51.9993 30.7804C52.0398 30.6181 51.9993 30.6992 52.2427 30.821C52.2021 30.253 52.2427 30.4964 52.0804 29.6444C51.7153 29.401 51.9181 29.3198 51.7558 29.4821C51.4718 28.8735 51.3907 28.9141 51.3501 28.1838C51.2284 28.1027 51.2284 28.1027 51.1067 28.0215C51.1067 28.1838 51.1067 28.1838 51.0661 28.3461C51.1067 28.3867 51.1067 28.3867 51.1473 28.4678C51.2284 28.549 51.2284 28.549 51.269 28.5895C51.2284 28.9547 51.269 28.3461 51.2284 28.7113V28.7518C51.1878 28.9141 51.269 28.9547 51.0661 28.8735C51.0256 28.7518 51.0661 28.8735 51.0256 28.7518C50.8227 28.2244 50.8227 28.2244 50.6198 27.7375C50.3764 27.0884 50.2953 27.2913 49.6867 26.1147C49.565 26.2364 49.6056 26.277 49.7273 26.5204C50.0113 27.129 50.1736 27.2507 50.4576 27.7375C50.5387 27.8187 50.5793 27.8593 50.6604 27.981C50.6198 28.0621 50.5793 28.0215 50.4981 27.981C50.4981 28.265 50.6198 28.3461 50.4576 28.4273C50.2953 27.981 50.4981 28.3055 50.2547 27.8998C50.1736 27.7375 50.0924 27.5753 49.9301 27.413C49.4433 26.8855 49.6867 27.0884 49.3621 26.4393C49.1593 26.561 49.1593 26.561 48.997 26.6827C48.7536 26.4393 48.8753 26.4798 48.5913 26.3987C48.5101 26.6015 48.5101 26.845 48.3884 27.0478C48.3073 27.129 48.3478 27.0884 48.3073 27.129C48.1856 27.2913 48.145 27.2507 48.1856 27.5753C48.1856 27.5753 48.2667 27.6564 48.2261 27.8998C48.1044 28.1027 48.1044 28.1027 47.9827 28.3055C47.577 28.2244 47.7393 28.2244 47.3336 28.3055C47.1713 28.1027 47.2524 28.1027 47.0901 28.0215C46.9684 27.9404 46.9279 27.981 46.725 27.9404C46.5627 27.6158 46.5627 27.6158 46.4004 27.2913C46.5221 26.845 46.6033 27.2913 46.5221 26.4798C46.441 26.1553 46.3599 26.0335 46.5221 25.7901C46.9279 25.7901 47.2524 26.1147 47.6581 26.1958C47.6581 25.8307 47.6987 25.6278 47.5364 25.3033C47.293 24.7758 47.1713 25.0193 46.9684 24.6135C47.0901 24.4107 47.009 24.573 47.2118 24.4918C47.5364 24.3701 47.3336 24.3701 47.3336 24.3701C47.3336 24.3295 47.3336 24.3295 47.3336 24.3295C47.3336 24.289 47.3336 24.2484 47.3336 24.2484C47.5364 24.4107 47.6581 24.4107 47.7393 24.2484C47.861 24.005 47.6581 23.9644 48.1044 24.0861C48.0639 23.9238 48.0233 23.8427 48.0639 23.7615C48.1044 23.721 48.1044 23.721 48.145 23.721C48.2261 23.6804 48.3884 23.6804 48.5101 23.6804C48.3073 23.1124 48.2667 23.3558 48.1044 22.9096C48.145 22.8284 48.1044 22.8284 48.2667 22.9096C48.1856 22.7067 47.9827 22.4633 48.2667 22.6661C48.3073 22.9096 48.3884 22.7878 48.4696 23.153C48.5101 23.437 48.5507 23.437 48.7536 23.7615C48.9158 23.8833 49.0781 23.9238 49.1593 23.8833C49.3621 23.8833 49.3216 23.9644 49.565 24.0861C49.565 24.0455 49.5244 23.9238 49.4838 23.8021C49.4433 23.5587 49.3216 23.437 49.3621 23.3964C49.4838 23.5181 49.4838 23.5993 49.6056 23.6398C49.6056 23.6398 49.565 23.5993 49.565 23.6398C49.5244 23.5181 49.5244 23.5181 49.4433 23.437C49.4433 23.3558 49.3621 23.3153 49.3621 23.2341C49.3216 23.1124 49.4838 23.3153 49.6056 23.4775C49.2404 22.9096 49.4838 23.3558 49.0781 22.869C48.9158 22.585 48.7941 22.3821 48.6318 22.0576C48.6724 22.0981 48.6724 22.0981 48.6724 22.0576C48.6724 22.017 48.6724 22.017 48.6724 22.017C48.5101 21.8141 48.4696 21.733 48.3478 21.6113C48.4696 21.8141 48.5101 21.8547 48.5507 21.9358C48.5507 22.0576 48.3884 21.8547 48.429 21.9764C48.5913 22.3821 48.7536 22.4227 48.997 22.9907C48.9564 23.0718 48.997 23.1124 48.997 23.2747C49.0376 23.3964 48.9564 23.5587 48.9158 23.5587C48.713 23.3964 48.9158 23.5993 48.7536 23.3153C48.5101 22.9501 48.5101 22.9501 48.3073 22.5444C47.9421 22.301 48.0639 22.5444 47.7393 22.3821C47.5364 22.017 47.5364 22.017 47.3336 21.6924C46.8061 20.9216 47.4147 21.3273 47.4958 21.165C47.577 20.881 47.4553 20.7998 47.4958 20.6781C47.4958 20.597 47.6581 20.7593 47.7393 20.7998C47.7393 20.7998 47.6987 20.7593 47.7393 20.8404ZM26.6016 16.5804C27.1696 16.621 27.1696 16.5399 27.413 16.2964C27.6565 16.3776 27.697 16.4181 27.7376 16.621C27.6565 16.7021 27.5348 16.7427 27.413 16.8644C26.6828 16.7427 28.0216 16.9861 27.2102 16.7833C27.1696 16.7833 27.0885 16.7427 27.0479 16.7427C26.6828 16.7021 26.7233 16.9456 26.1959 16.9861C25.3845 17.1079 25.4656 16.8644 25.0599 16.8644C24.7353 17.0673 24.8165 17.1079 24.6136 17.3107C24.4108 17.2701 24.289 17.189 24.1268 17.0267C23.9239 17.1484 23.9239 17.1484 23.6805 17.2296V17.189C23.6399 17.1079 23.6399 17.1079 23.5993 17.0267C23.3965 16.8239 22.7879 17.0673 22.4633 16.9861C21.9359 16.905 22.2199 16.9456 21.8142 17.0267C21.8142 17.0673 21.7736 17.0673 21.7736 17.0673C21.5302 17.1079 21.5302 17.1079 21.2868 17.1484C21.2056 17.1079 21.1651 17.0267 21.0839 16.9456C20.7188 17.189 20.7999 17.2701 20.3131 17.4324C20.5159 17.2701 20.5159 17.2701 20.7188 17.1079C20.2319 17.1484 19.7856 17.6353 19.5828 17.8381C18.9336 17.8381 18.9336 17.8381 18.3656 17.8381C18.0816 17.8381 18.0411 18.0004 17.6759 18.041C17.3514 18.1221 17.4731 18.0816 17.0674 18.2844C17.0268 18.2033 17.0674 18.2033 16.9862 18.1627C16.7428 18.325 16.8645 18.2844 16.6211 18.4061C16.5805 18.3656 16.5805 18.3656 16.5399 18.325C16.2965 18.4873 16.1342 18.609 15.9719 18.7307C15.6879 18.9336 16.0531 18.6901 15.6879 18.9336C15.6474 18.9741 15.5256 19.0147 15.4445 19.0958C15.3228 19.2176 15.3228 19.2176 15.1605 19.4204C14.8359 19.6233 14.8359 19.5827 14.5925 19.8667C14.4708 20.1101 14.8765 19.8261 14.9982 19.8667C14.6331 20.2318 14.5114 20.1507 14.3491 20.2318C14.1056 20.5158 14.2274 20.3536 13.9434 20.597C13.9434 20.6781 13.9434 20.6781 13.9028 20.7998C13.9028 21.0433 14.2274 20.7187 14.5114 20.4753C14.2679 20.7998 14.1868 20.881 13.9434 21.0838H13.9028C13.4971 21.4084 13.6999 21.2867 13.2942 21.6924C13.2942 21.7736 13.2942 21.7736 13.2942 21.7736C13.2942 21.7736 13.2942 21.7736 13.2942 21.8141C13.2942 21.9358 13.2536 21.8141 13.1319 22.1387C13.2942 22.1387 13.2942 22.1387 13.4971 21.9358C13.0102 22.7473 13.2131 22.4227 13.6999 22.1793C13.5782 22.869 12.5234 23.3153 12.1988 23.8833C12.5234 24.1267 13.6999 22.5444 14.1868 22.1793C14.1056 22.3416 14.0245 22.3821 13.9434 22.585C13.9839 22.585 13.9839 22.585 14.0651 22.6256C14.1056 22.5444 14.2274 22.4633 14.2679 22.3821C14.3085 22.2604 14.3085 22.301 14.3085 22.2198C14.3491 22.0981 14.1462 22.1387 14.4708 21.6924C14.7142 21.449 14.7142 21.449 14.9576 21.2056C15.1605 20.9621 15.1605 20.9216 15.3634 20.9621C15.0794 21.2461 14.9171 21.2461 14.7954 21.6113C14.7548 21.6518 14.7548 21.6518 14.7548 21.6924C14.9576 21.733 15.0794 21.5707 15.3228 21.3678C15.6068 21.0433 15.4851 21.1244 15.7285 20.7998C15.8908 20.7998 15.9314 20.8404 16.0125 20.9216C16.0936 21.0838 16.0125 20.8404 16.0125 21.0027C16.4994 20.881 16.4182 20.7998 16.6616 21.0027C16.9862 21.0838 16.9862 21.0838 17.3108 21.165C17.5542 21.2056 17.4325 21.5301 17.8382 21.7736C17.7165 22.017 17.7165 22.0981 17.7571 22.301C17.7976 22.301 17.7976 22.301 17.7976 22.301C18.0411 22.7067 17.8788 22.9501 18.1628 23.153C17.9193 23.5587 18.0816 23.153 17.9599 23.4775C17.7976 24.0455 18.5685 23.437 17.8382 25.1815C17.3514 26.4393 17.1485 27.0884 17.7165 27.4535C17.6354 27.697 17.6354 27.697 17.5542 27.981C17.9599 28.3055 17.6759 28.1838 17.8788 28.5084C18.0411 28.7113 18.3251 28.7518 18.5279 28.8735C18.3656 29.8878 18.4468 29.7661 18.9336 30.3341C18.8525 30.6587 18.8931 30.6587 18.6902 30.821C19.0553 31.2267 19.2988 30.9832 19.4205 31.6324C19.5422 32.1598 19.5828 32.4032 20.1508 32.4844C20.1508 32.1192 19.7856 31.1861 19.6233 30.9021C19.3393 30.4558 19.0553 30.2935 19.0553 29.4821C19.3393 29.6444 19.0959 29.4821 19.2988 29.685L19.4611 29.8878C19.6639 30.253 19.5828 30.4558 19.9479 30.9427C20.1102 31.3078 20.1102 31.3078 20.3131 31.673C20.7999 32.4844 20.9216 32.241 20.9622 33.377C21.2868 33.6204 21.6113 33.8232 21.8548 33.9855C22.8691 34.7564 22.7473 34.6752 23.8428 34.7158C24.4919 34.7158 24.3296 35.0404 24.6136 35.2838C25.2222 35.7707 25.6279 34.9998 26.2365 36.5821C26.4799 37.1095 26.6016 36.9472 27.0073 37.3529C27.2913 37.4747 27.2913 37.4747 27.5348 37.5964C27.7782 37.6775 27.7376 37.6775 28.0622 37.7181C28.1839 37.4747 27.981 37.9615 28.1433 37.5558C28.265 37.2718 28.1028 37.5152 28.265 37.3529C28.7925 37.7587 28.9142 38.2455 28.8736 39.1381C28.7925 39.1787 28.6302 39.3004 28.549 39.3409C27.2913 40.7204 27.7376 40.5581 28.0216 41.2884C27.6565 41.4506 27.697 41.2478 27.6159 41.7346C27.5348 42.2621 28.0216 42.2215 28.265 42.8301C28.6708 43.6415 28.6708 43.6415 29.0765 44.4935C29.2793 44.9804 29.3199 45.0615 29.8067 45.3861C30.1719 45.6295 30.537 45.6295 30.821 45.9946C31.3485 46.6438 31.0645 47.2929 31.0239 47.7798C31.0239 48.1043 31.2267 47.7798 31.105 48.2666C30.9833 49.0781 30.5776 49.6461 30.7399 50.2952C31.0239 51.5529 30.2936 51.2689 30.6182 52.202C30.6587 52.486 30.6182 52.77 30.6993 52.9729C30.7805 53.054 30.7805 53.054 30.821 53.1352C31.105 53.5003 30.6993 53.6626 30.7399 53.9466C30.821 54.2712 30.9427 53.8655 30.821 54.2712C30.6993 54.5958 30.821 54.5958 31.105 54.8392C31.5919 55.1638 31.5919 55.1638 32.0382 55.4072C32.2005 55.1638 32.241 55.3666 32.3222 55.0826C32.3627 55.0015 32.3222 54.758 32.3222 54.6769C32.5656 54.474 32.4439 54.6769 32.6062 54.4335C33.1336 53.622 32.809 54.0683 32.4845 53.6626C32.6467 53.4598 32.6062 53.622 32.8496 53.3786C33.5799 52.77 33.093 52.8106 32.9713 52.4049C33.8233 52.4455 33.6205 52.77 33.7422 51.918C34.1479 51.8369 34.4319 51.7963 34.7565 51.6341C34.8376 51.5529 35.1216 51.4718 35.081 51.1878C35.081 51.1472 35.0405 51.0255 34.9999 50.9849C34.9187 50.9038 34.9187 50.9038 34.8782 50.8226C34.7159 50.6198 34.797 50.9849 34.7565 50.6603C35.4867 50.6198 35.8519 51.1066 36.2576 49.4838C36.3793 49.7272 36.2576 49.7678 36.501 49.7678C36.7444 49.3621 36.7444 49.3621 36.9879 48.9563C37.1907 48.6723 37.1502 48.2261 37.3124 47.9421C37.3936 47.8609 37.4747 47.7798 37.5964 47.6986C38.0022 47.2929 38.6919 47.1306 39.1382 47.0495C39.2193 46.5626 39.3816 46.3192 39.5844 45.7512C39.909 44.8992 39.7062 45.2238 39.8279 44.2906C39.8684 44.1284 40.8827 42.8301 41.0044 42.4649C41.0856 42.2215 41.0856 42.3838 41.045 42.1404C40.8827 41.4912 40.7204 41.5318 40.193 41.1261C39.5844 40.6392 38.9353 40.8826 38.6513 40.7204C38.489 40.5175 38.4079 40.2741 38.0022 40.2741C38.0022 40.2741 38.0022 40.2741 37.9616 40.2741C37.5153 40.2335 37.4342 40.3552 37.353 40.6392C37.2719 40.3552 37.2719 40.3552 37.1907 40.1118C36.6633 40.1524 36.7039 40.3146 36.3793 40.6392C36.7444 39.7061 37.353 40.0307 36.5822 38.8541C35.933 37.8804 35.6084 37.9209 34.9999 38.2049C34.8376 37.8398 34.5536 37.6369 34.229 37.3529C33.945 37.0689 34.0667 37.3529 33.8233 36.9878C33.661 36.7444 33.7827 36.9472 33.7016 36.6632C33.6205 36.4604 33.7016 36.5821 33.6205 36.4198C32.8902 36.3792 33.093 36.5415 32.6062 36.6227C31.673 36.7444 31.7136 36.0547 30.2936 35.8924C29.969 36.5415 29.8473 35.9735 29.1576 37.0689C29.0765 37.2312 29.0765 37.2312 28.9953 37.3529C28.833 37.1501 28.6708 36.9472 28.3056 36.9067C27.7376 36.7849 28.1433 37.0284 27.5348 37.0284C26.7639 36.7444 27.0479 35.4867 27.2508 34.9998C26.6828 34.513 26.6422 34.5941 25.993 34.7564C25.7902 33.9044 26.4799 33.093 26.1959 32.809C25.993 32.525 25.4656 32.6872 25.2628 32.8901C25.1816 33.0118 25.0193 33.4581 24.9382 33.6204C24.289 33.7827 24.005 33.7827 23.4776 33.5392C23.2342 32.6872 23.1531 32.0787 23.3965 31.1455C23.4776 30.7804 24.289 29.8878 24.4108 29.8878C24.4513 29.8878 24.4513 29.8878 24.4919 29.8878C24.7353 29.9284 24.4919 29.9284 24.8976 30.0907C25.0193 29.969 25.0193 29.969 25.1005 29.8472C25.141 29.8878 25.141 29.8878 25.1816 29.9284C25.1816 29.9284 25.2222 29.969 25.2222 30.0095C25.3845 30.0907 25.3845 30.0907 25.5062 30.1718C26.3176 30.3341 25.1816 29.401 27.129 29.7255C27.7782 29.8472 27.6159 30.1718 27.697 30.8615C27.7376 31.0238 28.1839 31.9164 28.4679 31.7135C28.9953 30.9832 27.6565 29.5227 28.5896 28.833C28.833 28.6301 28.833 28.6301 29.0765 28.4273C29.6039 28.0215 30.4559 27.8998 29.9285 27.0478C30.253 26.7638 30.2125 26.9261 30.3747 26.4798C30.5776 26.2364 30.5776 26.2364 30.7399 25.993C30.7399 25.993 30.7805 25.993 30.7805 25.9524C31.389 25.5467 30.9833 25.8307 31.5919 25.6278C32.1599 25.425 31.6325 25.5873 31.7542 24.9381C32.1193 24.7353 32.525 24.6541 32.809 24.4107C33.1742 24.0861 32.9713 23.9238 33.7422 23.8021C33.5799 24.3701 33.093 24.1267 33.0119 24.4918C32.8902 25.0193 32.9713 24.6541 33.093 24.8164C33.4582 24.8975 33.5799 24.573 33.8233 24.4513C34.3507 24.1267 34.3913 24.4513 34.5536 23.9238C34.4319 23.8427 33.8233 23.721 33.7016 23.6398C33.2147 23.3153 33.5799 23.3153 33.5799 23.0718C33.5799 22.4633 32.6873 23.1124 32.3627 23.153C32.6467 22.7473 32.8902 22.869 33.1742 22.5038C35.2839 22.7878 34.513 22.5444 35.3245 22.301C35.5273 22.2604 35.6084 22.301 35.933 22.2604C35.933 22.017 35.9736 21.6924 35.8113 21.4896C35.649 21.2461 35.4867 21.5707 35.2027 21.3678C35.3245 21.2056 35.3245 21.2056 35.4462 21.0433C35.1622 20.881 34.9999 20.9216 34.8376 20.7998C34.5536 20.3941 34.7159 20.2318 34.5536 19.9884C34.4725 19.7856 34.4725 19.8261 34.3913 19.7044C34.3102 19.6638 34.3102 19.6638 34.229 19.5827L34.1885 19.5421C34.1073 19.3798 34.1073 19.3798 33.9856 19.2581C33.4582 19.5016 33.8639 19.9073 32.809 19.745C32.6467 19.2581 32.7279 19.2581 32.9307 18.9336C32.4033 18.8118 32.3627 18.7307 32.1599 18.4467C31.2673 18.3656 31.2267 18.2844 31.0239 18.2844C30.4559 18.6496 30.9427 19.0147 30.6182 19.4204C30.4153 19.6638 30.3342 19.461 30.4559 19.9073C30.7805 21.165 30.1719 20.3941 30.0907 21.165C30.0502 21.4084 30.1719 21.8547 29.8879 21.9764C29.8067 22.017 29.8067 22.017 29.685 22.0576C29.6445 22.0981 29.6039 22.0981 29.6039 22.0981C29.401 22.1387 29.2793 22.2604 29.1576 21.9358C29.0765 21.6924 29.2388 21.2056 29.2793 20.9216C28.9548 20.8404 28.9548 20.8404 28.6302 20.7593C28.6302 20.7593 28.5896 20.7593 28.549 20.7187C28.3462 20.6376 28.3462 20.6376 28.1028 20.5564C27.8188 20.3941 28.0216 20.3536 27.697 20.2318C27.4536 20.1507 27.3319 20.2318 27.0073 20.1913C26.6422 19.4204 27.0479 19.9478 26.561 19.5421C26.6828 18.9336 27.1696 18.7713 27.697 18.4467C28.0622 18.2438 27.9405 18.1627 28.3056 18.041C28.7925 17.8787 28.7519 18.041 28.8736 17.5136C28.5896 17.473 28.4679 17.5136 28.4273 17.3513C29.4416 17.5541 28.9548 17.5136 29.3199 17.189C29.8879 17.189 29.3199 17.2701 29.8879 17.2701C30.5776 17.2701 30.3747 16.8644 30.4153 16.7427C30.4965 16.4587 30.9022 16.2153 29.7662 16.2559C29.685 16.5399 29.5633 16.6616 29.1982 16.905C29.1576 16.9456 29.1576 16.9456 29.0765 16.9861C29.0765 16.7427 29.117 16.5804 29.0359 16.4181C28.7113 16.4587 28.9142 16.4181 28.6708 16.621C28.6302 16.4993 28.6302 16.4993 28.549 16.4181C28.3868 16.2559 28.4679 16.4587 28.3868 16.2153C28.3462 16.0124 28.6708 16.053 28.265 15.8501C27.8593 15.6879 27.4942 16.0936 27.2508 16.337C27.0885 16.1747 27.2102 16.1747 26.8045 16.2153C26.6828 16.337 26.6422 16.3776 26.6016 16.5804ZM36.0142 13.9027C35.4867 13.7404 35.365 13.8216 35.1216 13.9027C34.8782 13.9839 34.8376 13.8621 34.5536 13.9027C34.1885 13.9027 34.5536 13.9433 34.3913 14.065C34.2696 14.1056 34.1479 14.065 33.9045 14.1056C33.7016 14.1056 33.7016 14.1461 33.4582 14.1867C33.093 14.2273 33.093 14.1461 33.0525 14.3084C33.4176 14.4301 33.5393 14.3084 34.0667 14.3896C33.945 14.5113 34.0667 14.4707 33.7827 14.4707C33.5799 14.5113 33.661 14.4301 33.4176 14.5113C34.1073 15.201 35.8113 14.3084 36.3793 16.0936C36.4199 16.0936 36.5822 16.0936 36.6227 16.0936C36.6633 16.0936 36.7039 16.0936 36.7039 16.1341C36.785 16.0936 36.7444 16.0936 36.8662 16.1747C36.8662 16.4181 36.9067 16.1747 36.7444 16.2559C36.7444 16.2964 36.7444 16.2964 36.7444 16.2964C36.6633 16.2964 36.6633 16.2964 36.6227 16.337C36.2982 16.5804 36.6633 16.0936 36.5416 16.4181C36.6633 16.4587 36.6633 16.4587 36.785 16.4993C36.9473 16.5399 36.9473 16.5399 37.1096 16.5804C37.1502 16.8239 37.0284 16.905 36.8662 16.905C36.6227 16.9456 36.2576 16.8239 36.9879 18.0004C37.0284 18.0816 37.0284 18.0816 37.069 18.2033C37.8399 19.5827 37.5559 18.8524 38.2456 19.3798C38.4484 19.5421 38.205 19.3798 38.489 19.5827C39.1382 19.5827 38.9353 19.3798 39.057 18.9336C39.1787 18.4061 39.3816 18.9336 39.3004 18.1221C40.1524 18.0004 40.5987 18.4061 40.7204 17.8787C40.7204 17.7976 40.7204 17.757 40.761 17.6758C41.5724 17.8381 41.4102 18.0816 41.9781 17.8381C42.6273 17.6353 42.181 17.757 42.3027 17.5541C42.3027 17.5541 42.7084 17.5136 42.181 17.1484C41.8159 16.905 41.9376 17.1079 41.7347 16.8644C42.0187 16.8239 41.8564 16.9861 42.2216 16.9861C42.3027 16.9456 42.3027 16.9456 42.3433 16.9456C42.3839 16.9456 42.3839 16.9456 42.3839 16.9456C42.4244 16.905 42.4244 16.905 42.465 16.905C42.5867 16.905 42.5461 16.9456 42.5867 16.8239C42.3027 16.5804 42.9519 17.1079 42.3433 16.6616C42.2216 16.5804 42.2216 16.6616 42.1404 16.4993C42.0593 16.2964 42.5461 16.7021 42.2216 16.337C41.8564 16.1341 41.9781 16.2559 41.6536 16.053C41.4913 15.9313 41.7753 15.9719 41.897 16.0124C41.7347 15.8907 41.7347 15.8907 41.5724 15.8096C41.9376 15.9719 42.3839 16.1747 42.3839 16.1747C41.8159 15.8096 41.045 15.5256 41.045 15.5256C41.0044 15.4444 41.1667 15.5661 41.0856 15.4444C40.7204 15.2821 40.8827 15.3633 40.6393 15.2821C40.5582 15.2416 40.5582 15.2416 40.477 15.201C40.477 15.1604 40.477 15.1604 40.4364 15.1604C40.0713 14.9981 39.8279 14.9576 39.5844 14.8359C39.8684 14.8764 40.6393 15.2416 40.8827 15.3227C40.761 15.2416 40.9233 15.3227 40.5987 15.1604C39.9496 14.8764 39.8684 14.917 39.4627 14.7141C39.625 14.7547 39.7467 14.8359 39.909 14.8359C39.625 14.7141 39.2599 14.5924 38.9353 14.4707C38.4484 14.3084 38.5702 14.3896 38.3673 14.3896C38.0022 14.2679 38.1239 14.2679 37.6776 14.1461C37.7182 14.2273 37.7182 14.2273 37.7993 14.3084C37.637 14.2679 37.8399 14.3084 37.6776 14.2679C37.353 14.1461 37.4342 14.1867 37.069 14.065C36.9879 14.1056 37.1502 14.1867 36.9473 14.1867C36.5416 14.0244 36.9879 14.1056 36.5822 13.9839C36.217 13.8621 36.4199 13.9839 36.3793 14.0244C36.2576 13.9433 36.1359 13.9027 36.0142 13.9027ZM30.9022 15.4444V15.3633C30.9833 15.3227 31.1456 15.4444 30.9427 15.485C30.7805 15.5256 30.9022 15.485 30.9022 15.4444ZM29.9285 15.485C29.8067 15.3633 29.8879 15.5256 29.8879 15.3633C29.8879 15.201 30.0096 15.2821 29.969 15.1199C29.401 14.9981 29.0359 15.3633 29.117 15.769C29.2388 15.8501 29.3199 15.8096 29.3605 15.8907C29.4822 16.0124 29.401 16.053 29.4416 16.1341C30.0907 16.0936 30.0096 15.9719 30.4965 16.0936C31.0645 16.2964 30.7805 16.1341 31.3079 16.053C31.8353 16.4587 31.5513 16.2964 31.6325 16.4587C31.7542 16.621 31.7947 16.4993 32.2816 16.5804C32.5656 17.189 32.2816 17.2701 31.389 17.3918C30.9833 17.4324 30.7399 17.6758 31.105 17.8787C31.389 18.041 31.5919 17.7976 32.1193 17.8381C32.4033 18.041 33.1336 18.7307 33.6205 18.5684C33.4987 18.2033 33.3365 18.2844 33.2959 18.041C33.7016 18.2033 33.4582 18.2438 33.945 18.4061C34.4319 17.6353 33.5799 17.5541 33.4176 17.473C33.4176 17.3107 33.4582 17.2701 33.4987 17.189C33.9856 17.2296 33.9045 17.5541 34.4725 17.7164C34.8376 17.4324 34.9999 17.1484 34.4319 16.9456C33.8233 16.7427 34.0262 17.0267 33.5393 16.5399C33.6205 16.337 33.8639 16.3776 33.661 16.1341C33.377 15.8096 32.6062 15.9719 32.2005 15.485C32.1599 15.4444 32.1193 15.2416 31.4702 15.2821C31.105 15.3227 31.2267 15.3227 31.1456 15.4039C30.9833 15.2821 31.105 15.201 30.9833 15.0793C30.0907 14.9576 30.253 15.201 30.0096 15.4444C29.969 15.4444 29.969 15.4444 29.9285 15.485ZM32.809 13.4564C32.809 13.4564 32.6467 13.4159 32.6062 13.3753C32.525 13.3753 32.525 13.3753 32.4439 13.3753C32.0787 13.3753 32.1193 13.3753 31.7136 13.3347C31.389 13.5781 31.1862 13.4159 30.9833 13.3753C30.6587 13.3753 30.7805 13.4159 30.537 13.4564C30.2936 13.497 30.3342 13.4564 30.0907 13.497C30.253 13.6187 30.3342 13.7404 30.9022 13.7404C31.105 13.7404 31.7947 13.6593 31.9976 13.6593C31.957 13.781 31.8353 13.7404 31.4702 13.7404C30.7399 13.8216 31.389 13.8216 31.3079 13.9027C30.9427 13.8621 30.9427 13.8216 30.6587 13.781C30.6182 13.9433 30.7399 13.9839 30.821 14.065C30.4965 14.1461 30.537 14.1461 30.2936 14.2679C29.7662 14.4707 29.969 14.3084 29.6445 14.349C29.7256 14.633 30.0502 14.633 30.6993 14.633C31.4702 14.633 31.6325 14.633 31.957 14.4301C31.8759 14.3084 31.8759 14.3896 31.7136 14.2273C32.4033 14.2273 32.525 14.065 32.8902 13.9027C33.3365 13.9433 33.4176 14.0244 33.8233 13.9433C34.229 13.8621 34.1479 13.8621 33.9856 13.6593C34.4725 13.6999 34.797 13.781 35.0405 13.7404C34.797 13.5376 34.513 13.5781 33.9045 13.497C33.0119 13.3753 33.2553 13.3753 32.809 13.4564ZM23.8833 15.8907L23.8428 15.9313C23.8833 15.8907 23.8833 15.8907 23.8833 15.8907ZM24.0862 15.8501C23.6805 15.4039 23.5588 15.769 23.1125 15.5661C22.9096 15.6067 22.9096 15.6067 22.7473 15.6879C22.7068 15.6879 22.7068 15.6879 22.7068 15.6879C22.5851 15.7284 22.5851 15.7284 22.4633 15.8096C22.3822 15.8501 22.4228 15.8501 22.3416 15.8907C22.2199 16.053 22.2199 16.0936 22.0576 16.2153C21.8953 16.337 21.9359 16.2559 21.7331 16.4587C22.2199 16.905 22.4228 16.337 23.8428 15.9313C23.7616 15.9719 23.7616 16.0124 23.6805 16.0936C23.2748 16.337 23.2748 16.0936 23.0313 16.4181C23.3153 16.4993 23.4371 16.3776 23.8428 16.3776C23.5993 16.4993 23.3559 16.5399 23.0719 16.621C23.1125 16.7833 23.3965 16.8239 23.6399 16.8644C24.005 16.905 25.3439 16.7427 25.7902 16.621C26.2365 16.5399 26.1553 16.4993 26.0336 16.2964C26.4393 16.0936 26.2365 16.337 26.3582 16.0936C25.0193 15.8907 26.6828 15.4039 25.3845 15.5661C25.3033 15.7284 25.3845 15.7284 25.2222 15.8501C25.1005 15.769 25.1005 15.769 24.9788 15.6879C24.6948 15.7284 24.857 15.6879 24.6542 15.8501C24.6136 15.7284 24.6542 15.8096 24.6136 15.7284C24.3296 15.8096 24.3296 15.8096 24.0862 15.8501ZM31.2673 14.9981C31.389 14.8359 31.3485 14.8764 31.3079 14.7141C30.8616 14.6736 30.537 14.7141 30.0502 14.6736C29.401 14.633 29.6445 14.5924 29.4416 14.3896C28.3056 14.349 28.6302 14.7141 29.2388 14.917C29.6039 15.0387 29.8067 14.9981 30.2125 14.917C30.9427 14.8764 30.9022 15.0387 31.2673 14.9981ZM30.0907 14.1461C30.4965 13.7404 29.9285 13.5781 29.3199 13.5781C29.1982 13.6593 29.117 13.6593 28.9953 13.7404C28.6708 13.9433 28.9548 13.8216 29.1982 14.0244C29.2388 14.065 29.1576 14.2273 30.0907 14.1461ZM24.4108 15.201C24.3702 15.3227 24.3702 15.3227 24.3296 15.4039C24.7353 15.4444 24.9382 15.4039 25.3845 15.2416C26.1148 15.0387 25.8713 15.1199 26.4799 15.1199C26.4799 14.7953 26.1959 14.917 25.9119 14.8359C25.7496 14.7547 25.993 14.7141 25.6685 14.7547C25.3033 14.7547 25.5873 14.7953 25.141 14.9981C24.6948 15.201 24.7759 15.0793 24.4108 15.201ZM36.4604 23.9644C36.6633 23.721 36.5822 23.6804 36.4199 22.9907C36.0953 22.7473 36.0953 22.9501 35.8519 22.585C35.7707 22.4227 35.8519 22.5038 35.7302 22.3821C35.4867 22.4633 35.4056 22.6256 35.1622 22.7878C34.8376 23.0718 34.8782 23.0313 34.8782 23.5587C35.2433 23.5181 35.2433 23.5181 35.6084 23.4775C35.7302 23.6804 35.7302 23.6804 35.8519 23.8833C36.1764 23.8021 35.933 23.9644 36.0953 23.6804C36.2576 24.005 36.1359 23.8427 36.4604 23.9644ZM29.0359 33.4987C29.0359 33.4987 29.685 33.7827 30.0502 33.2552C29.8879 32.8495 29.8473 32.9307 29.3199 32.7278C28.5896 32.4438 27.8188 31.7541 26.9262 32.4438C27.0885 32.7278 26.8856 32.5655 27.2102 32.5655C27.2102 32.5655 28.265 32.3221 28.7925 32.9307C28.9548 33.1335 28.833 32.9712 28.9548 33.2552C28.9953 33.377 28.9953 33.377 29.0359 33.4987ZM27.4942 15.1604C27.1696 15.1199 27.129 15.1604 26.8856 15.2821C26.8856 15.4039 26.8856 15.4039 26.8856 15.5661C26.6828 15.5256 26.6828 15.5256 26.4799 15.485C26.4393 15.7284 26.3582 15.6067 26.8045 15.769C27.3319 16.0124 27.5753 15.8096 27.5753 15.5256C27.5753 15.5256 27.5348 15.3633 27.5348 15.3227C27.4942 15.2416 27.4942 15.2416 27.4942 15.1604ZM23.1531 15.2821C23.1936 15.3227 23.1125 15.3227 23.2748 15.3633C23.3559 15.3633 23.3965 15.3633 23.5182 15.3227C23.8833 15.2821 23.8428 15.201 24.005 15.1199C24.3296 14.917 24.8165 14.9576 24.573 14.7141C24.3296 14.7953 24.1268 14.8764 23.8833 14.9576C23.4371 15.1199 23.3559 15.0793 23.1531 15.2821ZM27.0073 14.9981C27.413 14.9576 27.413 14.9576 27.8188 14.917C27.9405 14.5113 27.6159 14.5519 27.0885 14.7141C27.0073 14.6736 27.0479 14.633 26.845 14.633C26.6828 14.633 26.9262 14.633 26.6828 14.633C26.6422 14.8764 26.7639 14.917 27.0073 14.9981ZM31.3079 33.377C30.9833 33.1335 30.9427 33.093 30.4965 33.1741C30.3747 33.4175 30.3747 33.377 30.4559 33.7015C30.0096 33.661 30.0907 33.5392 29.8473 33.7827C30.1313 34.1478 30.2125 34.0261 30.7805 34.0261C31.4702 33.9855 32.2816 34.1072 31.3079 33.377ZM27.9405 15.6473C28.1028 15.6473 28.8736 15.3633 29.0765 15.1604C28.6708 15.0387 28.4679 15.0793 28.0216 15.1604C28.0216 15.2416 27.9405 15.3227 27.8999 15.4039C27.8999 15.4444 27.8999 15.5256 27.8999 15.5256C27.8999 15.6473 27.8593 15.6067 27.9405 15.6473ZM26.7639 14.1461C26.6828 14.349 26.7233 14.2679 27.1696 14.3896C27.3725 14.4301 27.0885 14.3896 27.3319 14.4301C28.2245 14.4707 27.6159 13.9027 26.7639 14.1461ZM29.1982 18.2438C29.401 18.2033 29.9285 17.9193 30.0096 17.757C29.7662 17.473 29.4822 17.5136 28.9953 17.5947C28.8736 17.9193 28.833 18.041 29.1982 18.2438ZM32.2005 55.4478C32.4439 55.5289 32.4439 55.4883 32.7279 55.5695C32.9713 55.4883 32.9713 55.4883 33.2553 55.4072C33.0525 55.2855 32.2816 54.9203 32.2005 55.4478ZM34.0262 54.9609C34.229 54.9203 34.7159 54.8392 34.9593 54.7175C34.8782 54.6363 34.7159 54.5958 34.5942 54.5552C34.4725 54.6769 34.5536 54.5958 34.3102 54.6769C34.229 54.6769 34.1479 54.6769 34.0667 54.7175C34.0262 54.8392 34.0262 54.8392 34.0262 54.9609ZM28.1433 14.1461C28.1839 14.2273 28.1839 14.2273 28.2245 14.349C28.4273 14.349 28.4273 14.349 28.6302 14.3084C28.9142 13.9839 28.3868 13.9839 28.1433 14.1461ZM25.2222 14.5113C25.5062 14.4707 25.8308 14.4301 26.0336 14.3084C25.9525 14.2679 25.9525 14.2273 25.6279 14.2679C25.3439 14.349 25.2628 14.3896 25.2222 14.5113ZM25.1005 14.7953C25.8713 14.5924 25.7496 14.633 25.8713 14.5113C25.7496 14.4707 26.0742 14.4301 25.3033 14.5519C25.2222 14.633 25.141 14.7141 25.1005 14.7953ZM36.2576 16.6616C36.2982 16.6616 36.2576 16.7427 36.6227 16.7427C36.7444 16.7427 36.8256 16.7427 36.8256 16.7427C36.8662 16.7427 36.8662 16.7427 36.8256 16.7021C36.8256 16.7021 36.8256 16.7021 36.8256 16.6616C36.8662 16.6616 36.8662 16.6616 36.8662 16.6616C36.8256 16.6616 36.8256 16.6616 36.8256 16.621C36.6227 16.4587 36.3387 16.337 36.2576 16.6616ZM28.0216 14.9576C28.3868 14.9981 28.549 14.9981 28.6302 14.7953C28.3056 14.7141 28.1028 14.7547 28.0216 14.9576ZM29.4416 33.9044C29.2388 33.661 29.1576 33.6204 28.6708 33.7421C28.7519 33.9044 28.549 34.1072 29.0359 34.1478C29.3605 34.1884 29.3199 34.0667 29.4416 33.9044ZM31.2267 17.0673C31.389 17.0673 31.5513 17.0673 31.6325 16.9861C31.7947 16.7833 31.5919 16.7833 31.5919 16.7427C31.4702 16.7427 31.4702 16.7427 31.3485 16.7427C31.2267 16.8239 31.3079 16.7427 31.2267 16.905V17.0673ZM41.5319 17.189C41.5319 17.189 41.4507 16.905 42.0593 17.3513C42.1404 17.3918 42.1404 17.3918 42.181 17.473C42.2216 17.473 42.2216 17.473 42.2216 17.5136C42.0593 17.473 41.8564 17.3918 41.6941 17.3107C41.4913 17.189 41.6536 17.3107 41.5319 17.189ZM46.6439 22.2604C46.6844 22.1793 46.725 22.1793 46.725 22.0576C46.4004 21.7736 47.009 22.301 46.6033 21.9764C46.1976 21.6518 46.5221 21.8547 46.2381 21.6113C46.0353 21.6518 46.1164 21.5301 46.1164 21.8141C45.9136 21.6924 46.1164 21.8141 45.9541 21.6518C45.873 21.5707 45.9541 21.6518 45.8324 21.5301C45.8324 21.6924 45.8324 21.6924 45.8324 21.7736C45.9947 21.8547 45.9947 21.8141 46.157 21.9764C46.2381 22.1387 46.157 22.1793 46.1976 22.301C46.1976 22.301 46.3193 22.4633 46.3599 22.5038C46.725 22.9501 46.5627 22.6661 46.8467 23.0313C46.7656 23.153 46.8467 23.1124 46.6033 23.0718C46.6844 23.3153 46.6844 23.2747 46.725 23.437C46.7656 23.6398 46.6844 23.437 46.8061 23.6398C46.9279 23.9238 46.725 23.6804 46.725 24.1267C46.9684 24.1267 46.9684 24.0455 47.2118 24.0861C47.4958 24.1267 47.4147 24.0455 47.6581 24.0861C47.577 23.8833 47.577 23.9644 47.6176 23.8833C47.6176 23.8833 47.861 23.9238 47.5364 23.5181C47.293 23.1124 47.293 23.1124 47.009 22.7067C46.8467 22.3821 46.9279 22.4633 46.6439 22.2604ZM44.0473 19.5421C44.2096 19.5016 44.169 19.2581 43.9661 18.9741C43.601 18.7713 43.6416 18.9741 43.1547 18.7307C42.9924 18.6496 43.1141 18.6901 42.9519 18.6496C42.5461 18.5684 42.9113 18.6901 42.5056 18.4873C42.3839 18.5278 42.3433 18.5684 42.3433 18.7713C42.5867 18.8524 42.5867 18.8524 42.7896 18.9336C42.7896 19.0958 42.7896 19.0958 42.7896 19.2581C42.9924 19.2987 43.033 19.2581 43.2359 19.3798C43.3981 19.5016 43.3981 19.5016 43.5199 19.5827L43.5604 19.6233C43.885 19.3798 43.8039 19.6233 44.0473 19.5421ZM45.7919 23.4775C46.0759 23.4775 45.9541 23.437 46.1976 23.3964C46.441 23.3964 46.441 23.5181 46.4816 23.3153C46.4004 22.9096 46.4004 22.9096 46.3193 22.5444C45.9541 22.3821 46.0353 22.4633 45.589 22.6256C45.6296 23.0718 45.6701 22.7878 45.7107 22.9907C45.7513 23.2341 45.7513 23.2341 45.7919 23.4775ZM44.2501 18.3656C44.453 18.4467 44.5341 18.4873 44.453 18.3656C44.453 18.2438 44.3313 18.2033 44.2096 18.1221C44.2096 18.2438 44.2096 18.2438 44.2501 18.3656ZM49.5244 27.8998C49.6056 27.8998 49.6461 27.8998 49.6056 27.6564C49.565 27.3318 49.565 27.413 49.4027 27.3724C49.4433 27.6158 49.4433 27.6158 49.5244 27.8998ZM28.1433 13.8216C28.1028 13.9027 28.1028 13.9027 28.0622 13.9839C28.4273 13.9839 28.4273 13.9839 28.5085 13.8621C28.3462 13.781 28.4273 13.781 28.1433 13.8216ZM51.3096 27.981C51.2284 27.7375 51.1473 27.2507 51.1878 27.2101C51.1878 27.129 51.2284 27.413 51.1878 27.0884C51.1878 26.9667 51.1473 26.845 51.1473 26.7638C51.2284 26.8855 51.1067 26.6827 51.269 27.0073C51.3096 27.0884 51.3096 27.0884 51.3501 27.2101C51.3501 27.3318 51.3096 27.3724 51.4313 27.4941C51.5124 27.6158 51.5124 27.5753 51.553 27.5347C51.5124 27.4941 51.5124 27.4941 51.5124 27.4941C51.5124 27.4535 51.5124 27.4535 51.4718 27.413C51.4718 27.3724 51.4718 27.3724 51.4718 27.3724C51.4313 27.2913 51.4313 27.2913 51.3907 27.2101C51.3907 27.0884 51.3907 27.0884 51.4718 27.129C51.553 27.4535 51.4313 27.129 51.5124 27.4941C51.5936 27.6564 51.5936 27.6564 51.6747 27.7781C51.7153 27.9404 51.7153 27.9404 51.7558 28.0621C51.8776 28.3461 51.8776 28.265 51.9993 28.7113C51.9587 28.7924 51.7153 28.1433 51.6747 28.1027C51.5936 28.0621 51.4718 28.1027 51.3096 27.981Z" fill="#666666"/>
<path fill-rule="evenodd" clip-rule="evenodd" d="M5.54504 13.9435C5.78847 13.5378 6.07247 13.1321 6.35647 12.7669C16.905 -1.31131 36.9067 -4.19188 50.9849 6.35667C65.0632 16.9458 67.9438 36.9069 57.3546 50.9851C50.9849 59.5051 41.1667 63.9274 31.2673 63.7651C40.2741 63.5622 49.1187 59.3834 54.9609 51.5937C65.0226 38.1646 62.3043 19.0961 48.8752 9.03438C36.0141 -0.6216 15.8502 1.40697 5.54504 13.9435Z" fill="#00A4EF"/>
<path fill-rule="evenodd" clip-rule="evenodd" d="M26.6827 62.1424C13.781 62.2236 2.70506 53.0139 0.43307 40.3962C-1.35207 30.6591 2.42107 20.3134 11.0222 14.1466C17.2702 9.64314 24.8164 8.26372 31.7947 9.68372C23.6804 9.278 14.9576 11.3877 8.75019 18.4471C3.63821 24.2488 1.5285 31.9574 2.78621 39.3819C4.7742 51.0259 15.1605 60.4384 26.6827 62.1424Z" fill="#FFB900"/>
<path fill-rule="evenodd" clip-rule="evenodd" d="M51.3908 27.981C51.3502 27.7781 51.4314 28.1027 51.4314 28.1027C51.3097 28.0621 51.3908 28.0215 51.3908 27.981ZM47.8205 20.7187C51.0257 24.573 52.9325 29.4821 52.9325 34.8781C52.9325 34.9592 52.9325 35.0404 52.9325 35.2432C52.9325 35.1621 52.8919 35.0809 52.8919 34.7969C52.8919 34.229 52.8919 34.5535 52.8919 34.1072C52.8108 33.5798 52.8108 33.5798 52.7297 33.0524C52.7297 32.8495 52.6891 32.6061 52.6485 32.4438C52.6079 32.1598 52.5674 32.1192 52.5268 31.9164C52.4457 31.5512 52.4862 31.6324 52.4051 31.4295C52.3645 31.3484 52.3645 31.3484 52.3239 31.2672C52.2834 31.105 52.3239 31.1455 52.2428 31.0238C52.3239 31.389 52.3645 31.6324 52.4457 31.8758C52.6079 32.3627 52.5268 32.1598 52.6079 32.7684C52.6485 32.9307 52.6485 32.9712 52.6891 33.2147C52.7297 33.4581 52.7297 33.6204 52.7702 33.8232C52.8108 34.1072 52.8108 34.1072 52.8514 34.4318C52.8514 34.6347 52.8514 34.6347 52.8919 34.7969C52.8919 34.9592 52.8919 35.8924 52.9325 35.6084C52.9325 36.2575 52.8514 36.8661 52.8108 37.4747C52.7702 37.6369 52.7702 37.7587 52.7297 37.9615C52.6485 38.2455 52.5268 38.8541 52.4457 39.3004C52.4051 39.6249 52.3239 40.0712 52.2428 40.3146C52.1617 40.6798 51.9994 41.3695 51.8777 41.7346C51.7965 41.9375 51.7559 41.9781 51.6748 42.1809C51.6342 42.3432 51.5937 42.4244 51.5125 42.5866C51.3908 42.9924 51.3908 42.9924 51.2691 43.3169C51.1068 43.6821 51.1068 43.6415 51.0257 43.8849C50.9445 44.0066 50.8634 44.1689 50.8228 44.2906C50.6605 44.6964 50.7822 44.4124 50.6605 44.6558C50.4982 44.9804 50.6199 44.7775 50.2954 45.3049C50.0114 45.7918 50.2142 45.5078 49.9302 45.9135C49.6462 46.2786 49.8085 46.0758 49.5651 46.3192C49.4839 46.4815 49.4839 46.4409 49.4028 46.6032C49.2405 46.7249 49.1594 46.7655 49.2405 46.5221C49.3622 46.2381 49.3622 46.4003 49.4028 46.1569C49.4028 46.1163 49.4028 46.1163 49.4028 46.0758C49.4434 45.8729 49.4839 45.6701 49.4839 45.4266C49.4434 45.2644 49.7274 44.4935 49.7274 44.0878C49.6462 42.9518 49.6057 43.1141 50.2954 41.7752C50.2954 41.1666 50.2954 41.1666 50.2548 40.5581C50.2548 40.3552 50.2548 40.4769 50.2548 40.3146C50.3359 39.5032 49.7679 39.7872 50.0519 38.8541C50.1331 38.6512 50.2142 38.1644 50.1737 37.8804C50.0114 37.7587 49.9302 37.7992 49.7274 37.7181C49.4839 37.5964 49.5651 37.4747 49.4839 37.1095C48.8348 37.1095 48.8348 37.5152 48.4697 37.5964C48.3074 37.6369 48.064 37.5558 47.8205 37.6369C47.1308 37.7992 47.5771 38.6918 46.644 37.1907C46.5628 37.1095 46.6034 37.1501 46.5222 37.0689L46.4817 37.0284C45.9948 36.2575 45.9948 36.2575 45.4674 35.4461C45.5485 35.1621 45.5485 35.1621 45.6297 34.9187C45.508 34.8375 45.4268 34.7969 45.2645 34.7158C45.4674 34.3912 45.7108 34.2695 45.6702 33.7827C45.6297 32.7278 45.4674 32.4032 45.7514 31.4295C45.9542 30.7804 46.0354 31.4701 46.1165 30.537C46.4411 30.5775 46.4411 30.4152 46.6034 30.2124C47.0091 29.7661 46.6034 29.3604 46.8468 29.0358C47.0497 28.7113 47.0902 28.9547 47.212 28.7518C47.3337 28.5084 47.3337 28.5084 47.4148 28.265C47.8205 28.5084 47.9017 28.5895 48.1451 28.3867C48.3885 28.3055 48.3885 28.3055 48.632 28.1838C48.9971 28.1433 49.9302 27.981 50.0519 28.7518C50.0925 28.9547 50.0925 29.0358 50.0114 29.1575C50.0114 29.1981 50.0114 29.1981 50.0114 29.2387C50.4171 29.7255 50.4577 29.6038 50.7417 29.969C50.8634 30.0907 50.8634 30.0907 50.9851 30.2124C51.0662 30.2935 51.1068 30.3341 51.1474 30.3747C51.2285 30.2124 51.1879 29.8878 51.2691 29.7255C51.3908 29.7661 51.5531 30.0095 51.6342 30.1718C51.7559 30.2935 51.7559 30.2935 51.8371 30.3747C51.9588 30.4558 51.8777 30.3747 51.9994 30.6587C51.9994 30.6181 51.9994 30.6181 51.9994 30.537C52.0399 30.3747 52.0399 30.4964 52.2428 30.6181C52.2022 30.0501 52.2834 30.2935 52.1211 29.4415C51.7154 29.1981 51.9182 29.117 51.7559 29.2792C51.4719 28.7113 51.4314 28.7113 51.3502 28.0215C51.2691 27.9404 51.2691 27.9404 51.1474 27.8187C51.1068 27.981 51.1068 27.981 51.1068 28.1433C51.1474 28.1838 51.1068 28.1838 51.1879 28.265C51.2285 28.3867 51.2285 28.3461 51.2691 28.3867C51.2691 28.7518 51.3097 28.1838 51.2691 28.5084V28.549C51.2285 28.7518 51.2691 28.7518 51.1068 28.6707C51.0662 28.549 51.1068 28.6707 51.0662 28.549C50.8634 28.0621 50.8634 28.0621 50.6605 27.5753C50.4171 26.9261 50.3359 27.129 49.7274 25.9524C49.6057 26.0741 49.6462 26.1147 49.7679 26.3581C50.0519 26.9667 50.2142 27.0884 50.4982 27.5347C50.5794 27.6564 50.6199 27.697 50.7011 27.8187C50.6605 27.8593 50.6199 27.8187 50.4982 27.8187C50.5388 28.0621 50.6605 28.1838 50.4577 28.265C50.3359 27.8187 50.4982 28.1027 50.2954 27.697C50.2142 27.5753 50.0925 27.413 49.9708 27.2507C49.4839 26.7233 49.7274 26.9261 49.4028 26.277C49.2405 26.3987 49.2405 26.3987 49.0377 26.5204C48.7942 26.277 48.916 26.3175 48.632 26.2364C48.5508 26.4393 48.5508 26.6827 48.4291 26.8855C48.3885 26.9667 48.3885 26.9261 48.3479 26.9667C48.2668 27.129 48.2262 27.0884 48.2668 27.413C48.2668 27.413 48.3074 27.4941 48.2668 27.697C48.1857 27.8998 48.1857 27.8998 48.064 28.1027C47.6177 28.0215 47.78 28.0215 47.4148 28.1027C47.212 27.9404 47.2931 27.8998 47.1714 27.8187C47.0497 27.7781 47.0091 27.8187 46.8062 27.7375C46.644 27.4535 46.644 27.4535 46.4817 27.129C46.6034 26.6827 46.6845 27.129 46.6034 26.3175C46.5222 25.993 46.4411 25.8713 46.6034 25.6684C47.0091 25.6684 47.3337 25.9524 47.7394 26.0335C47.7394 25.709 47.78 25.5061 47.6177 25.141C47.3742 24.6541 47.2525 24.8975 47.0497 24.4918C47.1308 24.289 47.0902 24.4513 47.2525 24.3701C47.5771 24.2484 47.3742 24.2484 47.4148 24.2078V24.1673V24.1267C47.6177 24.289 47.6988 24.2484 47.78 24.1267C47.9422 23.8833 47.7394 23.8427 48.1451 23.9644C48.1045 23.8021 48.064 23.6804 48.1045 23.5993C48.1451 23.5993 48.1451 23.5993 48.1857 23.5587C48.3074 23.5181 48.4291 23.5587 48.5508 23.5587C48.3479 22.9907 48.3074 23.2341 48.1451 22.7878C48.2262 22.7067 48.1451 22.7067 48.3479 22.7878C48.2262 22.585 48.064 22.3416 48.3479 22.5444C48.3479 22.7878 48.4697 22.6661 48.5508 23.0313C48.5914 23.3153 48.5914 23.3153 48.7942 23.6398C48.9565 23.721 49.1188 23.8021 49.1999 23.7615C49.4028 23.721 49.3622 23.8427 49.6057 23.9644C49.6057 23.9238 49.5651 23.8021 49.5245 23.6398C49.4839 23.437 49.4028 23.2747 49.4028 23.2341C49.5245 23.3964 49.5245 23.4775 49.6462 23.5181C49.6462 23.5181 49.6057 23.4775 49.6057 23.5181C49.5651 23.3964 49.5651 23.3964 49.4839 23.3153C49.4839 23.2341 49.4028 23.1935 49.4028 23.1124C49.3622 22.9907 49.5245 23.1935 49.6462 23.3558C49.2811 22.7878 49.5651 23.2341 49.1594 22.7473C48.9565 22.4633 48.8348 22.2604 48.6725 21.9358C48.7131 21.9764 48.7537 22.017 48.7131 21.9358C48.7131 21.8953 48.7537 21.9358 48.7131 21.8953C48.5914 21.6924 48.5102 21.6113 48.4291 21.5301C48.5102 21.6924 48.5914 21.7736 48.5914 21.8547C48.5914 21.9358 48.4697 21.733 48.5102 21.8953C48.632 22.2604 48.7942 22.301 49.0782 22.869C48.9971 22.9501 49.0377 22.9907 49.0377 23.153C49.0782 23.2747 48.9971 23.3964 48.9971 23.437C48.7942 23.2747 48.9565 23.4775 48.7942 23.1935C48.5914 22.8284 48.5914 22.8284 48.3479 22.4227C48.0234 22.2198 48.1045 22.4227 47.8205 22.301C47.6177 21.9358 47.6177 21.9358 47.4148 21.5707C46.8874 20.8404 47.496 21.2461 47.5365 21.0838C47.6582 20.7998 47.5365 20.6781 47.5771 20.5564C47.5771 20.4753 47.7394 20.6781 47.8205 20.7187C47.8205 20.7187 47.78 20.6781 47.8205 20.7187ZM26.9263 16.5399C27.4943 16.5804 27.4943 16.4993 27.7377 16.2559C27.9811 16.337 28.0217 16.3776 28.0623 16.5804C27.9811 16.6616 27.8594 16.7021 27.7377 16.8239C27.0074 16.7021 28.3463 16.9456 27.5349 16.7427C27.4943 16.7427 27.4131 16.7021 27.3726 16.7021C27.0074 16.6616 27.048 16.8644 26.5206 16.9456C25.7497 17.0673 25.7903 16.8239 25.3846 16.8239C25.1006 17.0267 25.1817 17.0673 24.9789 17.2296C24.7354 17.189 24.6543 17.1079 24.492 16.9861C24.2891 17.1079 24.2891 17.1079 24.0457 17.189V17.1484C24.0051 17.0673 24.0051 17.0673 23.9646 16.9861C23.7617 16.7833 23.1532 17.0267 22.8286 16.9456C22.3012 16.8644 22.5852 16.905 22.22 16.9861C22.1794 16.9861 22.1794 17.0267 22.1389 17.0267C21.936 17.0673 21.936 17.0673 21.6926 17.1079C21.6114 17.0267 21.5709 16.9861 21.4897 16.905C21.1246 17.1484 21.2057 17.2296 20.7189 17.3513C20.9217 17.2296 20.9217 17.2296 21.1246 17.0673C20.6377 17.1079 20.1914 17.5947 19.9886 17.757C19.38 17.757 19.38 17.757 18.812 17.7976C18.4874 17.7976 18.4469 17.9598 18.1223 18.0004C17.7977 18.041 17.9194 18.041 17.5137 18.2438C17.4732 18.1627 17.5137 18.1221 17.4326 18.1221C17.1892 18.2844 17.3109 18.2438 17.0675 18.3656C17.0269 18.325 17.0269 18.325 16.9863 18.2438C16.7429 18.4467 16.5806 18.5278 16.4183 18.6496C16.1343 18.8524 16.4995 18.609 16.1749 18.8524C16.0937 18.893 16.0126 18.9336 15.8909 19.0147C15.7692 19.177 15.7692 19.177 15.6475 19.3393C15.2823 19.5421 15.3229 19.5016 15.0389 19.7856C14.9577 20.029 15.3229 19.745 15.4852 19.7856C15.0795 20.1507 14.9983 20.0696 14.836 20.1507C14.5926 20.4347 14.7143 20.2724 14.4303 20.5158C14.4303 20.597 14.4303 20.597 14.3897 20.7187C14.3897 20.9621 14.7143 20.6376 14.9983 20.3941C14.7549 20.7187 14.6737 20.7998 14.4303 20.9621C14.4303 21.0027 14.3897 21.0027 14.3897 21.0027C13.984 21.2867 14.1869 21.165 13.7812 21.6113C13.7812 21.6518 13.7812 21.6518 13.7812 21.6924C13.7812 21.8141 13.7406 21.6924 13.6189 22.0576C13.7812 22.0576 13.7812 22.017 13.984 21.8141C13.4972 22.6661 13.7 22.301 14.1869 22.0981C14.0652 22.7473 13.0509 23.1935 12.7263 23.7615C13.0103 24.005 14.1869 22.4227 14.6737 22.0981C14.5926 22.2198 14.5115 22.2604 14.4303 22.4633C14.4709 22.4633 14.4709 22.4633 14.552 22.5038C14.5926 22.4227 14.7143 22.3416 14.7549 22.2604C14.7955 22.1387 14.7955 22.1793 14.7955 22.1387C14.836 21.9764 14.6332 22.017 14.9577 21.6113C15.2012 21.3678 15.2012 21.3678 15.404 21.1244C15.6069 20.881 15.6475 20.8404 15.8503 20.8404C15.5663 21.1244 15.404 21.165 15.2823 21.4896C15.2417 21.5301 15.2417 21.5301 15.2417 21.5707C15.4446 21.6518 15.5663 21.449 15.7692 21.2461C16.0532 20.9621 15.972 21.0433 16.1749 20.7187C16.3372 20.6781 16.4183 20.7187 16.4589 20.8404C16.54 21.0027 16.4589 20.7593 16.4589 20.9216C16.9457 20.7998 16.8646 20.6781 17.1486 20.881C17.4326 21.0027 17.4326 21.0027 17.7572 21.0838C18.0006 21.0838 17.8789 21.4084 18.2846 21.6924C18.1629 21.8953 18.1223 22.017 18.2034 22.1793L18.244 22.2198C18.4874 22.585 18.3252 22.8284 18.5686 23.0313C18.3657 23.437 18.4874 23.0313 18.4063 23.3153C18.244 23.8833 18.9743 23.3153 18.2846 25.0193C17.7977 26.277 17.5949 26.8855 18.1629 27.2507C18.0817 27.5347 18.0817 27.5347 18.0006 27.7781C18.3657 28.1433 18.1223 27.981 18.3252 28.3055C18.4874 28.549 18.7714 28.549 18.9743 28.6707C18.812 29.685 18.8526 29.5632 19.3394 30.1312C19.2989 30.4558 19.3394 30.4558 19.1366 30.5775C19.5017 30.9832 19.7046 30.7804 19.8263 31.389C19.948 31.9164 19.9886 32.1598 20.5566 32.241C20.5566 31.8758 20.1914 30.9427 20.0292 30.6587C19.7857 30.253 19.5017 30.0907 19.4612 29.2792C19.7452 29.4415 19.5017 29.2792 19.7046 29.4821L19.8669 29.685C20.0697 30.0095 20.0292 30.253 20.3537 30.7398C20.516 31.0644 20.516 31.0644 20.7189 31.4295C21.2057 32.241 21.3274 32.0381 21.368 33.1335C21.6926 33.3364 22.0172 33.5392 22.22 33.7421C23.2343 34.513 23.1126 34.4318 24.208 34.4318C24.8571 34.4724 24.6949 34.7564 24.9789 34.9998C25.5874 35.4867 25.9526 34.7158 26.6017 36.2981C26.8046 36.8255 26.9263 36.6632 27.332 37.0284C27.616 37.1501 27.616 37.1501 27.8594 37.2718C28.1029 37.3529 28.0217 37.3935 28.3869 37.4341C28.5086 37.1907 28.2651 37.6369 28.468 37.2312C28.5491 36.9878 28.4274 37.2312 28.5491 37.0689C29.0766 37.4747 29.1983 37.9615 29.1577 38.8135C29.0766 38.8541 28.9143 38.9758 28.8737 39.0164C27.616 40.3552 28.0623 40.1929 28.3057 40.9638C27.9811 41.0855 27.9811 40.9232 27.9406 41.3695C27.8594 41.8969 28.3057 41.8564 28.5491 42.4649C28.9549 43.2764 28.9549 43.2764 29.3606 44.0878C29.604 44.5746 29.6446 44.6558 30.0909 44.9804C30.456 45.2644 30.8211 45.2238 31.1051 45.5889C31.592 46.2381 31.308 46.8872 31.308 47.3335C31.308 47.6581 31.4703 47.3335 31.3891 47.8203C31.2674 48.6318 30.8211 49.1998 30.9834 49.8489C31.308 51.0661 30.5777 50.7821 30.8617 51.7558C30.9428 51.9992 30.9023 52.2426 30.9834 52.486C31.0646 52.5672 31.0646 52.5672 31.1051 52.6483C31.3891 53.0135 30.9834 53.1758 31.024 53.4598C31.1051 53.7438 31.2268 53.338 31.1051 53.7438C30.9834 54.1089 31.0646 54.0683 31.3891 54.3118C31.876 54.6363 31.876 54.6363 32.3223 54.9203C32.444 54.6363 32.4846 54.8392 32.5657 54.5552C32.6063 54.474 32.5657 54.2712 32.5657 54.1495C32.8091 53.9466 32.6874 54.1495 32.8903 53.906C33.4177 53.1352 33.0526 53.5815 32.7686 53.1758C32.9308 52.9729 32.8497 53.0946 33.0931 52.8918C33.8234 52.2832 33.3366 52.3238 33.2148 51.918C34.0668 51.9586 33.864 52.2832 33.9857 51.4312C34.3508 51.3501 34.6348 51.3095 34.9594 51.1472C35.0406 51.1066 35.3651 50.9849 35.284 50.7009C35.284 50.7009 35.2434 50.5792 35.2028 50.4981C35.1623 50.4169 35.1623 50.4169 35.0811 50.3358C34.9188 50.1735 35.0406 50.4981 34.9594 50.1735C35.7303 50.1735 36.0954 50.6603 36.4606 49.0375C36.5823 49.2809 36.4606 49.2809 36.704 49.3215C36.9474 48.9158 36.9474 48.9158 37.1908 48.5101C37.3937 48.2666 37.3531 47.8203 37.5154 47.5363C37.5965 47.4146 37.6777 47.3335 37.7588 47.2523C38.2051 46.8872 38.8543 46.6843 39.3411 46.6438C39.4223 46.1163 39.544 45.8729 39.7468 45.3455C40.0714 44.4935 39.8685 44.8181 39.9903 43.9255C40.0308 43.7632 41.0451 42.4649 41.1668 42.0998C41.248 41.8564 41.248 42.0186 41.1668 41.8158C41.0045 41.1261 40.8828 41.1666 40.3554 40.7609C39.7468 40.3146 39.0977 40.5581 38.8543 40.3552C38.6514 40.1929 38.6108 39.9495 38.2051 39.9495C38.1645 39.9089 38.1645 39.9089 38.1645 39.9089C37.7183 39.9089 37.6371 40.0307 37.556 40.2741C37.4748 40.0307 37.4748 40.0307 37.3937 39.7872C36.8663 39.8278 36.9068 39.9901 36.5823 40.3146C36.9474 39.3409 37.556 39.7061 36.7851 38.5295C36.136 37.5964 35.8114 37.5964 35.2434 37.8804C35.0406 37.5558 34.7971 37.3124 34.4726 37.0284C34.1886 36.7849 34.3103 37.0689 34.0668 36.7038C33.9046 36.4604 34.0263 36.6632 33.9451 36.3792C33.864 36.1764 33.9451 36.2981 33.864 36.1358C33.1337 36.0547 33.3366 36.2575 32.8497 36.3387C31.9571 36.4604 31.9977 35.7707 30.5777 35.6084C30.2531 36.2575 30.1314 35.6895 29.4823 36.7444C29.4011 36.9067 29.4011 36.9067 29.32 37.0689C29.1577 36.8661 28.9549 36.6632 28.6303 36.5821C28.0217 36.5009 28.4274 36.7444 27.8594 36.7444C27.0886 36.4604 27.3726 35.2027 27.5754 34.7564C27.0074 34.2695 26.9669 34.3507 26.3583 34.4724C26.1149 33.6204 26.8046 32.8495 26.5611 32.5655C26.3177 32.2815 25.7903 32.4438 25.628 32.6467C25.5063 32.7684 25.3846 33.2147 25.3034 33.377C24.6543 33.4987 24.3703 33.5392 23.8429 33.2958C23.5994 32.4438 23.5183 31.8352 23.7617 30.9427C23.8429 30.537 24.6543 29.685 24.776 29.685C24.776 29.685 24.8166 29.685 24.8571 29.685C25.06 29.7255 24.8571 29.7255 25.2223 29.8878C25.344 29.7661 25.344 29.7661 25.4657 29.6444C25.4657 29.685 25.5063 29.685 25.5063 29.7255C25.5469 29.7255 25.5469 29.7661 25.5874 29.8067C25.7091 29.8878 25.7091 29.8878 25.8714 29.969C26.6423 30.0907 25.5063 29.1981 27.4537 29.5227C28.1029 29.6444 27.9 29.969 28.0217 30.6181C28.0623 30.821 28.5086 31.7135 28.752 31.4701C29.2794 30.7804 27.9811 29.3198 28.8737 28.6301C29.1171 28.4273 29.1171 28.4273 29.3606 28.2244C29.888 27.8593 30.6994 27.697 30.2126 26.8855C30.5371 26.6015 30.4966 26.7638 30.6588 26.3175C30.8617 26.0741 30.8617 26.0741 31.024 25.8713C31.024 25.8307 31.0646 25.8307 31.0646 25.8307C31.6326 25.3844 31.2674 25.6684 31.876 25.4655C32.4034 25.2627 31.876 25.425 31.9977 24.8164C32.3628 24.573 32.8091 24.5324 33.0526 24.289C33.4177 23.9238 33.2148 23.8021 33.9857 23.6804C33.8234 24.2484 33.3366 24.005 33.2554 24.3701C33.1337 24.857 33.2148 24.5324 33.3366 24.6541C33.7017 24.7758 33.8234 24.4513 34.0668 24.289C34.5537 24.005 34.6348 24.289 34.7971 23.7615C34.6348 23.721 34.0668 23.5993 33.9451 23.5181C33.4583 23.1935 33.8234 23.1935 33.8234 22.9501C33.8234 22.3821 32.9714 22.9907 32.6063 23.0313C32.8903 22.6256 33.1337 22.7473 33.4177 22.3821C35.4868 22.6661 34.7566 22.4227 35.5274 22.1793C35.7303 22.1387 35.852 22.1793 36.136 22.1387C36.136 21.8953 36.1765 21.5707 36.0548 21.3678C35.852 21.1244 35.6897 21.4896 35.4057 21.2461C35.5274 21.1244 35.5274 21.1244 35.6897 20.9621C35.3651 20.7998 35.2028 20.8404 35.0811 20.6781C34.7566 20.313 34.9594 20.1507 34.7971 19.9073C34.6754 19.7044 34.716 19.745 34.5943 19.6233C34.5131 19.5827 34.5131 19.5827 34.4726 19.5016C34.432 19.5016 34.432 19.461 34.432 19.461C34.3103 19.2987 34.3103 19.2987 34.2291 19.177C33.7017 19.4204 34.1074 19.8261 33.0526 19.6638C32.8903 19.177 32.9714 19.177 33.1743 18.8524C32.6468 18.7307 32.6468 18.6496 32.4034 18.4061C31.5514 18.325 31.5108 18.2438 31.308 18.2033C30.74 18.5684 31.2268 18.9336 30.9023 19.3393C30.6994 19.5827 30.6183 19.3798 30.74 19.8261C31.0646 21.0838 30.456 20.313 30.3748 21.0838C30.3343 21.2867 30.456 21.733 30.2126 21.8547C30.0909 21.9358 30.0909 21.9358 29.9691 21.9764C29.9691 21.9764 29.9286 21.9764 29.888 21.9764C29.6851 22.017 29.604 22.1387 29.4417 21.8141C29.3606 21.6113 29.5634 21.1244 29.5634 20.8404C29.2794 20.7593 29.2794 20.7593 28.9143 20.6781C28.9143 20.6781 28.9143 20.6376 28.8737 20.6376C28.6709 20.5564 28.6709 20.5564 28.4274 20.4753C28.1029 20.2724 28.3463 20.2724 28.0217 20.1507C27.7783 20.0696 27.616 20.1507 27.332 20.1101C26.9669 19.3393 27.3726 19.8667 26.8857 19.461C27.0074 18.8524 27.4943 18.6901 27.9811 18.4061C28.3869 18.1627 28.2246 18.1221 28.5897 18.0004C29.0766 17.7976 29.036 17.9598 29.1577 17.473C28.8737 17.4324 28.7926 17.473 28.752 17.3107C29.7663 17.473 29.2389 17.473 29.604 17.1079C30.172 17.1484 29.6446 17.2296 30.172 17.2296C30.8617 17.189 30.6588 16.8239 30.6994 16.7021C30.74 16.4181 31.1863 16.1747 30.0503 16.2153C29.9691 16.4993 29.8474 16.621 29.5229 16.8644C29.4417 16.905 29.4417 16.905 29.4011 16.905C29.4011 16.7021 29.4011 16.5399 29.32 16.3776C28.9954 16.4181 29.1983 16.3776 28.9954 16.5804C28.9143 16.4587 28.9143 16.4587 28.8331 16.3776C28.7114 16.2153 28.752 16.4181 28.7114 16.1747C28.6303 15.9719 28.9549 16.0124 28.5897 15.8096C28.184 15.6473 27.7783 16.0936 27.5754 16.2964C27.4131 16.1341 27.5349 16.1341 27.1291 16.2153C27.0074 16.2964 26.9669 16.337 26.9263 16.5399ZM36.2171 13.9027C35.6897 13.7404 35.568 13.8216 35.3246 13.8621C35.1217 13.9433 35.0406 13.8621 34.7971 13.8621C34.432 13.9027 34.7971 13.9433 34.5943 14.0244C34.5131 14.1056 34.3508 14.065 34.148 14.1056C33.9451 14.1056 33.9451 14.1461 33.7017 14.1867C33.3366 14.2273 33.3366 14.1461 33.296 14.3084C33.6611 14.3896 33.7828 14.2679 34.3103 14.3896C34.1886 14.5113 34.3103 14.4707 34.0263 14.4707C33.8234 14.4707 33.9046 14.4301 33.6611 14.4707C34.3508 15.201 36.0143 14.3084 36.5823 16.0936C36.6228 16.0936 36.7851 16.053 36.8257 16.0936C36.8663 16.0936 36.9068 16.0936 36.9068 16.0936C36.988 16.0936 36.9474 16.053 37.0691 16.1341C37.0285 16.3776 37.0691 16.1341 36.9474 16.2559C36.8663 16.2559 36.8663 16.2559 36.8257 16.2964C36.5011 16.5399 36.8663 16.0936 36.7445 16.3776C36.8663 16.4181 36.8663 16.4181 36.988 16.4587C37.1503 16.4993 37.1503 16.4993 37.3125 16.5399C37.3531 16.7833 37.2314 16.8644 37.0691 16.8644C36.8257 16.905 36.4606 16.7833 37.1908 17.9598C37.2314 18.041 37.2314 18.041 37.272 18.1221C38.0428 19.5016 37.7588 18.7713 38.4485 19.2987C38.6514 19.461 38.3674 19.3393 38.692 19.5016C39.3005 19.5016 39.1383 19.2987 39.2194 18.8524C39.3411 18.3656 39.544 18.8524 39.4628 18.041C40.3148 17.9193 40.7611 18.3656 40.8423 17.8381C40.8828 17.757 40.8828 17.7164 40.8828 17.6353C41.6943 17.7976 41.5725 18.041 42.1405 17.7976C42.7491 17.5947 42.3434 17.7164 42.4245 17.5136C42.4651 17.473 42.8302 17.473 42.3028 17.1079C41.9377 16.8644 42.0594 17.0673 41.8971 16.8239C42.1405 16.7833 42.0188 16.905 42.3434 16.905C42.4245 16.905 42.4245 16.905 42.5057 16.8644C42.5057 16.905 42.5057 16.8644 42.5057 16.8644C42.5462 16.8644 42.5462 16.8644 42.5868 16.8644C42.7085 16.8644 42.668 16.905 42.7085 16.7833C42.4245 16.5399 43.0737 17.0673 42.4651 16.621C42.3434 16.5399 42.3434 16.621 42.2623 16.4587C42.1811 16.2559 42.668 16.6616 42.3434 16.2964C42.0188 16.0936 42.1405 16.2153 41.816 16.0124C41.6537 15.8907 41.9377 15.9313 42.0594 15.9719C41.8971 15.8907 41.8971 15.8907 41.7348 15.769C42.1 15.9313 42.5057 16.1341 42.5462 16.1341C41.9783 15.769 41.2074 15.5256 41.2074 15.5256C41.1668 15.4444 41.3291 15.5256 41.248 15.4039C40.8828 15.2416 41.0451 15.3633 40.8017 15.2821C40.7205 15.201 40.7205 15.201 40.6394 15.1604C40.6394 15.1604 40.6394 15.1604 40.5988 15.1199C40.2337 14.9981 39.9903 14.9576 39.7468 14.8359C40.0308 14.8764 40.8017 15.201 41.0451 15.2821C40.9234 15.201 41.0857 15.2821 40.7205 15.1199C40.112 14.8359 40.0308 14.8764 39.6251 14.7141C39.7874 14.7141 39.9091 14.7953 40.0714 14.8359C39.7874 14.6736 39.4223 14.5519 39.1383 14.4707C38.6108 14.3084 38.7325 14.349 38.5703 14.3896C38.2051 14.2679 38.2863 14.2679 37.8805 14.1461C37.9211 14.2273 37.9211 14.2273 38.0023 14.3084C37.84 14.2679 38.0428 14.3084 37.8805 14.2679C37.556 14.1461 37.6371 14.1461 37.272 14.065C37.1908 14.1056 37.3531 14.1867 37.1503 14.1461C36.7445 14.0244 37.1908 14.1056 36.8257 13.9839C36.42 13.8621 36.6228 13.9839 36.5823 13.9839C36.4606 13.9433 36.3388 13.9027 36.2171 13.9027ZM31.1863 15.4039C31.1863 15.4039 31.1457 15.3227 31.1863 15.3227C31.2268 15.3227 31.4297 15.4039 31.1863 15.4444C31.0646 15.485 31.1863 15.4444 31.1863 15.4039ZM30.2126 15.4444C30.0909 15.3633 30.172 15.485 30.172 15.3633C30.172 15.201 30.2937 15.2416 30.2531 15.0793C29.6851 14.9981 29.3606 15.3633 29.4011 15.7284C29.5634 15.8096 29.604 15.8096 29.6851 15.8501C29.7663 15.9719 29.6851 16.0124 29.7257 16.0936C30.3748 16.0936 30.2937 15.9313 30.7806 16.0936C31.3486 16.2559 31.0646 16.0936 31.5514 16.0124C32.1194 16.4181 31.8354 16.2559 31.9166 16.4181C32.0383 16.5804 32.0383 16.4587 32.5251 16.5399C32.8091 17.1484 32.5657 17.2296 31.6731 17.3513C31.2674 17.3918 31.024 17.6353 31.3486 17.7976C31.6731 17.9598 31.876 17.757 32.3628 17.757C32.6468 18.0004 33.3771 18.6496 33.864 18.5278C33.7423 18.1627 33.58 18.2438 33.5394 18.0004C33.9451 18.1627 33.7017 18.2033 34.1886 18.325C34.6348 17.5947 33.8234 17.5136 33.6611 17.4324C33.6611 17.2701 33.7017 17.2296 33.7423 17.1484C34.2291 17.189 34.148 17.5136 34.716 17.6758C35.0406 17.3918 35.2434 17.1079 34.6754 16.905C34.0668 16.7021 34.2697 16.9861 33.7828 16.4993C33.864 16.2964 34.1074 16.337 33.9046 16.0936C33.6206 15.769 32.8497 15.9313 32.444 15.485C32.4034 15.4039 32.3628 15.201 31.7543 15.2821C31.3486 15.3227 31.5108 15.3227 31.3891 15.3633C31.2674 15.2416 31.3486 15.201 31.2674 15.0793C30.3748 14.9576 30.5371 15.1604 30.2937 15.4039C30.2531 15.4444 30.2531 15.4444 30.2126 15.4444ZM33.0526 13.4564C33.0526 13.4564 32.8903 13.4159 32.8497 13.3753C32.7686 13.3753 32.7686 13.3753 32.6874 13.3753C32.3628 13.3753 32.4034 13.3753 31.9977 13.3347C31.6731 13.5781 31.4703 13.4159 31.2674 13.3753C30.9023 13.3753 31.0646 13.4159 30.8211 13.4564C30.5371 13.497 30.6183 13.4564 30.3748 13.497C30.4966 13.6187 30.6183 13.7404 31.1863 13.7404C31.3486 13.7404 32.0788 13.6593 32.2411 13.6593C32.2411 13.781 32.0788 13.7404 31.7543 13.7404C30.9834 13.8216 31.6731 13.8216 31.5514 13.8621C31.2268 13.8621 31.2268 13.8216 30.9023 13.781C30.9023 13.9433 30.9834 13.9839 31.0646 14.065C30.7806 14.1056 30.8211 14.1461 30.5777 14.2679C30.0503 14.4707 30.2531 14.2679 29.9286 14.349C30.0097 14.633 30.3343 14.633 30.9834 14.633C31.7543 14.633 31.876 14.5924 32.2006 14.4301C32.1194 14.3084 32.1194 14.3896 31.9977 14.2273C32.6468 14.2273 32.7686 14.0244 33.1337 13.9027C33.58 13.9433 33.6611 14.0244 34.0668 13.9433C34.4726 13.8621 34.3508 13.8621 34.2291 13.6593C34.6754 13.6999 35 13.781 35.2434 13.7404C35.0406 13.5376 34.7566 13.5781 34.148 13.497C33.2554 13.3753 33.4988 13.3753 33.0526 13.4564ZM24.2486 15.8501L24.208 15.8907C24.2486 15.8907 24.2486 15.8907 24.2486 15.8501ZM24.4109 15.8096C24.0457 15.3633 23.924 15.7284 23.4777 15.5256C23.3154 15.6067 23.3154 15.6067 23.1126 15.6473C23.072 15.6473 23.072 15.6879 23.072 15.6473C22.9503 15.7284 22.9503 15.7284 22.8286 15.769C22.788 15.8096 22.788 15.8096 22.7069 15.8907C22.5852 16.0124 22.5852 16.053 22.4229 16.1747C22.2606 16.2964 22.3012 16.2153 22.1389 16.4181C22.6257 16.8644 22.788 16.2964 24.208 15.8907C24.1269 15.9719 24.1269 15.9719 24.0457 16.053C23.64 16.2964 23.64 16.053 23.3966 16.3776C23.6806 16.4587 23.8429 16.337 24.208 16.337C23.9646 16.4587 23.7212 16.4993 23.4372 16.5804C23.5183 16.7427 23.8023 16.7833 24.0051 16.8239C24.3703 16.8644 25.7091 16.6616 26.1149 16.5804C26.6017 16.4993 26.48 16.4587 26.3583 16.2559C26.764 16.053 26.5611 16.2964 26.6829 16.053C25.3846 15.8501 27.0074 15.3633 25.7497 15.5256C25.6686 15.6879 25.7497 15.6879 25.5469 15.8501C25.4251 15.7284 25.4251 15.7284 25.3034 15.6473C25.06 15.6879 25.1817 15.6473 25.0194 15.8096C24.9789 15.6879 25.0194 15.769 24.9789 15.7284C24.6949 15.769 24.6949 15.769 24.4109 15.8096ZM31.5514 14.9981C31.6731 14.8359 31.6326 14.8764 31.5514 14.7141C31.1051 14.633 30.8211 14.7141 30.3343 14.6736C29.6851 14.633 29.9286 14.5519 29.7257 14.349C28.5897 14.3084 28.9549 14.6736 29.5229 14.8764C29.888 15.0387 30.0909 14.9576 30.4966 14.917C31.2268 14.8359 31.1863 14.9981 31.5514 14.9981ZM30.3748 14.1056C30.7806 13.7404 30.2126 13.5781 29.604 13.5781C29.4823 13.6593 29.4417 13.6593 29.32 13.7404C28.9954 13.9433 29.2389 13.8216 29.4823 14.0244C29.5229 14.065 29.4823 14.2273 30.3748 14.1056ZM24.776 15.1604C24.7354 15.2821 24.7354 15.2821 24.6543 15.4039C25.1006 15.4039 25.3034 15.3633 25.7497 15.2416C26.4394 14.9981 26.196 15.0793 26.8046 15.1199C26.8046 14.7953 26.5206 14.917 26.2771 14.7953C26.0743 14.7547 26.3583 14.7141 26.0337 14.7141C25.6686 14.7547 25.912 14.7953 25.5063 14.9981C25.06 15.1604 25.1411 15.0387 24.776 15.1604ZM36.6634 23.8427C36.8663 23.5993 36.7851 23.5587 36.6634 22.869C36.2983 22.6661 36.2983 22.8284 36.0548 22.4633C35.9737 22.3416 36.0548 22.3821 35.9737 22.2604C35.6897 22.3416 35.6086 22.5038 35.4057 22.6661C35.0406 22.9501 35.0811 22.9096 35.1217 23.437C35.4868 23.3964 35.4868 23.3964 35.852 23.3558C35.9331 23.5587 35.9331 23.5587 36.0548 23.7615C36.3794 23.6804 36.136 23.8427 36.2983 23.5587C36.5011 23.8427 36.3388 23.721 36.6634 23.8427ZM29.32 33.2552C29.3606 33.2552 29.9691 33.5392 30.3343 33.0118C30.172 32.6061 30.1314 32.6872 29.604 32.4844C28.8737 32.2004 28.1434 31.5512 27.2509 32.2004C27.4131 32.4844 27.2103 32.3221 27.5349 32.3221C27.5349 32.3221 28.5897 32.0787 29.0766 32.6872C29.2794 32.8901 29.1171 32.7278 29.2389 33.0118C29.2794 33.1335 29.2794 33.1335 29.32 33.2552ZM27.8189 15.1199C27.4943 15.1199 27.4537 15.1199 27.2103 15.2416C27.2103 15.3633 27.2103 15.3633 27.2103 15.5256C27.0074 15.485 27.0074 15.485 26.8046 15.4444C26.764 15.6879 26.6829 15.6067 27.1291 15.769C27.6566 15.9719 27.9 15.769 27.9 15.5256C27.8594 15.485 27.8594 15.3227 27.8594 15.2821C27.8189 15.201 27.8189 15.201 27.8189 15.1199ZM23.5183 15.2821C23.5589 15.3227 23.4777 15.3227 23.64 15.3227C23.7212 15.3227 23.7617 15.3227 23.8834 15.3227C24.2486 15.2416 24.208 15.201 24.3703 15.0793C24.6949 14.917 25.1817 14.9576 24.9383 14.7141C24.6949 14.7547 24.4514 14.8764 24.2486 14.9576C23.8023 15.1199 23.7212 15.0387 23.5183 15.2821ZM27.332 14.9981C27.6971 14.9576 27.6971 14.9576 28.1029 14.8764C28.2651 14.5113 27.9406 14.5113 27.4131 14.7141C27.332 14.6736 27.3726 14.633 27.1697 14.633C27.0074 14.633 27.2509 14.5924 27.0074 14.633C26.9669 14.8764 27.1291 14.8764 27.332 14.9981ZM31.592 33.1335C31.2674 32.8901 31.2268 32.8495 30.7806 32.9307C30.6588 33.1741 30.6588 33.1335 30.74 33.4175C30.3343 33.4175 30.3748 33.2958 30.1314 33.5392C30.4154 33.9044 30.4966 33.7827 31.0646 33.7421C31.7543 33.7421 32.5657 33.8638 31.592 33.1335ZM28.2651 15.6473C28.4274 15.6067 29.1577 15.3227 29.3606 15.1199C28.9549 14.9981 28.752 15.0793 28.3463 15.1604C28.3057 15.201 28.2651 15.3227 28.2246 15.4039C28.2246 15.4039 28.184 15.485 28.184 15.5256C28.184 15.6473 28.184 15.5661 28.2651 15.6473ZM27.0886 14.1461C27.0074 14.349 27.048 14.2273 27.4943 14.349C27.6566 14.3896 27.4131 14.3896 27.6566 14.3896C28.5491 14.4707 27.9406 13.9027 27.0886 14.1461ZM29.4823 18.1627C29.6851 18.1221 30.2126 17.8381 30.2937 17.6758C30.0503 17.3918 29.7663 17.4324 29.2794 17.5541C29.1577 17.8787 29.1577 18.0004 29.4823 18.1627ZM32.444 54.9203C32.728 55.0015 32.6874 54.9609 32.9714 55.042C33.2148 54.9609 33.2148 54.9609 33.4988 54.8798C33.296 54.758 32.5251 54.3929 32.444 54.9203ZM34.2697 54.4335C34.4726 54.3929 34.9188 54.3523 35.2028 54.19C35.0811 54.1089 34.9594 54.0683 34.7971 54.0278C34.6754 54.1495 34.7971 54.1089 34.5537 54.1495C34.4726 54.1495 34.3914 54.19 34.2697 54.19C34.2697 54.3118 34.2697 54.3118 34.2697 54.4335ZM28.468 14.1461C28.5086 14.2273 28.5086 14.2273 28.5086 14.349C28.7114 14.3084 28.7114 14.3084 28.9143 14.3084C29.2389 13.9839 28.7114 13.9839 28.468 14.1461ZM25.5469 14.5113C25.8309 14.4707 26.1554 14.3896 26.3583 14.3084C26.3177 14.2273 26.2771 14.1867 25.9526 14.2679C25.6686 14.3084 25.5874 14.3896 25.5469 14.5113ZM25.4657 14.7953C26.196 14.5924 26.1149 14.5924 26.196 14.5113C26.0743 14.4707 26.4394 14.4301 25.6686 14.5519C25.5874 14.633 25.5063 14.6736 25.4657 14.7953ZM36.4606 16.621C36.5011 16.621 36.4606 16.7021 36.8257 16.7021C36.9474 16.7021 37.0285 16.7021 37.0285 16.7021C37.0691 16.7021 37.0691 16.7021 37.0285 16.6616C37.0285 16.6616 37.0285 16.6616 37.0285 16.621H37.0691C37.0285 16.621 37.0285 16.621 37.0285 16.5804C36.8257 16.4181 36.5417 16.2964 36.4606 16.621ZM28.3463 14.917C28.6709 14.9981 28.8737 14.9981 28.9549 14.7547C28.5897 14.7141 28.3869 14.7141 28.3463 14.917ZM29.7257 33.661C29.5229 33.4175 29.4417 33.377 28.9549 33.4987C29.036 33.661 28.8737 33.8232 29.32 33.8638C29.6851 33.9044 29.6446 33.7827 29.7257 33.661ZM31.4703 17.0267C31.6731 17.0267 31.7948 17.0267 31.876 16.9456C32.0788 16.7427 31.876 16.7021 31.876 16.7021C31.7543 16.7021 31.7543 16.7021 31.6326 16.6616C31.5108 16.7833 31.5514 16.7021 31.5108 16.8239C31.5108 16.8644 31.5108 17.0267 31.4703 17.0267ZM41.6537 17.1484C41.6537 17.1484 41.5725 16.8644 42.1811 17.3107C42.2623 17.3513 42.2623 17.3513 42.3434 17.3918C42.3434 17.4324 42.3434 17.4324 42.384 17.4324C42.2217 17.3918 42.0188 17.3513 41.816 17.2701C41.6537 17.1484 41.816 17.2701 41.6537 17.1484ZM46.7251 22.1387C46.7657 22.0981 46.8062 22.0981 46.8062 21.9358C46.4817 21.6924 47.0902 22.1793 46.6845 21.8547C46.2788 21.5707 46.6034 21.733 46.3194 21.5301C46.1165 21.5301 46.2382 21.4084 46.1977 21.6924C45.9948 21.6113 46.1977 21.733 46.0354 21.5707C45.9542 21.4896 46.076 21.5301 45.9137 21.449C45.9137 21.5707 45.9137 21.5707 45.9137 21.6924C46.076 21.7736 46.1165 21.6924 46.2382 21.8953C46.3194 22.0576 46.2788 22.0981 46.2788 22.2198C46.2788 22.2198 46.4005 22.3416 46.4411 22.3821C46.8062 22.8284 46.644 22.5444 46.928 22.9096C46.8468 23.0313 46.928 22.9907 46.6845 22.9501C46.7657 23.1935 46.7657 23.153 46.7657 23.3153C46.8062 23.5181 46.7657 23.3153 46.8874 23.5181C47.0091 23.8021 46.8062 23.5587 46.8062 24.005C47.0497 24.005 47.0497 23.9238 47.2931 23.9644C47.5365 24.005 47.4554 23.9238 47.7394 23.9644C47.6582 23.721 47.6582 23.8427 47.6582 23.7615C47.6988 23.721 47.9422 23.8021 47.6177 23.3964C47.3742 22.9907 47.3742 22.9907 47.0902 22.6256C46.928 22.2604 47.0091 22.3416 46.7251 22.1387ZM44.1691 19.461C44.3314 19.4204 44.2908 19.2176 44.088 18.9336C43.7228 18.6901 43.7634 18.893 43.2765 18.6901C43.1142 18.609 43.236 18.609 43.0737 18.609C42.668 18.5278 43.0331 18.6496 42.6274 18.4061C42.5057 18.4873 42.4651 18.4873 42.4651 18.7307C42.7085 18.7713 42.7085 18.7713 42.9114 18.8524C42.9114 19.0147 42.9114 19.0147 42.9114 19.2176C43.1142 19.2176 43.1548 19.177 43.3577 19.2987C43.4794 19.4204 43.4794 19.4204 43.6417 19.5016L43.6822 19.5421C44.0068 19.2987 43.9257 19.5421 44.1691 19.461ZM45.8731 23.3558C46.1977 23.3558 46.076 23.3153 46.2788 23.2747C46.5222 23.2747 46.5222 23.3964 46.5628 23.153C46.4817 22.8284 46.4817 22.8284 46.4005 22.4633C46.0354 22.2604 46.1165 22.3416 45.7108 22.5038C45.7514 22.9501 45.7514 22.6661 45.792 22.869C45.8325 23.1124 45.8325 23.1124 45.8731 23.3558ZM44.372 18.2844C44.5342 18.3656 44.656 18.4061 44.5748 18.2844C44.5342 18.2033 44.4531 18.1627 44.2908 18.0816C44.3314 18.1627 44.3314 18.1627 44.372 18.2844ZM49.5651 27.7375C49.6462 27.697 49.6868 27.697 49.6462 27.4535C49.6057 27.129 49.6057 27.2507 49.4434 27.2101C49.4839 27.4535 49.4839 27.4535 49.5651 27.7375ZM28.4274 13.8216C28.4274 13.9027 28.4274 13.9027 28.3463 13.9839C28.7114 13.9839 28.7114 13.9433 28.8331 13.8621C28.6709 13.781 28.752 13.781 28.4274 13.8216ZM51.3097 27.8187C51.2691 27.5347 51.1474 27.0884 51.1879 27.0478C51.2285 26.9667 51.2691 27.2507 51.2285 26.9261C51.1879 26.8044 51.1474 26.6827 51.1474 26.561C51.2285 26.7233 51.1474 26.5204 51.2691 26.845C51.3097 26.9261 51.3097 26.9261 51.3502 27.0478C51.3908 27.1695 51.3097 27.2101 51.4314 27.3318C51.5125 27.4535 51.5531 27.413 51.5531 27.3318V27.2913C51.5125 27.2913 51.5125 27.2507 51.5125 27.2507C51.4719 27.2101 51.4719 27.2101 51.4719 27.1695C51.4314 27.129 51.4314 27.0884 51.3908 27.0478C51.3908 26.8855 51.4314 26.8855 51.4719 26.9667C51.5531 27.2507 51.4314 26.9667 51.5531 27.2913C51.6342 27.4535 51.6342 27.4535 51.6748 27.6158C51.7559 27.7781 51.7154 27.7375 51.7965 27.8998C51.8777 28.1433 51.8777 28.1027 51.9994 28.5084C51.9588 28.5895 51.7154 27.981 51.7154 27.9404C51.5937 27.8998 51.4719 27.8998 51.3097 27.8187Z" fill="url(#paint0_radial)"/>
<path d="M78.8148 22.2604C76.8674 22.2604 75.0011 22.8284 73.7434 23.8426L74.6765 25.5061C75.6097 24.6946 77.1108 24.2078 78.5714 24.2078C80.8028 24.2078 81.8982 25.3032 81.8982 27.1695V27.6158H78.3279C74.6765 27.6158 73.3782 29.2386 73.3782 31.2266C73.3782 33.3769 75.1634 34.878 77.9628 34.878C79.8696 34.878 81.2491 34.1883 81.9794 33.0929V34.7158H84.1296V27.2506C84.1296 23.8832 82.2228 22.2604 78.8148 22.2604ZM78.3279 33.1335C76.6239 33.1335 75.6097 32.3626 75.6097 31.1455C75.6097 30.0906 76.2182 29.2386 78.4497 29.2386H81.8982V30.9426C81.3302 32.3626 79.9914 33.1335 78.3279 33.1335ZM94.597 22.2604C92.609 22.2604 91.0268 22.9906 90.1342 24.2484V22.3821H87.9839V34.7158H90.2153V28.3461C90.2153 25.6684 91.757 24.2484 94.1508 24.2484C96.2605 24.2484 97.4776 25.4655 97.4776 27.8592V34.7158H99.709V27.6158C99.709 23.9644 97.5993 22.2604 94.597 22.2604ZM112.083 22.3821L107.823 32.2409L103.523 22.3821H101.17L106.647 34.6752L106.241 35.5678C105.632 36.9878 104.943 37.4746 103.888 37.4746C103.036 37.4746 102.265 37.15 101.656 36.5415L100.723 38.2455C101.494 38.9757 102.711 39.3815 103.888 39.3815C105.754 39.3815 107.174 38.57 108.27 35.9329L114.274 22.3821H112.083ZM122.713 32.4032C122.226 32.7683 121.618 32.9712 120.928 32.9712C119.711 32.9712 119.021 32.2409 119.021 30.9021V24.2078H122.551V22.3821H119.021V19.6638H116.79V22.3821H114.68V24.2078H116.79V30.9832C116.79 33.4986 118.21 34.878 120.684 34.878C121.699 34.878 122.713 34.594 123.403 33.9855L122.713 32.4032ZM132.41 22.2604C130.543 22.2604 129.002 22.9501 128.068 24.1266V17.4324H125.837V34.7158H128.068V28.3461C128.068 25.6684 129.61 24.2484 131.963 24.2484C134.073 24.2484 135.29 25.4655 135.29 27.8592V34.7158H137.522V27.6158C137.522 23.9644 135.412 22.2604 132.41 22.2604ZM143.567 24.4512V22.3821H141.416V34.7158H143.648V28.5895C143.648 25.8712 145.149 24.4106 147.543 24.4106C147.705 24.4106 147.867 24.4106 148.07 24.4106V22.2604C145.879 22.2604 144.337 22.9906 143.567 24.4512ZM161.58 28.6301C161.58 24.8164 159.024 22.2604 155.454 22.2604C151.924 22.2604 149.287 24.8975 149.287 28.5489C149.287 32.2409 151.924 34.878 155.9 34.878C157.969 34.878 159.673 34.1478 160.769 32.8495L159.552 31.4295C158.659 32.4032 157.442 32.89 155.981 32.89C153.547 32.89 151.803 31.4701 151.519 29.2792H161.54C161.54 29.0763 161.58 28.7923 161.58 28.6301ZM155.454 24.1266C157.645 24.1266 159.187 25.6278 159.43 27.6969H151.519C151.762 25.5872 153.344 24.1266 155.454 24.1266ZM175.577 28.6301C175.577 24.8164 173.021 22.2604 169.451 22.2604C165.881 22.2604 163.244 24.8975 163.244 28.5489C163.244 32.2409 165.921 34.878 169.897 34.878C171.967 34.878 173.63 34.1478 174.766 32.8495L173.549 31.4295C172.616 32.4032 171.399 32.89 169.979 32.89C167.504 32.89 165.759 31.4701 165.516 29.2792H175.496C175.537 29.0763 175.577 28.7923 175.577 28.6301ZM169.451 24.1266C171.642 24.1266 173.184 25.6278 173.427 27.6969H165.516C165.719 25.5872 167.301 24.1266 169.451 24.1266Z" fill="#00A4EF"/>
<path d="M178.906 34.8777C179.758 34.8777 180.448 34.188 180.448 33.2548C180.448 32.3217 179.758 31.6726 178.906 31.6726C178.054 31.6726 177.324 32.3217 177.324 33.2548C177.324 34.188 178.054 34.8777 178.906 34.8777ZM188.522 34.8777C190.712 34.8777 192.579 33.9446 193.552 32.2L191.848 31.1451C191.037 32.3623 189.82 32.8897 188.481 32.8897C186.047 32.8897 184.262 31.2263 184.262 28.5486C184.262 25.9114 186.047 24.2074 188.481 24.2074C189.82 24.2074 191.037 24.7754 191.848 25.9926L193.552 24.8971C192.579 23.1526 190.712 22.26 188.522 22.26C184.708 22.26 181.99 24.8566 181.99 28.5486C181.99 32.2406 184.708 34.8777 188.522 34.8777ZM201.261 34.8777C204.953 34.8777 207.671 32.2406 207.671 28.5486C207.671 24.8566 204.953 22.26 201.261 22.26C197.569 22.26 194.851 24.8566 194.851 28.5486C194.851 32.2406 197.569 34.8777 201.261 34.8777ZM201.261 32.8897C198.867 32.8897 197.082 31.1857 197.082 28.5486C197.082 25.9114 198.867 24.2074 201.261 24.2074C203.655 24.2074 205.399 25.9114 205.399 28.5486C205.399 31.1857 203.655 32.8897 201.261 32.8897ZM225.928 22.26C223.819 22.26 222.115 23.1526 221.181 24.532C220.37 22.9903 218.788 22.26 216.881 22.26C215.015 22.26 213.513 22.9497 212.621 24.2074V22.3817H210.511V34.7154H212.743V28.3457C212.743 25.668 214.203 24.248 216.435 24.248C218.463 24.248 219.64 25.4651 219.64 27.8589V34.7154H221.871V28.3457C221.871 25.668 223.332 24.248 225.563 24.248C227.592 24.248 228.768 25.4651 228.768 27.8589V34.7154H231V27.6154C231 23.964 228.931 22.26 225.928 22.26Z" fill="#00A4EF"/>
<path d="M77.1941 46.2385H78.0461L76.0986 41.938H75.2872L73.3398 46.2385H74.1918L74.5975 45.2648H76.7478L77.1941 46.2385ZM74.8815 44.6157L75.6929 42.7494L76.5043 44.6157H74.8815Z" fill="#FFB900"/>
<path d="M82.6711 41.938V44.8591L80.2774 41.938H79.6283V46.2385H80.4397V43.3174L82.7929 46.2385H83.4826V41.938H82.6711Z" fill="#FFB900"/>
<path d="M89.2436 41.938H88.4322L87.1339 44.0477L85.8762 41.938H85.0242L86.7282 44.7374V46.2385H87.5396V44.7374L89.2436 41.938Z" fill="#FFB900"/>
<path d="M92.4894 46.2385H94.3962C95.7757 46.2385 96.7494 45.3866 96.7494 44.0883C96.7494 42.79 95.7757 41.938 94.3962 41.938H92.4894V46.2385ZM93.3008 45.5894V42.6277H94.3557C95.2888 42.6277 95.9379 43.1957 95.9379 44.0883C95.9379 44.9808 95.2888 45.5894 94.3557 45.5894H93.3008Z" fill="#FFB900"/>
<path d="M99.4272 45.5894V44.3723H101.537V43.7231H99.4272V42.5871H101.78V41.938H98.6158V46.2385H101.861V45.5894H99.4272Z" fill="#FFB900"/>
<path d="M106.892 41.938L105.431 45.2648L104.011 41.938H103.119L105.026 46.2385H105.797L107.703 41.938H106.892Z" fill="#FFB900"/>
<path d="M109.205 46.2385H109.976V41.938H109.205V46.2385Z" fill="#FFB900"/>
<path d="M114.195 46.3188C114.925 46.3188 115.493 46.0754 115.899 45.5885L115.412 45.1017C115.088 45.4262 114.682 45.6291 114.236 45.6291C113.343 45.6291 112.694 44.9799 112.694 44.0874C112.694 43.1948 113.343 42.5862 114.236 42.5862C114.682 42.5862 115.088 42.7485 115.412 43.0731L115.899 42.5862C115.493 42.0994 114.925 41.856 114.195 41.856C112.856 41.856 111.882 42.7891 111.882 44.0874C111.882 45.3857 112.856 46.3188 114.195 46.3188Z" fill="#FFB900"/>
<path d="M118.536 45.5894V44.3723H120.605V43.7231H118.536V42.5871H120.889V41.938H117.725V46.2385H120.97V45.5894H118.536Z" fill="#FFB900"/>
<path d="M132.98 46.2385H133.791L131.844 41.938H131.073L129.125 46.2385H129.937L130.383 45.2648H132.533L132.98 46.2385ZM130.627 44.6157L131.438 42.7494L132.249 44.6157H130.627Z" fill="#7FBA00"/>
<path d="M138.416 41.938V44.8591L136.063 41.938H135.373V46.2385H136.185V43.3174L138.578 46.2385H139.228V41.938H138.416Z" fill="#7FBA00"/>
<path d="M144.989 41.938H144.177L142.919 44.0477L141.662 41.938H140.769L142.473 44.7374V46.2385H143.285V44.7374L144.989 41.938Z" fill="#7FBA00"/>
<path d="M151.318 41.938V44.8591L148.924 41.938H148.234V46.2385H149.046V43.3174L151.44 46.2385H152.089V41.938H151.318Z" fill="#7FBA00"/>
<path d="M155.091 45.5894V44.3723H157.201V43.7231H155.091V42.5871H157.444V41.938H154.28V46.2385H157.525V45.5894H155.091Z" fill="#7FBA00"/>
<path d="M160.325 46.2385H161.136V42.6277H162.597V41.938H158.905V42.6277H160.325V46.2385Z" fill="#7FBA00"/>
<path d="M169.697 41.938L168.601 45.2243L167.506 41.938H166.775L165.639 45.2243L164.585 41.938H163.733L165.193 46.2385H166.045L167.141 43.0334L168.195 46.2385H169.047L170.467 41.938H169.697Z" fill="#7FBA00"/>
<path d="M174.159 46.3188C175.498 46.3188 176.472 45.3857 176.472 44.0874C176.472 42.7891 175.498 41.856 174.159 41.856C172.82 41.856 171.806 42.8297 171.806 44.0874C171.806 45.3857 172.82 46.3188 174.159 46.3188ZM174.159 45.6291C173.267 45.6291 172.618 44.9799 172.618 44.0874C172.618 43.1948 173.267 42.5862 174.159 42.5862C175.011 42.5862 175.66 43.1948 175.66 44.0874C175.66 44.9799 175.011 45.6291 174.159 45.6291Z" fill="#7FBA00"/>
<path d="M182.071 46.2385L181.057 44.8186C181.665 44.6157 181.99 44.1288 181.99 43.4797C181.99 42.506 181.3 41.938 180.164 41.938H178.379V46.2385H179.15V44.9808H180.164C180.205 44.9808 180.245 44.9808 180.326 44.9808L181.178 46.2385H182.071ZM181.178 43.4797C181.178 44.0071 180.813 44.3317 180.123 44.3317H179.15V42.6277H180.123C180.813 42.6277 181.178 42.9117 181.178 43.4797Z" fill="#7FBA00"/>
<path d="M186.939 46.2385H187.873L185.925 43.8448L187.751 41.938H186.858L184.708 44.1288V41.938H183.897V46.2385H184.708V45.1431L185.398 44.4534L186.939 46.2385Z" fill="#7FBA00"/>
<path d="M199.517 46.2385H200.369L198.421 41.938H197.61L195.662 46.2385H196.514L196.92 45.2648H199.111L199.517 46.2385ZM197.204 44.6157L198.015 42.7494L198.827 44.6157H197.204Z" fill="#00A4EF"/>
<path d="M204.994 41.938V44.8591L202.6 41.938H201.951V46.2385H202.762V43.3174L205.115 46.2385H205.805V41.938H204.994Z" fill="#00A4EF"/>
<path d="M211.566 41.938H210.755L209.497 44.0477L208.199 41.938H207.347L209.051 44.7374V46.2385H209.862V44.7374L211.566 41.938Z" fill="#00A4EF"/>
<path d="M213.919 46.2385H214.731V42.6277H216.151V41.938H212.499V42.6277H213.919V46.2385Z" fill="#00A4EF"/>
<path d="M217.814 46.2385H218.585V41.938H217.814V46.2385Z" fill="#00A4EF"/>
<path d="M225.523 46.2385V41.938H224.874L223.17 44.778L221.466 41.938H220.817V46.2385H221.587V43.4391L223.007 45.7517H223.332L224.793 43.3986V46.2385H225.523Z" fill="#00A4EF"/>
<path d="M228.525 45.5894V44.3723H230.635V43.7231H228.525V42.5871H230.919V41.938H227.754V46.2385H231V45.5894H228.525Z" fill="#00A4EF"/>
<defs>
<radialGradient id="paint0_radial" cx="0" cy="0" r="1" gradientUnits="userSpaceOnUse" gradientTransform="translate(33.6438 13.3335) rotate(47.0708) scale(78.5058 81.3496)">
<stop stop-color="white"/>
<stop offset="1" stop-color="#7FBA00"/>
</radialGradient>
</defs>
</svg>
