<svg width="91" height="110" viewBox="0 0 91 110" fill="none" xmlns="http://www.w3.org/2000/svg">
<path d="M44.1945 0.740479C27.6673 14.2061 0.213638 19.5191 0.213638 19.5191V48.5573C0.213638 91.4275 44.1945 107.916 44.1945 107.916C44.1945 107.916 88.1755 91.4275 88.1755 48.5573L90.3791 21.2596L88.1755 19.6107C88.1755 19.5191 60.7218 14.2061 44.1945 0.740479Z" fill="#F0F0FC"/>
<path d="M46.3982 2.3894C29.7791 15.8551 2.32547 21.2596 2.32547 21.2596V50.2978C2.32547 93.168 46.3064 109.657 46.3064 109.657C46.3064 109.657 90.2873 93.168 90.2873 50.2978V21.2596C90.3791 21.2596 62.9255 15.8551 46.3982 2.3894Z" fill="url(#paint0_linear)"/>
<path d="M46.3982 97.1983C42.7255 95.2746 36.9409 91.9769 31.2482 87.0304C19.5873 76.7708 13.6191 64.4044 13.6191 50.2059V30.0533C22.1582 27.6716 35.1045 23.2746 46.3064 16.2212C57.6 23.2746 70.5464 27.6716 79.0854 30.0533V50.2059C79.0854 77.8701 55.8554 92.4349 46.3982 97.1983Z" fill="url(#paint1_linear)"/>
<path d="M77.5245 29.687V49.5649C77.5245 77.1374 54.4782 91.7023 44.9291 96.5572C45.3882 96.832 45.9391 97.1069 46.3982 97.2901C55.9472 92.5267 79.0854 77.9618 79.0854 50.2977V30.145C78.5345 29.9618 78.0754 29.7786 77.5245 29.687Z" fill="#F0F0FC"/>
<path d="M28.31 53.5954C31.0645 55.1527 33.5436 56.9847 36.0227 58.8168C38.5018 60.6488 40.7973 62.5725 43.0927 64.5878H39.2364C41.44 62.1145 43.6436 59.6412 46.0309 57.3511C48.3264 55.0611 50.7136 52.6794 53.1927 50.5725C55.6718 48.374 58.2427 46.2672 60.8136 44.2519C63.4764 42.2366 66.1391 40.313 69.1691 38.5725C67.4245 41.5038 65.4964 44.2519 63.4764 46.9084C61.4564 49.5649 59.3445 52.0382 57.1409 54.5114C54.9373 56.9847 52.6418 59.3664 50.3464 61.6565C48.0509 63.9466 45.5718 66.2366 43.0927 68.4351L40.9809 70.2672L39.3282 68.4351C37.3082 66.145 35.38 63.8549 33.5436 61.3817C31.6155 58.8168 29.8709 56.3435 28.31 53.5954Z" fill="white"/>
<defs>
<linearGradient id="paint0_linear" x1="2.90889" y1="4.10674" x2="115.494" y2="66.0322" gradientUnits="userSpaceOnUse">
<stop stop-color="#AAD6FF"/>
<stop offset="1" stop-color="#2E8ACB"/>
</linearGradient>
<linearGradient id="paint1_linear" x1="13.6105" y1="56.7047" x2="79.0943" y2="56.7047" gradientUnits="userSpaceOnUse">
<stop stop-color="#144188"/>
<stop offset="0.998" stop-color="#102465"/>
</linearGradient>
</defs>
</svg>
