<svg width="110" height="110" viewBox="0 0 110 110" fill="none" xmlns="http://www.w3.org/2000/svg">
<mask id="mask0" mask-type="alpha" maskUnits="userSpaceOnUse" x="0" y="0" width="110" height="110">
<path d="M109.924 55.0378C109.924 85.4296 85.2784 110 54.9622 110C30.4674 110 9.75258 93.9725 2.64605 71.8213C0.907217 66.5292 0 60.8591 0 54.9622C0 24.5704 24.5704 0 54.9622 0C66.756 0 77.7182 3.70447 86.6392 10.055C100.777 20.0344 109.924 36.4399 109.924 55.0378Z" fill="#2C5D99"/>
</mask>
<g mask="url(#mask0)">
<path d="M109.924 55.0378C109.924 85.4296 85.2784 110 54.9622 110C30.4674 110 9.75258 93.9725 2.64605 71.8213C0.907217 66.5292 0 60.8591 0 54.9622C0 24.5704 24.5704 0 54.9622 0C66.756 0 77.7182 3.70447 86.6392 10.055C100.777 20.0344 109.924 36.4399 109.924 55.0378Z" fill="url(#paint0_linear)"/>
<path d="M47.0998 53.6008L44.4537 55.642L42.1101 61.9169L41.1273 64.6386L38.5568 65.6214L33.4915 74.3156L31.6771 74.9204V77.1128L27.2922 81.1197L25.4778 89.0578L28.653 94.5011L24.5705 95.2571L21.3197 93.2159L19.1272 86.6386L19.4296 68.4942L19.5809 62.3705L15.4228 60.4049L9.97948 50.5011L14.2132 45.1334L13.6083 42.4874L12.2475 43.0166L9.14787 41.429L2.49495 36.7417L1.28532 38.7073L-4.61159 35.4565V33.7176L-9.82808 23.7382L-8.24045 32.7348L-9.14767 32.886L-14.4398 20.7142L-15.8762 15.6489L-15.8006 14.9685L-13.9106 5.66951L-16.481 -3.70507L-18.371 -9.37517L-22.9827 -13.004L-37.9518 -4.61228L-38.859 -5.5951L-30.7697 -10.5092L-35.3057 -14.8185L-30.9965 -19.2034H-28.804L-27.5188 -21.0178L-30.8453 -21.925L-31.6013 -24.3442L-27.5188 -24.8735L-27.5944 -22.681L-25.7044 -23.9662L-26.3092 -28.5779L-17.237 -31.7532L-8.61846 -23.5126L-1.96554 -24.949L2.26814 -20.8666L4.15818 -18.2205L8.99666 -19.4301L12.7011 -17.2377L14.8936 -18.2205L16.6324 -22.0762L19.5052 -28.0487L22.2269 -26.8391L17.9932 -19.5814L18.1444 -18.9765L18.8248 -16.2549L21.6977 -18.2205L22.6049 -15.7257L21.5465 -13.382L17.6152 -11.492L11.5671 -6.88032L10.8867 -2.26863L13.8351 -0.000593185L15.196 1.05782L18.1444 2.11625L20.7905 -0.681013L20.3369 -6.57791L23.2097 -8.54355L26.1582 -6.12431L27.3678 -2.79784L29.5602 -5.06588V-3.85627L31.4503 1.13343L34.1719 4.53549L32.0551 6.42552L26.5362 7.25713L26.2338 9.52517L28.0482 10.0544L29.1066 11.8688L26.3094 13.0028L24.5705 12.6248L19.0516 16.6317L18.976 19.2777L14.1376 23.209L12.8523 29.3327H12.3231L10.8111 25.6283L7.33343 25.1747L1.05852 27.2915L0.453705 32.7348L3.62896 34.6248L6.80422 32.3568L8.08944 32.6592L6.95543 36.7417L9.90388 37.0441L9.97948 39.3121L12.3987 41.5802L13.2303 40.5217L15.2716 41.5802L18.5224 40.2949L30.0138 41.1266L33.7939 46.7967L42.4125 47.4015L46.3437 51.3327L47.0998 53.6008Z" fill="#028ED8"/>
<path d="M34.4739 10.7348L32.9619 11.642L29.7867 9.6764L33.2643 6.42554L34.4739 10.7348Z" fill="#028ED8"/>
<path d="M177.058 -22.4543L178.646 -20.3375L176.529 -15.8014L173.43 -12.7017L175.244 -10.3581L175.849 -0.454308L174.337 0.906517L168.742 -8.01445L170.708 -17.9182L167.003 -16.633L167.23 -12.9285L165.34 -10.5849H162.316L159.443 -9.45087L158.46 -3.40276L161.333 -3.55396L163.072 0.150505L164.887 6.19862L161.863 11.3395L159.897 11.4151L158.763 14.1368L160.955 19.2021L159.67 20.9409L156.041 15.1196L152.488 13.4564L151.43 16.556L153.471 18.2948L155.814 26.233L153.471 30.2398L149.539 31.7519L147.271 33.1127L147.801 39.69L145.684 41.3533L144.474 39.4632L142.509 38.7072L142.584 39.9168L146.364 46.5697L144.625 47.9306L140.392 41.5801L140.77 38.4804L139.333 36.5148L138.88 36.3636L134.495 31.7519L129.278 35.6832L127.464 42.6385L126.027 43.3189L120.584 33.7931L118.165 29.8618L108.639 27.5182L105.842 23.5869L104.481 24.4942L107.278 29.635H109.849L113.024 31.9031L111.058 34.3979L102.137 37.8L96.0893 30.0887L94.2749 32.0543L100.777 39.2364L106.749 38.4048L110.076 41.1265L100.701 48.6866L100.323 59.422L95.3333 62.446L93.4432 67.5113L84.6735 75.4495L81.347 74.7691L77.1889 58.8928L79.0034 54.6591L76.3573 48.4598L75.2233 45.7381L62.9003 46.6454L57.3814 41.1265L56.323 34.3979L61.4639 26.233L64.4879 22.3017L72.1993 21.5457L76.8865 21.0921L76.7353 23.0577L80.4398 24.6453L84.5223 23.7381L93.5189 24.721L94.5017 20.5629L89.6632 20.8653L86.7147 17.8412L87.6975 21.0921L83.9931 21.5457L82.103 15.6488L80.4398 14.1368L79.3058 15.6488L81.6494 19.2021L78.701 20.1093L77.7182 19.2021L78.7766 17.69L75.7525 13.9856L71.4432 16.934L70.6872 17.3876L69.2508 19.6557L65.4707 20.9409L62.9003 20.3361L64.0343 14.666L68.268 14.7416L68.8728 12.6247L67.4364 11.6419L66.756 10.0543L70.0824 8.31546L71.3676 7.63504L73.2577 4.76219L72.2749 3.02336L74.9965 0.755318L77.1889 5.4426L80.969 3.85497L86.1099 -1.13472L86.7903 -2.26874L83.0103 -1.05912L82.103 -4.53678L84.5223 -6.88043L84.0687 -8.31685L80.4398 -5.822L79.6838 -1.66393L78.9278 1.36013L76.1305 0.604118L74.6941 -1.05912L71.67 -0.454308L70.7628 -3.85637L74.3917 -5.59521L75.2233 -11.4921L83.3883 -17.0866L95.1821 -10.5093L95.0309 -12.3237L95.8625 -12.7773L96.9965 -11.1897L101.155 -13.6089L102.364 -15.877L104.783 -14.5918L106.976 -16.255L105.161 -21.1691L108.942 -22.8323L111.436 -21.6227L116.426 -20.5643L113.629 -22.8323L113.1 -25.3272L115.594 -26.688L116.426 -31.0729L121.945 -34.0969L128.371 -32.6605L125.271 -25.3272L130.866 -28.578L136.763 -28.8048L140.392 -27.066L141.828 -29.4096L149.539 -31.9045L152.488 -30.6949L156.948 -31.9045L159.67 -30.2412L162.392 -31.5265L166.096 -33.1897L176.832 -32.2069L179.478 -30.3169L180.46 -27.7464L178.57 -26.9148L176.378 -26.2344L177.058 -22.4543Z" fill="#028ED8"/>
<path d="M17.7663 32.8104L14.5154 34.7005L9.45014 32.0544L8.46732 29.7864C8.46732 29.862 17.4639 32.8104 17.7663 32.8104Z" fill="#028ED8"/>
<path d="M22.0758 34.7764L20.7906 34.9276L17.1617 35.0033L18.6738 33.718L22.0758 34.7764Z" fill="#028ED8"/>
<path d="M70.5364 5.97234L69.7803 6.42595L66.0003 8.69399L66.3027 0.453434L67.7391 -1.05859L69.1755 2.57027L70.5364 5.97234Z" fill="#028ED8"/>
<path d="M104.784 57.9102L101.457 60.4806L100.323 65.3947L103.045 67.5115L104.935 62.295L104.784 57.9102Z" fill="#028ED8"/>
</g>
<path d="M29.774 41.5712C29.774 37.9157 26.6077 35.0725 22.8658 35.0725C18.9799 35.0725 15.9576 38.0511 15.9576 41.5712C15.9576 41.7066 15.9576 41.9773 15.9576 41.9773C16.1015 43.602 22.8658 56.3285 22.8658 56.3285C22.8658 56.3285 29.6301 43.602 29.774 41.9773C29.774 41.8419 29.774 41.7066 29.774 41.5712ZM23.0097 44.4144C20.9948 44.4144 19.4117 42.9251 19.4117 41.0296C19.4117 39.1342 20.9948 37.6449 23.0097 37.6449C25.0246 37.6449 26.6077 39.1342 26.6077 41.0296C26.6077 42.7897 25.0246 44.4144 23.0097 44.4144Z" fill="#FFB900"/>
<path opacity="0.2" d="M109.924 55.038C109.924 85.4297 85.2784 110 54.9623 110C30.4674 110 9.75265 93.9727 2.64612 71.8215C70.4606 66.1514 84.22 29.5603 86.7149 10.0552C100.777 20.0346 109.924 36.4401 109.924 55.038Z" fill="#288CA3"/>
<path d="M88.5294 42.6397C88.5294 40.5985 86.8661 38.8596 84.9005 38.8596C82.9349 38.8596 81.2716 40.7496 81.2716 42.7153C81.2716 42.7909 81.2716 43.1689 81.2716 43.1689V42.8665C81.3472 43.7737 84.9005 50.729 84.9005 50.729C84.9005 50.729 88.4538 43.9249 88.5294 42.9421V43.1689C88.5294 43.0933 88.5294 42.6397 88.5294 42.6397ZM84.9761 43.8493C83.9177 43.8493 83.0861 43.0177 83.0861 41.9593C83.0861 40.9008 83.9177 40.0692 84.9761 40.0692C86.0345 40.0692 86.8661 40.9008 86.8661 41.9593C86.8661 43.0177 86.0345 43.8493 84.9761 43.8493Z" fill="#FFB900"/>
<path d="M34.9061 59.0457C34.9061 57.0045 33.2429 55.2656 31.2773 55.2656C29.3116 55.2656 27.6484 57.1556 27.6484 59.1213C27.6484 59.1969 27.6484 59.5749 27.6484 59.5749V59.2725C27.724 60.1797 31.2773 67.135 31.2773 67.135C31.2773 67.135 34.8305 60.3309 34.9061 59.3481V59.5749C34.9061 59.4993 34.9061 59.0457 34.9061 59.0457ZM31.3529 60.2553C30.2945 60.2553 29.4628 59.4237 29.4628 58.3653C29.4628 57.3068 30.2945 56.4752 31.3529 56.4752C32.4113 56.4752 33.2429 57.3068 33.2429 58.3653C33.2429 59.4237 32.4113 60.2553 31.3529 60.2553Z" fill="#FFB900"/>
<path d="M76.5373 25.0266C76.5373 23.5644 75.3195 22.3188 73.8803 22.3188C72.4411 22.3188 71.2233 23.6727 71.2233 25.0808C71.2233 25.1349 71.2233 25.4057 71.2233 25.4057V25.1891C71.2786 25.839 73.8803 30.8213 73.8803 30.8213C73.8803 30.8213 76.4819 25.9473 76.5373 25.2432V25.4057C76.5373 25.3515 76.5373 25.0266 76.5373 25.0266ZM73.9356 25.8931C73.1607 25.8931 72.5518 25.2974 72.5518 24.5392C72.5518 23.781 73.1607 23.1853 73.9356 23.1853C74.7106 23.1853 75.3195 23.781 75.3195 24.5392C75.3195 25.2974 74.7106 25.8931 73.9356 25.8931Z" fill="#FFB900"/>
<path d="M86.1025 10.1475C86.1025 8.68527 84.8847 7.4397 83.4455 7.4397C82.0063 7.4397 80.7885 8.79357 80.7885 10.2016C80.7885 10.2558 80.7885 10.5266 80.7885 10.5266V10.3099C80.8438 10.9598 83.4455 15.9421 83.4455 15.9421C83.4455 15.9421 86.0471 11.0681 86.1025 10.3641V10.5266C86.1025 10.4724 86.1025 10.1475 86.1025 10.1475ZM83.5008 11.014C82.7259 11.014 82.117 10.4182 82.117 9.66006C82.117 8.90188 82.7259 8.30617 83.5008 8.30617C84.2758 8.30617 84.8847 8.90188 84.8847 9.66006C84.8847 10.4182 84.2758 11.014 83.5008 11.014Z" fill="#FFB900"/>
<defs>
<linearGradient id="paint0_linear" x1="-0.0143565" y1="54.9932" x2="109.939" y2="54.9932" gradientUnits="userSpaceOnUse">
<stop stop-color="#144188"/>
<stop offset="0.998" stop-color="#102465"/>
</linearGradient>
</defs>
</svg>
