<svg width="74" height="135" viewBox="0 0 74 135" fill="none" xmlns="http://www.w3.org/2000/svg">
<path d="M71.4686 54.7381L58.3177 62.3157C57.34 62.8535 55.6778 62.8046 54.5534 62.1691L41.9403 54.8848C40.8159 54.2492 40.7181 53.2715 41.647 52.7337L54.7978 45.1561C55.7756 44.6183 57.4377 44.6672 58.5622 45.3028L71.1752 52.587C72.2997 53.2226 72.4463 54.2003 71.4686 54.7381Z" fill="#FFD566"/>
<path d="M72.1044 102.011V53.9546C72.0555 54.2479 71.86 54.4924 71.4689 54.7368L58.3181 62.3144C57.8781 62.5589 57.2425 62.7055 56.5581 62.7055V111.104C57.1936 111.104 57.8292 111.007 58.3181 110.713L71.4689 103.136C71.9578 102.842 72.1533 102.451 72.1044 102.011Z" fill="#FFC733"/>
<path d="M54.5534 62.1677L41.9404 54.8834C41.4026 54.5901 41.1093 54.199 41.0604 53.8079V101.865C40.9626 102.354 41.2559 102.891 41.9404 103.282L54.5534 110.567C55.1401 110.909 55.8734 111.056 56.5578 111.104V62.7054C55.8734 62.7054 55.1401 62.5099 54.5534 62.1677Z" fill="#E2A400"/>
<path d="M50.7402 83.3865L37.5893 90.9642C36.6116 91.5019 34.9494 91.453 33.825 90.8175L21.2119 83.5332C20.0875 82.8977 19.9897 81.9199 20.9186 81.3821L34.0694 73.8045C35.0472 73.2668 36.7094 73.3157 37.8338 73.9512L50.4468 81.2355C51.5713 81.8221 51.669 82.7999 50.7402 83.3865Z" fill="#2C69C1"/>
<path d="M51.3265 113.942V82.6052C51.2777 82.8986 51.0821 83.143 50.691 83.3874L37.5402 90.9651C37.1002 91.2095 36.4646 91.3562 35.7802 91.3562V123.035C36.4158 123.035 37.0513 122.938 37.5402 122.644L50.691 115.067C51.2288 114.773 51.4243 114.382 51.3265 113.942Z" fill="#2B58A6"/>
<path d="M33.825 90.8171L21.2119 83.5328C20.6741 83.2395 20.3808 82.8484 20.3319 82.4573V113.794C20.2342 114.283 20.5275 114.821 21.2119 115.212L33.825 122.496C34.4116 122.839 35.1449 122.985 35.8294 123.034V91.3549C35.0961 91.306 34.3627 91.1593 33.825 90.8171Z" fill="#133A7F"/>
<path d="M30.4519 107.146L17.3011 114.723C16.3233 115.261 14.6611 115.212 13.5367 114.577L0.923633 107.292C-0.200788 106.657 -0.298566 105.679 0.630303 105.141L13.7811 97.5638C14.7589 97.026 16.4211 97.0749 17.5455 97.7105L30.1586 104.995C31.283 105.581 31.3808 106.559 30.4519 107.146Z" fill="url(#paint0_linear)"/>
<path d="M31.0383 125.673V106.362C30.9894 106.655 30.7939 106.9 30.4028 107.144L17.252 114.722C16.812 114.966 16.1764 115.113 15.492 115.113V134.766C16.1275 134.766 16.7631 134.668 17.252 134.375L30.4028 126.797C30.9406 126.504 31.1361 126.064 31.0383 125.673Z" fill="#719CE7"/>
<path d="M13.5365 114.575L0.923401 107.291C0.385635 106.997 0.0923062 106.606 0.0434183 106.215V125.526C-0.0543574 126.015 0.238971 126.552 0.923401 126.944L13.5365 134.228C14.1231 134.57 14.8564 134.717 15.5409 134.766V115.113C14.8075 115.064 14.0742 114.917 13.5365 114.575Z" fill="#4D85CA"/>
<path d="M51.4629 54.104L55.2762 56.304L48.0897 60.4594L44.2764 58.2595L51.4629 54.104Z" fill="url(#paint1_linear)"/>
<path d="M13.477 101.428L17.3392 103.628L10.1527 107.784L6.33942 105.535L13.477 101.428Z" fill="url(#paint2_linear)"/>
<path d="M34.6456 82.6543L38.4588 84.8543L31.2723 89.0097L27.459 86.8098L34.6456 82.6543Z" fill="url(#paint3_linear)"/>
<path d="M73.9999 15.2857L73.8043 2.23267L64.0268 14.6013L67.1556 14.7968L55.9114 44.6184L48.5782 27.7521L31.0275 79.231L21.201 65.6891L19.441 70.5779C19.3921 70.6757 16.0678 80.0621 12.7434 89.3997C5.75244 109.053 6.04577 109.102 5.85022 110.079C5.85022 110.079 10.0057 108.173 9.9568 108.222C10.3968 106.559 16.6544 88.9597 21.4454 75.6133L31.3697 89.3019L48.1871 39.9741L55.2758 56.3026L70.8222 15.0413L73.9999 15.2857Z" fill="url(#paint4_radial)"/>
<path d="M20.8098 77.5211L27.9474 87.3476L31.4184 89.3031L21.4942 75.6145C21.0542 76.7878 20.6142 78.1078 20.8098 77.5211Z" fill="url(#paint5_linear)"/>
<path d="M19.4898 70.6287L21.2497 65.7399L17.7787 63.7844L16.0187 68.6732C15.9698 68.771 12.6455 78.1574 9.3211 87.495C2.33014 107.148 2.62347 107.197 2.42792 108.175L5.89895 110.13C6.14339 109.201 5.85007 109.103 12.7921 89.4505C16.1165 80.064 19.4409 70.7265 19.4898 70.6287Z" fill="url(#paint6_linear)"/>
<path d="M67.1556 14.798L64.0756 14.6025L73.8043 2.23383L70.3333 0.27832L60.5557 12.6469L63.1956 14.1136L53.6625 39.4375L48.6271 27.7533L55.9114 44.6196L67.1556 14.798Z" fill="url(#paint7_linear)"/>
<path d="M48.6271 27.7533L45.1073 25.7975L28.241 75.3209L21.25 65.69L31.0765 79.2319L48.6271 27.7533Z" fill="url(#paint8_linear)"/>
<path d="M47.0626 43.3971L51.8048 54.348L55.2758 56.3035L48.236 39.975L47.0626 43.3971Z" fill="url(#paint9_linear)"/>
<defs>
<linearGradient id="paint0_linear" x1="0.206157" y1="97.4807" x2="22.1941" y2="123.092" gradientUnits="userSpaceOnUse">
<stop stop-color="#AAAAFF"/>
<stop offset="1" stop-color="#2E8ACB"/>
</linearGradient>
<linearGradient id="paint1_linear" x1="55.5519" y1="54.0878" x2="46.8737" y2="58.8696" gradientUnits="userSpaceOnUse">
<stop offset="0.0202918" stop-color="#5861D6"/>
<stop offset="0.9583" stop-color="white" stop-opacity="0"/>
</linearGradient>
<linearGradient id="paint2_linear" x1="8.51273" y1="106.836" x2="16.6607" y2="101.295" gradientUnits="userSpaceOnUse">
<stop offset="0.0202918" stop-color="#5861D6"/>
<stop offset="0.9583" stop-color="white" stop-opacity="0"/>
</linearGradient>
<linearGradient id="paint3_linear" x1="29.6508" y1="88.0831" x2="37.7987" y2="82.5425" gradientUnits="userSpaceOnUse">
<stop offset="0.0202918" stop-color="#5861D6"/>
<stop offset="0.9583" stop-color="white" stop-opacity="0"/>
</linearGradient>
<radialGradient id="paint4_radial" cx="0" cy="0" r="1" gradientUnits="userSpaceOnUse" gradientTransform="translate(39.91 56.203) rotate(-136.888) scale(4.70115 16.135)">
<stop offset="0.0338438" stop-color="#EDEDED"/>
<stop offset="1" stop-color="#A3D2FC"/>
</radialGradient>
<linearGradient id="paint5_linear" x1="20.8327" y1="75.8337" x2="34.7923" y2="83.123" gradientUnits="userSpaceOnUse">
<stop stop-color="#AAAAFF"/>
<stop offset="1" stop-color="#2E8ACB"/>
</linearGradient>
<linearGradient id="paint6_linear" x1="2.90133" y1="2.03703" x2="102.903" y2="45.6196" gradientUnits="userSpaceOnUse">
<stop stop-color="#AAAAFF"/>
<stop offset="1" stop-color="#2E8ACB"/>
</linearGradient>
<linearGradient id="paint7_linear" x1="2.90133" y1="2.03703" x2="102.903" y2="45.6196" gradientUnits="userSpaceOnUse">
<stop stop-color="#AAAAFF"/>
<stop offset="1" stop-color="#2E8ACB"/>
</linearGradient>
<linearGradient id="paint8_linear" x1="2.90133" y1="2.03703" x2="102.903" y2="45.6196" gradientUnits="userSpaceOnUse">
<stop stop-color="#AAAAFF"/>
<stop offset="1" stop-color="#2E8ACB"/>
</linearGradient>
<linearGradient id="paint9_linear" x1="2.90133" y1="2.03703" x2="102.903" y2="45.6196" gradientUnits="userSpaceOnUse">
<stop stop-color="#AAAAFF"/>
<stop offset="1" stop-color="#2E8ACB"/>
</linearGradient>
</defs>
</svg>
