<svg width="233" height="233" viewBox="0 0 233 233" fill="none" xmlns="http://www.w3.org/2000/svg">
<path fill-rule="evenodd" clip-rule="evenodd" d="M187.492 102.906V102.758C187.344 102.018 187.64 103.203 187.64 103.203C187.196 103.054 187.64 102.906 187.492 102.906ZM174.308 76.0937C186.159 90.1666 193.27 108.387 193.27 128.386C193.27 128.534 193.27 128.978 193.27 129.719C193.27 129.423 193.122 129.126 193.122 128.089C193.122 125.867 193.122 127.201 193.122 125.571C192.825 123.645 192.825 123.645 192.529 121.572C192.381 120.831 192.381 119.942 192.233 119.349C192.085 118.313 191.936 118.164 191.788 117.276C191.492 115.942 191.64 116.387 191.344 115.646C191.196 115.35 191.196 115.35 191.048 115.054C190.899 114.461 190.899 114.461 190.751 114.165C191.048 115.498 191.196 116.239 191.492 117.276C192.085 119.053 191.788 118.313 191.936 120.535C192.233 121.127 192.233 121.275 192.381 122.164C192.529 123.053 192.529 123.645 192.677 124.386C192.825 125.571 192.825 125.571 192.973 126.756C192.973 127.497 192.973 127.497 193.122 127.941C193.122 128.682 193.122 132.089 193.27 131.052C193.27 133.422 192.973 135.644 192.825 138.015C192.677 138.459 192.677 139.052 192.529 139.644C192.233 140.829 191.788 143.051 191.492 144.681C191.344 145.866 190.899 147.495 190.751 148.532C190.455 149.866 189.863 152.236 189.27 153.717C188.974 154.458 188.974 154.606 188.677 155.347C188.529 155.939 188.381 156.235 188.085 156.828C187.492 158.309 187.492 158.309 187.048 159.643C186.604 160.828 186.604 160.828 186.159 161.568C186.011 162.013 185.715 162.753 185.567 163.05C184.826 164.531 185.27 163.494 184.826 164.383C184.233 165.716 184.678 164.975 183.493 166.901C182.604 168.679 183.196 167.642 182.159 169.271C181.122 170.456 181.715 169.716 180.826 170.605C180.53 171.197 180.53 171.197 180.234 171.642C179.641 172.086 179.345 172.234 179.641 171.493C180.086 170.308 180.086 170.901 180.234 170.16C180.234 170.012 180.234 170.012 180.234 170.012C180.234 169.864 180.234 169.864 180.234 169.716C180.382 168.975 180.53 168.234 180.53 167.346C180.382 166.753 181.419 163.79 181.419 162.309C181.122 158.161 180.974 158.902 183.493 153.865C183.493 151.495 183.493 151.495 183.345 149.273C183.345 148.68 183.345 148.977 183.493 148.384C183.641 145.421 181.567 146.458 182.604 143.051C182.9 142.162 183.196 140.385 183.048 139.496C182.456 138.903 182.159 139.2 181.419 138.903C180.382 138.311 180.826 138.015 180.53 136.533C178.16 136.533 178.16 138.015 176.827 138.459C176.086 138.607 175.197 138.311 174.308 138.459C171.79 139.2 173.419 142.459 170.012 136.978C169.716 136.533 169.864 136.681 169.568 136.385C169.568 136.385 169.42 136.385 169.42 136.237C167.642 133.422 167.642 133.422 165.716 130.46C165.864 129.423 166.013 129.275 166.161 128.534C165.716 128.238 165.568 127.941 164.828 127.645C165.568 126.46 166.457 126.016 166.457 124.238C166.161 120.386 165.716 119.201 166.753 115.498C167.494 113.128 167.79 115.646 168.087 112.239C169.272 112.387 169.272 111.795 169.864 111.054C171.346 109.424 169.864 107.943 170.753 106.61C171.642 105.425 171.642 106.462 172.234 105.721C172.531 104.832 172.531 104.832 172.975 103.943C174.308 104.832 174.605 104.98 175.641 104.24C176.53 103.943 176.53 103.943 177.271 103.647C178.604 103.499 182.159 102.906 182.604 105.721C182.752 106.462 182.752 106.61 182.604 107.202C182.456 107.202 182.456 107.35 182.456 107.499C183.937 109.424 184.085 108.832 185.122 110.165C185.715 110.609 185.715 110.609 186.159 111.202C186.307 111.35 186.455 111.498 186.752 111.795C186.9 111.054 186.752 109.869 187.048 109.276C187.492 109.424 188.085 110.313 188.529 111.054C188.826 111.35 188.826 111.35 189.122 111.646C189.714 112.091 189.418 111.646 189.863 112.683C189.863 112.535 189.863 112.535 189.863 112.387C190.011 111.795 189.863 112.091 190.751 112.535C190.603 110.461 190.751 111.35 190.159 108.239C188.826 107.35 189.566 107.054 188.974 107.647C187.937 105.425 187.64 105.573 187.492 102.906C187.048 102.61 187.048 102.61 186.604 102.314C186.604 102.906 186.604 102.906 186.455 103.499C186.604 103.647 186.604 103.647 186.752 103.943C187.048 104.24 187.048 104.24 187.196 104.388C187.048 105.721 187.196 103.499 187.048 104.832V104.98C186.9 105.573 187.196 105.721 186.455 105.425C186.307 104.98 186.455 105.425 186.307 104.98C185.567 103.054 185.567 103.054 184.826 101.277C183.937 98.9067 183.641 99.6473 181.419 95.3514C180.974 95.7958 181.122 95.9439 181.567 96.8328C182.604 99.0548 183.196 99.4992 184.233 101.277C184.53 101.573 184.678 101.721 184.974 102.166C184.826 102.462 184.678 102.314 184.382 102.166C184.382 103.203 184.826 103.499 184.233 103.795C183.641 102.166 184.382 103.351 183.493 101.869C183.196 101.277 182.9 100.684 182.308 100.092C180.53 98.166 181.419 98.9067 180.234 96.5365C179.493 96.9809 179.493 96.9809 178.9 97.4253C178.012 96.5365 178.456 96.6846 177.419 96.3883C177.123 97.129 177.123 98.0178 176.678 98.7585C176.382 99.0548 176.53 98.9067 176.382 99.0548C175.938 99.6473 175.79 99.4992 175.938 100.684C175.938 100.684 176.234 100.981 176.086 101.869C175.641 102.61 175.641 102.61 175.197 103.351C173.716 103.054 174.308 103.054 172.827 103.351C172.234 102.61 172.531 102.61 171.938 102.314C171.494 102.018 171.346 102.166 170.605 102.018C170.012 100.832 170.012 100.832 169.42 99.6473C169.864 98.0178 170.16 99.6473 169.864 96.6846C169.568 95.4995 169.272 95.0551 169.864 94.1663C171.346 94.1663 172.531 95.3514 174.012 95.6477C174.012 94.3144 174.16 93.5738 173.568 92.3887C172.679 90.4629 172.234 91.3517 171.494 89.8703C171.938 89.1297 171.642 89.7222 172.382 89.4259C173.568 88.9815 172.827 88.9815 172.827 88.9815C172.827 88.8334 172.827 88.8334 172.827 88.8334C172.827 88.6853 172.827 88.5371 172.827 88.5371C173.568 89.1297 174.012 89.1297 174.308 88.5371C174.753 87.6483 174.012 87.5002 175.641 87.9446C175.493 87.352 175.345 87.0558 175.493 86.7595C175.641 86.6114 175.641 86.6114 175.79 86.6114C176.086 86.4632 176.678 86.4632 177.123 86.4632C176.382 84.3893 176.234 85.2781 175.641 83.6486C175.79 83.3524 175.641 83.3524 176.234 83.6486C175.938 82.9079 175.197 82.0191 176.234 82.7598C176.382 83.6486 176.678 83.2042 176.975 84.5374C177.123 85.5744 177.271 85.5744 178.012 86.7595C178.604 87.2039 179.197 87.352 179.493 87.2039C180.234 87.2039 180.086 87.5002 180.974 87.9446C180.974 87.7964 180.826 87.352 180.678 86.9076C180.53 86.0188 180.086 85.5744 180.234 85.4263C180.678 85.8707 180.678 86.1669 181.122 86.3151C181.122 86.3151 180.974 86.1669 180.974 86.3151C180.826 85.8707 180.826 85.8707 180.53 85.5744C180.53 85.2781 180.234 85.13 180.234 84.8337C180.086 84.3893 180.678 85.13 181.122 85.7225C179.789 83.6486 180.678 85.2781 179.197 83.5005C178.604 82.4635 178.16 81.7229 177.567 80.5378C177.715 80.6859 177.715 80.6859 177.715 80.5378C177.715 80.3896 177.715 80.3896 177.715 80.3896C177.123 79.6489 176.975 79.3527 176.53 78.9083C176.975 79.6489 177.123 79.7971 177.271 80.0934C177.271 80.5378 176.678 79.7971 176.827 80.2415C177.419 81.7229 178.012 81.871 178.9 83.9449C178.752 84.2412 178.9 84.3893 178.9 84.9819C179.049 85.4263 178.752 86.0188 178.604 86.0188C177.863 85.4263 178.604 86.1669 178.012 85.13C177.123 83.7968 177.123 83.7968 176.382 82.3154C175.049 81.4266 175.493 82.3154 174.308 81.7229C173.568 80.3896 173.568 80.3896 172.827 79.2045C170.901 76.39 173.123 77.8713 173.419 77.2788C173.716 76.2418 173.271 75.9455 173.419 75.5011C173.419 75.2049 174.012 75.7974 174.308 75.9455C174.308 75.9455 174.16 75.7974 174.308 76.0937ZM97.1293 60.5394C99.2032 60.6875 99.2032 60.3912 100.092 59.5024C100.981 59.7987 101.129 59.9468 101.277 60.6875C100.981 60.9838 100.536 61.1319 100.092 61.5763C97.4255 61.1319 102.314 62.0207 99.3513 61.2801C99.2032 61.2801 98.9069 61.1319 98.7588 61.1319C97.4255 60.9838 97.5737 61.8726 95.6479 62.0207C92.6852 62.4651 92.9814 61.5763 91.5001 61.5763C90.315 62.317 90.6113 62.4651 89.8706 63.2058C89.1299 63.0577 88.6855 62.7614 88.0929 62.1689C87.3523 62.6133 87.3523 62.6133 86.4634 62.9096V62.7614C86.3153 62.4651 86.3153 62.4651 86.1672 62.1689C85.4265 61.4282 83.2044 62.317 82.0194 62.0207C80.0936 61.7245 81.1305 61.8726 79.6492 62.1689C79.6492 62.317 79.501 62.317 79.501 62.317C78.6122 62.4651 78.6122 62.4651 77.7234 62.6133C77.4271 62.4651 77.279 62.1689 76.9827 61.8726C75.6495 62.7614 75.9458 63.0577 74.1681 63.6502C74.9088 63.0577 74.9088 63.0577 75.6495 62.4651C73.8719 62.6133 72.2424 64.3909 71.5017 65.1316C69.1315 65.1316 69.1315 65.1316 67.0576 65.1316C66.0206 65.1316 65.8725 65.7241 64.5393 65.8723C63.3542 66.1686 63.7986 66.0204 62.3172 66.7611C62.1691 66.4648 62.3172 66.4648 62.021 66.3167C61.1322 66.9092 61.5766 66.7611 60.6877 67.2055C60.5396 67.0574 60.5396 67.0574 60.3915 66.9092C59.5027 67.5018 58.9101 67.9462 58.3176 68.3906C57.2806 69.1313 58.6138 68.2425 57.2806 69.1313C57.1325 69.2794 56.6881 69.4275 56.3918 69.7238C55.9474 70.1682 55.9474 70.1682 55.3548 70.9089C54.1697 71.6496 54.1697 71.5015 53.2809 72.5384C52.8365 73.4272 54.3179 72.3903 54.7623 72.5384C53.4291 73.8716 52.9847 73.5754 52.3921 73.8716C51.5033 74.9086 51.9477 74.316 50.9108 75.2049C50.9108 75.5011 50.9108 75.5011 50.7626 75.9455C50.7626 76.8344 51.9477 75.6493 52.9847 74.7605C52.0958 75.9455 51.7996 76.2418 50.9108 76.9825H50.7626C49.2813 78.1676 50.0219 77.7232 48.5406 79.2045C48.5406 79.5008 48.5406 79.5008 48.5406 79.5008C48.5406 79.5008 48.5406 79.5008 48.5406 79.6489C48.5406 80.0934 48.3924 79.6489 47.948 80.834C48.5406 80.834 48.5406 80.834 49.2813 80.0934C47.5036 83.0561 48.2443 81.871 50.0219 80.9822C49.5775 83.5005 45.726 85.13 44.5409 87.2039C45.726 88.0927 50.0219 82.3154 51.7996 80.9822C51.5033 81.5747 51.207 81.7229 50.9108 82.4635C51.0589 82.4635 51.0589 82.4635 51.3552 82.6117C51.5033 82.3154 51.9477 82.0191 52.0958 81.7229C52.244 81.2784 52.244 81.4266 52.244 81.1303C52.3921 80.6859 51.6514 80.834 52.8365 79.2045C53.7253 78.3157 53.7253 78.3157 54.6142 77.4269C55.3548 76.5381 55.3548 76.39 56.0955 76.5381C55.0586 77.575 54.466 77.575 54.0216 78.9083C53.8735 79.0564 53.8735 79.0564 53.8735 79.2045C54.6142 79.3527 55.0586 78.7601 55.9474 78.0194C56.9843 76.8344 56.5399 77.1306 57.4287 75.9455C58.0213 75.9455 58.1694 76.0937 58.4657 76.39C58.762 76.9825 58.4657 76.0937 58.4657 76.6862C60.2433 76.2418 59.9471 75.9455 60.8359 76.6862C62.021 76.9825 62.021 76.9825 63.2061 77.2788C64.0949 77.4269 63.6505 78.612 65.1318 79.5008C64.6874 80.3896 64.6874 80.6859 64.8356 81.4266C64.9837 81.4266 64.9837 81.4266 64.9837 81.4266C65.8725 82.9079 65.28 83.7968 66.3169 84.5374C65.4281 86.0188 66.0206 84.5374 65.5762 85.7225C64.9837 87.7964 67.7983 85.5744 65.1318 91.9443C63.3542 96.5365 62.6135 98.9067 64.6874 100.24C64.3911 101.129 64.3911 101.129 64.0949 102.166C65.5762 103.351 64.5393 102.906 65.28 104.091C65.8725 104.832 66.9095 104.98 67.6501 105.425C67.0576 109.128 67.3539 108.684 69.1315 110.758C68.8352 111.943 68.9834 111.943 68.2427 112.535C69.5759 114.017 70.4647 113.128 70.9091 115.498C71.3535 117.424 71.5017 118.313 73.5756 118.609C73.5756 117.276 72.2424 113.868 71.6498 112.831C70.6129 111.202 69.5759 110.609 69.5759 107.647C70.6129 108.239 69.7241 107.647 70.4647 108.387L71.0573 109.128C71.798 110.461 71.5017 111.202 72.8349 112.98C73.4275 114.313 73.4275 114.313 74.1681 115.646C75.9458 118.609 76.3902 117.72 76.5383 121.868C77.7234 122.757 78.9085 123.497 79.7973 124.09C83.5007 126.904 83.0563 126.608 87.056 126.756C89.4262 126.756 88.8336 127.941 89.8706 128.83C92.0926 130.608 93.574 127.793 95.796 133.571C96.6848 135.496 97.1293 134.904 98.6106 136.385C99.6476 136.83 99.6476 136.83 100.536 137.274C101.425 137.57 101.277 137.57 102.462 137.718C102.907 136.83 102.166 138.607 102.758 137.126C103.203 136.089 102.61 136.978 103.203 136.385C105.129 137.866 105.573 139.644 105.425 142.903C105.129 143.051 104.536 143.496 104.24 143.644C99.6476 148.68 101.277 148.088 102.314 150.754C100.981 151.347 101.129 150.606 100.833 152.384C100.536 154.31 102.314 154.161 103.203 156.384C104.684 159.346 104.684 159.346 106.166 162.457C106.906 164.235 107.054 164.531 108.832 165.716C110.165 166.605 111.498 166.605 112.535 167.938C114.461 170.308 113.424 172.678 113.276 174.456C113.276 175.641 114.017 174.456 113.572 176.234C113.128 179.196 111.647 181.27 112.239 183.641C113.276 188.233 110.61 187.196 111.795 190.603C111.943 191.64 111.795 192.677 112.091 193.418C112.387 193.714 112.387 193.714 112.535 194.01C113.572 195.343 112.091 195.936 112.239 196.973C112.535 198.158 112.98 196.677 112.535 198.158C112.091 199.343 112.535 199.343 113.572 200.232C115.35 201.417 115.35 201.417 116.98 202.306C117.572 201.417 117.72 202.158 118.016 201.121C118.165 200.824 118.016 199.936 118.016 199.639C118.905 198.899 118.461 199.639 119.053 198.75C120.979 195.788 119.794 197.417 118.609 195.936C119.202 195.195 119.053 195.788 119.942 194.899C122.609 192.677 120.831 192.825 120.387 191.344C123.498 191.492 122.757 192.677 123.201 189.566C124.683 189.27 125.72 189.122 126.905 188.529C127.201 188.233 128.238 187.937 128.09 186.9C128.09 186.751 127.942 186.307 127.793 186.159C127.497 185.863 127.497 185.863 127.349 185.566C126.757 184.826 127.053 186.159 126.905 184.974C129.571 184.826 130.904 186.603 132.386 180.678C132.83 181.567 132.386 181.715 133.274 181.715C134.163 180.233 134.163 180.233 135.052 178.752C135.793 177.715 135.645 176.086 136.237 175.049C136.533 174.752 136.83 174.456 137.274 174.16C138.756 172.678 141.274 172.086 142.903 171.79C143.2 170.012 143.792 169.123 144.533 167.049C145.718 163.938 144.977 165.124 145.422 161.716C145.57 161.124 149.273 156.384 149.718 155.05C150.014 154.161 150.014 154.754 149.866 153.865C149.273 151.495 148.681 151.643 146.755 150.162C144.533 148.384 142.163 149.273 141.126 148.68C140.533 147.94 140.237 147.051 138.756 147.051C138.756 147.051 138.756 147.051 138.607 147.051C136.978 146.903 136.682 147.347 136.385 148.384C136.089 147.347 136.089 147.347 135.793 146.458C133.867 146.607 134.015 147.199 132.83 148.384C134.163 144.977 136.385 146.162 133.571 141.866C131.201 138.311 130.015 138.459 127.793 139.496C127.201 138.163 126.164 137.422 124.979 136.385C123.942 135.348 124.386 136.385 123.498 135.052C122.905 134.163 123.349 134.904 123.053 133.867C122.757 133.126 123.053 133.571 122.757 132.978C120.09 132.83 120.831 133.422 119.053 133.719C115.646 134.163 115.794 131.645 110.61 131.052C109.425 133.422 108.98 131.348 106.462 135.348C106.166 135.941 106.166 135.941 105.869 136.385C105.277 135.644 104.684 134.904 103.351 134.756C101.277 134.311 102.758 135.2 100.536 135.2C97.7218 134.163 98.7588 129.571 99.4994 127.793C97.4255 126.016 97.2774 126.312 94.9072 126.904C94.1665 123.794 96.6848 120.831 95.6479 119.794C94.9072 118.757 92.9814 119.349 92.2408 120.09C91.9445 120.535 91.3519 122.164 91.0557 122.757C88.6855 123.349 87.6485 123.349 85.7228 122.46C84.8339 119.349 84.5377 117.127 85.4265 113.72C85.7228 112.387 88.6855 109.128 89.1299 109.128C89.278 109.128 89.278 109.128 89.4262 109.128C90.315 109.276 89.4262 109.276 90.9075 109.869C91.3519 109.424 91.3519 109.424 91.6482 108.98C91.7963 109.128 91.7963 109.128 91.9445 109.276C91.9445 109.276 92.0926 109.424 92.0926 109.572C92.6852 109.869 92.6852 109.869 93.1296 110.165C96.0923 110.758 91.9445 107.35 99.055 108.536C101.425 108.98 100.833 110.165 101.129 112.683C101.277 113.276 102.907 116.535 103.944 115.794C105.869 113.128 100.981 107.795 104.388 105.277C105.277 104.536 105.277 104.536 106.166 103.795C108.091 102.314 111.202 101.869 109.276 98.7585C110.462 97.7216 110.313 98.3141 110.906 96.6846C111.647 95.7958 111.647 95.7958 112.239 94.907C112.239 94.907 112.387 94.907 112.387 94.7588C114.609 93.2775 113.128 94.3144 115.35 93.5738C117.424 92.8331 115.498 93.4256 115.943 91.0554C117.276 90.3148 118.757 90.0185 119.794 89.1297C121.127 87.9446 120.387 87.352 123.201 86.9076C122.609 88.9815 120.831 88.0927 120.535 89.4259C120.09 91.3517 120.387 90.0185 120.831 90.611C122.164 90.9073 122.609 89.7222 123.498 89.2778C125.423 88.0927 125.571 89.2778 126.164 87.352C125.72 87.0558 123.498 86.6114 123.053 86.3151C121.275 85.13 122.609 85.13 122.609 84.2412C122.609 82.0191 119.35 84.3893 118.165 84.5374C119.202 83.0561 120.09 83.5005 121.127 82.1673C128.83 83.2042 126.016 82.3154 128.979 81.4266C129.719 81.2784 130.015 81.4266 131.201 81.2784C131.201 80.3896 131.349 79.2045 130.756 78.4639C130.164 77.575 129.571 78.7601 128.534 78.0194C128.979 77.4269 128.979 77.4269 129.423 76.8344C128.386 76.2418 127.793 76.39 127.201 75.9455C126.164 74.4642 126.757 73.8716 126.164 72.9828C125.868 72.2421 125.868 72.3903 125.571 71.9459C125.275 71.7977 125.275 71.7977 124.979 71.5015L124.831 71.3533C124.534 70.7608 124.534 70.7608 124.09 70.3164C122.164 71.2052 123.646 72.6865 119.794 72.094C119.202 70.3164 119.498 70.3164 120.239 69.1313C118.313 68.6869 118.165 68.3906 117.424 67.3536C114.165 67.0574 114.017 66.7611 113.276 66.7611C111.202 68.0943 112.98 69.4275 111.795 70.9089C111.054 71.7977 110.758 71.057 111.202 72.6865C112.387 77.2788 110.165 74.4642 109.869 77.2788C109.721 78.1676 110.165 79.7971 109.128 80.2415C108.832 80.3896 108.832 80.3896 108.388 80.5378C108.239 80.6859 108.091 80.6859 108.091 80.6859C107.351 80.834 106.906 81.2784 106.462 80.0934C106.166 79.2045 106.758 77.4269 106.906 76.39C105.721 76.0937 105.721 76.0937 104.536 75.7974C104.536 75.7974 104.388 75.7974 104.24 75.6493C103.499 75.353 103.499 75.353 102.61 75.0567C101.573 74.4642 102.314 74.316 101.129 73.8716C100.24 73.5754 99.7957 73.8716 98.6106 73.7235C97.2774 70.9089 98.7588 72.8347 96.9811 71.3533C97.4255 69.1313 99.2032 68.5387 101.129 67.3536C102.462 66.613 102.018 66.3167 103.351 65.8723C105.129 65.2797 104.98 65.8723 105.425 63.9465C104.388 63.7984 103.944 63.9465 103.795 63.354C107.499 64.0946 105.721 63.9465 107.054 62.7614C109.128 62.7614 107.054 63.0577 109.128 63.0577C111.647 63.0577 110.906 61.5763 111.054 61.1319C111.35 60.095 112.832 59.2061 108.684 59.3543C108.388 60.3912 107.943 60.8356 106.61 61.7245C106.462 61.8726 106.462 61.8726 106.166 62.0207C106.166 61.1319 106.314 60.5394 106.017 59.9468C104.832 60.095 105.573 59.9468 104.684 60.6875C104.536 60.2431 104.536 60.2431 104.24 59.9468C103.647 59.3543 103.944 60.095 103.647 59.2061C103.499 58.4655 104.684 58.6136 103.203 57.8729C101.721 57.2804 100.388 58.7617 99.4994 59.6506C98.9069 59.058 99.3513 59.058 97.8699 59.2061C97.4255 59.6506 97.2774 59.7987 97.1293 60.5394ZM131.497 50.7624C129.571 50.1698 129.127 50.4661 128.238 50.7624C127.349 51.0587 127.201 50.6142 126.164 50.7624C124.831 50.7624 126.164 50.9105 125.571 51.3549C125.127 51.5031 124.683 51.3549 123.794 51.5031C123.053 51.5031 123.053 51.6512 122.164 51.7993C120.831 51.9475 120.831 51.6512 120.683 52.2437C122.016 52.6882 122.461 52.2437 124.386 52.54C123.942 52.9844 124.386 52.8363 123.349 52.8363C122.609 52.9844 122.905 52.6882 122.016 52.9844C124.534 55.5027 130.756 52.2437 132.83 58.7617C132.978 58.7617 133.571 58.7617 133.719 58.7617C133.867 58.7617 134.015 58.7617 134.015 58.9099C134.311 58.7617 134.163 58.7617 134.608 59.058C134.608 59.9468 134.756 59.058 134.163 59.3543C134.163 59.5024 134.163 59.5024 134.163 59.5024C133.867 59.5024 133.867 59.5024 133.719 59.6506C132.534 60.5394 133.867 58.7617 133.423 59.9468C133.867 60.095 133.867 60.095 134.311 60.2431C134.904 60.3912 134.904 60.3912 135.497 60.5394C135.645 61.4282 135.2 61.7245 134.608 61.7245C133.719 61.8726 132.386 61.4282 135.052 65.7241C135.2 66.0204 135.2 66.0204 135.348 66.4648C138.163 71.5015 137.126 68.835 139.644 70.7608C140.385 71.3533 139.496 70.7608 140.533 71.5015C142.903 71.5015 142.163 70.7608 142.607 69.1313C143.051 67.2055 143.792 69.1313 143.496 66.1686C146.607 65.7241 148.236 67.2055 148.681 65.2797C148.681 64.9835 148.681 64.8353 148.829 64.5391C151.792 65.1316 151.199 66.0204 153.273 65.1316C155.643 64.3909 154.014 64.8353 154.458 64.0946C154.458 64.0946 155.939 63.9465 154.014 62.6133C152.68 61.7245 153.125 62.4651 152.384 61.5763C153.421 61.4282 152.828 62.0207 154.162 62.0207C154.458 61.8726 154.458 61.8726 154.606 61.8726C154.754 61.8726 154.754 61.8726 154.754 61.8726C154.902 61.7245 154.902 61.7245 155.051 61.7245C155.495 61.7245 155.347 61.8726 155.495 61.4282C154.458 60.5394 156.828 62.4651 154.606 60.8356C154.162 60.5394 154.162 60.8356 153.865 60.2431C153.569 59.5024 155.347 60.9838 154.162 59.6506C152.828 58.9099 153.273 59.3543 152.088 58.6136C151.495 58.1692 152.532 58.3173 152.977 58.4655C152.384 58.0211 152.384 58.0211 151.792 57.7248C153.125 58.3173 154.754 59.058 154.754 59.058C152.68 57.7248 149.866 56.6878 149.866 56.6878C149.718 56.3916 150.31 56.836 150.014 56.3916C148.681 55.799 149.273 56.0953 148.384 55.799C148.088 55.6509 148.088 55.6509 147.792 55.5027C147.792 55.3546 147.792 55.3546 147.644 55.3546C146.31 54.7621 145.422 54.6139 144.533 54.1695C145.57 54.3177 148.384 55.6509 149.273 55.9472C148.829 55.6509 149.421 55.9472 148.236 55.3546C145.866 54.3177 145.57 54.4658 144.088 53.7251C144.681 53.8732 145.125 54.1695 145.718 54.1695C144.681 53.7251 143.348 53.2807 142.163 52.8363C140.385 52.2437 140.829 52.54 140.089 52.54C138.756 52.0956 139.2 52.0956 137.57 51.6512C137.719 51.9475 137.719 51.9475 138.015 52.2437C137.422 52.0956 138.163 52.2437 137.57 52.0956C136.385 51.6512 136.682 51.7993 135.348 51.3549C135.052 51.5031 135.645 51.7993 134.904 51.7993C133.423 51.2068 135.052 51.5031 133.571 51.0587C132.238 50.6142 132.978 51.0587 132.83 51.2068C132.386 50.9105 131.941 50.7624 131.497 50.7624ZM112.832 56.3916V56.0953C113.128 55.9472 113.721 56.3916 112.98 56.5397C112.387 56.6878 112.832 56.5397 112.832 56.3916ZM109.276 56.5397C108.832 56.0953 109.128 56.6878 109.128 56.0953C109.128 55.5027 109.573 55.799 109.425 55.2065C107.351 54.7621 106.017 56.0953 106.314 57.5767C106.758 57.8729 107.054 57.7248 107.203 58.0211C107.647 58.4655 107.351 58.6136 107.499 58.9099C109.869 58.7617 109.573 58.3173 111.35 58.7617C113.424 59.5024 112.387 58.9099 114.313 58.6136C116.239 60.095 115.202 59.5024 115.498 60.095C115.943 60.6875 116.091 60.2431 117.868 60.5394C118.905 62.7614 117.868 63.0577 114.609 63.5021C113.128 63.6502 112.239 64.5391 113.572 65.2797C114.609 65.8723 115.35 64.9835 117.276 65.1316C118.313 65.8723 120.979 68.3906 122.757 67.798C122.312 66.4648 121.72 66.7611 121.572 65.8723C123.053 66.4648 122.164 66.613 123.942 67.2055C125.72 64.3909 122.609 64.0946 122.016 63.7984C122.016 63.2058 122.164 63.0577 122.312 62.7614C124.09 62.9096 123.794 64.0946 125.868 64.6872C127.201 63.6502 127.793 62.6133 125.72 61.8726C123.498 61.1319 124.238 62.1689 122.461 60.3912C122.757 59.6506 123.646 59.7987 122.905 58.9099C121.868 57.7248 119.053 58.3173 117.572 56.5397C117.424 56.3916 117.276 55.6509 114.906 55.799C113.572 55.9472 114.017 55.9472 113.721 56.2434C113.128 55.799 113.572 55.5027 113.128 55.0583C109.869 54.6139 110.462 55.5027 109.573 56.3916C109.425 56.3916 109.425 56.3916 109.276 56.5397ZM119.794 49.1329C119.794 49.1329 119.202 48.9847 119.053 48.8366C118.757 48.8366 118.757 48.8366 118.461 48.8366C117.128 48.8366 117.276 48.8366 115.794 48.6885C114.609 49.5773 113.869 48.9847 113.128 48.8366C111.943 48.8366 112.387 48.9847 111.498 49.1329C110.61 49.281 110.758 49.1329 109.869 49.281C110.462 49.7254 110.758 50.1698 112.832 50.1698C113.572 50.1698 116.091 49.8736 116.831 49.8736C116.683 50.318 116.239 50.1698 114.906 50.1698C112.239 50.4661 114.609 50.4661 114.313 50.7624C112.98 50.6142 112.98 50.4661 111.943 50.318C111.795 50.9105 112.239 51.0587 112.535 51.3549C111.35 51.6512 111.498 51.6512 110.61 52.0956C108.684 52.8363 109.425 52.2437 108.239 52.3919C108.536 53.4288 109.721 53.4288 112.091 53.4288C114.906 53.4288 115.498 53.4288 116.683 52.6882C116.387 52.2437 116.387 52.54 115.794 51.9475C118.313 51.9475 118.757 51.3549 120.09 50.7624C121.72 50.9105 122.016 51.2068 123.498 50.9105C124.979 50.6142 124.683 50.6142 124.09 49.8736C125.868 50.0217 127.053 50.318 127.942 50.1698C127.053 49.4292 126.016 49.5773 123.794 49.281C120.535 48.8366 121.424 48.8366 119.794 49.1329ZM87.2041 58.0211L87.056 58.1692C87.2041 58.0211 87.2041 58.0211 87.2041 58.0211ZM87.9448 57.8729C86.4634 56.2434 86.019 57.5767 84.3895 56.836C83.6489 56.9841 83.6489 56.9841 83.0563 57.2804C82.9082 57.2804 82.9082 57.2804 82.9082 57.2804C82.4638 57.4285 82.4638 57.4285 82.0194 57.7248C81.7231 57.8729 81.8712 57.8729 81.575 58.0211C81.1305 58.6136 81.1305 58.7617 80.538 59.2061C79.9455 59.6506 80.0936 59.3543 79.3529 60.095C81.1305 61.7245 81.8712 59.6506 87.056 58.1692C86.7597 58.3173 86.7597 58.4655 86.4634 58.7617C84.9821 59.6506 84.9821 58.7617 84.0933 59.9468C85.1302 60.2431 85.5746 59.7987 87.056 59.7987C86.1672 60.2431 85.2784 60.3912 84.2414 60.6875C84.3895 61.2801 85.4265 61.4282 86.3153 61.5763C87.6485 61.7245 92.537 61.1319 94.1665 60.6875C95.796 60.3912 95.4998 60.2431 95.0553 59.5024C96.5367 58.7617 95.796 59.6506 96.2404 58.7617C91.3519 58.0211 97.4255 56.2434 92.6852 56.836C92.3889 57.4285 92.6852 57.4285 92.0926 57.8729C91.6482 57.5767 91.6482 57.5767 91.2038 57.2804C90.1669 57.4285 90.7594 57.2804 90.0187 57.8729C89.8706 57.4285 90.0187 57.7248 89.8706 57.4285C88.8336 57.7248 88.8336 57.7248 87.9448 57.8729ZM114.165 54.7621C114.609 54.1695 114.461 54.3177 114.313 53.7251C112.684 53.577 111.498 53.7251 109.721 53.577C107.351 53.4288 108.239 53.2807 107.499 52.54C103.351 52.3919 104.536 53.7251 106.758 54.4658C108.091 54.9102 108.832 54.7621 110.313 54.4658C112.98 54.3177 112.832 54.9102 114.165 54.7621ZM109.869 51.6512C111.35 50.1698 109.276 49.5773 107.054 49.5773C106.61 49.8736 106.314 49.8736 105.869 50.1698C104.684 50.9105 105.721 50.4661 106.61 51.2068C106.758 51.3549 106.462 51.9475 109.869 51.6512ZM89.1299 55.5027C88.9818 55.9472 88.9818 55.9472 88.8336 56.2434C90.315 56.3916 91.0557 56.2434 92.6852 55.6509C95.3516 54.9102 94.4628 55.2065 96.6848 55.2065C96.6848 54.0214 95.6479 54.4658 94.6109 54.1695C94.0184 53.8732 94.9072 53.7251 93.7221 53.8732C92.3889 53.8732 93.4258 54.0214 91.7963 54.7621C90.1669 55.5027 90.4631 55.0583 89.1299 55.5027ZM133.126 87.5002C133.867 86.6114 133.571 86.4632 132.978 83.9449C131.793 83.0561 131.793 83.7968 130.904 82.4635C130.608 81.871 130.904 82.1673 130.46 81.7229C129.571 82.0191 129.275 82.6117 128.386 83.2042C127.201 84.2412 127.349 84.093 127.349 86.0188C128.682 85.8707 128.682 85.8707 130.015 85.7225C130.46 86.4632 130.46 86.4632 130.904 87.2039C132.089 86.9076 131.201 87.5002 131.793 86.4632C132.386 87.6483 131.941 87.0558 133.126 87.5002ZM106.017 122.312C106.017 122.312 108.388 123.349 109.721 121.423C109.128 119.942 108.98 120.238 107.054 119.498C104.388 118.461 101.573 115.942 98.3143 118.461C98.9069 119.498 98.1662 118.905 99.3513 118.905C99.3513 118.905 103.203 118.016 105.129 120.238C105.721 120.979 105.277 120.386 105.721 121.423C105.869 121.868 105.869 121.868 106.017 122.312ZM100.388 55.3546C99.2032 55.2065 99.055 55.3546 98.1662 55.799C98.1662 56.2434 98.1662 56.2434 98.1662 56.836C97.4255 56.6878 97.4255 56.6878 96.6848 56.5397C96.5367 57.4285 96.2404 56.9841 97.8699 57.5767C99.7957 58.4655 100.685 57.7248 100.685 56.6878C100.685 56.6878 100.536 56.0953 100.536 55.9472C100.388 55.6509 100.388 55.6509 100.388 55.3546ZM84.5377 55.799C84.6858 55.9472 84.3895 55.9472 84.9821 56.0953C85.2784 56.0953 85.4265 56.0953 85.8709 55.9472C87.2041 55.799 87.056 55.5027 87.6485 55.2065C88.8336 54.4658 90.6113 54.6139 89.7224 53.7251C88.8336 54.0214 88.0929 54.3177 87.2041 54.6139C85.5746 55.2065 85.2784 55.0583 84.5377 55.799ZM98.6106 54.7621C100.092 54.6139 100.092 54.6139 101.573 54.4658C102.018 52.9844 100.833 53.1326 98.9069 53.7251C98.6106 53.577 98.7588 53.4288 98.0181 53.4288C97.4255 53.4288 98.3143 53.4288 97.4255 53.4288C97.2774 54.3177 97.7218 54.4658 98.6106 54.7621ZM114.313 121.868C113.128 120.979 112.98 120.831 111.35 121.127C110.906 122.016 110.906 121.868 111.202 123.053C109.573 122.905 109.869 122.46 108.98 123.349C110.017 124.682 110.313 124.238 112.387 124.238C114.906 124.09 117.868 124.534 114.313 121.868ZM102.018 57.1322C102.61 57.1322 105.425 56.0953 106.166 55.3546C104.684 54.9102 103.944 55.0583 102.314 55.3546C102.314 55.6509 102.018 55.9472 101.87 56.2434C101.87 56.3916 101.87 56.6878 101.87 56.6878C101.87 57.1322 101.721 56.9841 102.018 57.1322ZM97.7218 51.6512C97.4255 52.3919 97.5737 52.0956 99.2032 52.54C99.9438 52.6882 98.9069 52.54 99.7957 52.6882C103.055 52.8363 100.833 50.7624 97.7218 51.6512ZM106.61 66.613C107.351 66.4648 109.276 65.4279 109.573 64.8353C108.684 63.7984 107.647 63.9465 105.869 64.2428C105.425 65.4279 105.277 65.8723 106.61 66.613ZM117.572 202.454C118.461 202.75 118.461 202.602 119.498 202.898C120.387 202.602 120.387 202.602 121.424 202.306C120.683 201.861 117.868 200.528 117.572 202.454ZM124.238 200.676C124.979 200.528 126.757 200.232 127.645 199.787C127.349 199.491 126.757 199.343 126.312 199.195C125.868 199.639 126.164 199.343 125.275 199.639C124.979 199.639 124.683 199.639 124.386 199.787C124.238 200.232 124.238 200.232 124.238 200.676ZM102.758 51.6512C102.907 51.9475 102.907 51.9475 103.055 52.3919C103.795 52.3919 103.795 52.3919 104.536 52.2437C105.573 51.0587 103.647 51.0587 102.758 51.6512ZM92.0926 52.9844C93.1296 52.8363 94.3147 52.6882 95.0553 52.2437C94.7591 52.0956 94.7591 51.9475 93.574 52.0956C92.537 52.3919 92.2408 52.54 92.0926 52.9844ZM91.6482 54.0214C94.4628 53.2807 94.0184 53.4288 94.4628 52.9844C94.0184 52.8363 95.2035 52.6882 92.3889 53.1326C92.0926 53.4288 91.7963 53.7251 91.6482 54.0214ZM132.386 60.8356C132.534 60.8356 132.386 61.1319 133.719 61.1319C134.163 61.1319 134.46 61.1319 134.46 61.1319C134.608 61.1319 134.608 61.1319 134.46 60.9838C134.46 60.9838 134.46 60.9838 134.46 60.8356C134.608 60.8356 134.608 60.8356 134.608 60.8356C134.46 60.8356 134.46 60.8356 134.46 60.6875C133.719 60.095 132.682 59.6506 132.386 60.8356ZM102.314 54.6139C103.647 54.7621 104.24 54.7621 104.536 54.0214C103.351 53.7251 102.61 53.8732 102.314 54.6139ZM107.499 123.794C106.758 122.905 106.462 122.757 104.684 123.201C104.98 123.794 104.24 124.534 106.017 124.682C107.203 124.83 107.054 124.386 107.499 123.794ZM114.017 62.317C114.609 62.317 115.202 62.317 115.498 62.0207C116.091 61.2801 115.35 61.2801 115.35 61.1319C114.906 61.1319 114.906 61.1319 114.461 61.1319C114.017 61.4282 114.313 61.1319 114.017 61.7245V62.317ZM151.643 62.7614C151.643 62.7614 151.347 61.7245 153.569 63.354C153.865 63.5021 153.865 63.5021 154.014 63.7984C154.162 63.7984 154.162 63.7984 154.162 63.9465C153.569 63.7984 152.828 63.5021 152.236 63.2058C151.495 62.7614 152.088 63.2058 151.643 62.7614ZM170.309 81.2784C170.457 80.9822 170.605 80.9822 170.605 80.5378C169.42 79.5008 171.642 81.4266 170.16 80.2415C168.679 79.0564 169.864 79.7971 168.827 78.9083C168.087 79.0564 168.383 78.612 168.383 79.6489C167.642 79.2045 168.383 79.6489 167.79 79.0564C167.494 78.7601 167.79 79.0564 167.346 78.612C167.346 79.2045 167.346 79.2045 167.346 79.5008C167.938 79.7971 167.938 79.6489 168.531 80.2415C168.827 80.834 168.531 80.9822 168.679 81.4266C168.679 81.4266 169.123 82.0191 169.272 82.1673C170.605 83.7968 170.012 82.7598 171.049 84.093C170.753 84.5374 171.049 84.3893 170.16 84.2412C170.457 85.13 170.457 84.9819 170.605 85.5744C170.753 86.3151 170.457 85.5744 170.901 86.3151C171.346 87.352 170.605 86.4632 170.605 88.0927C171.494 88.0927 171.494 87.7964 172.382 87.9446C173.419 88.0927 173.123 87.7964 174.012 87.9446C173.716 87.2039 173.716 87.5002 173.864 87.2039C173.864 87.2039 174.753 87.352 173.568 85.8707C172.679 84.3893 172.679 84.3893 171.642 82.9079C171.049 81.7229 171.346 82.0191 170.309 81.2784ZM160.828 71.3533C161.42 71.2052 161.272 70.3164 160.532 69.2794C159.198 68.5387 159.346 69.2794 157.569 68.3906C156.976 68.0943 157.421 68.2425 156.828 68.0943C155.347 67.798 156.68 68.2425 155.199 67.5018C154.754 67.6499 154.606 67.798 154.606 68.5387C155.495 68.835 155.495 68.835 156.236 69.1313C156.236 69.7238 156.236 69.7238 156.236 70.3164C156.976 70.4645 157.124 70.3164 157.865 70.7608C158.458 71.2052 158.458 71.2052 158.902 71.5015L159.05 71.6496C160.235 70.7608 159.939 71.6496 160.828 71.3533ZM167.198 85.7225C168.235 85.7225 167.79 85.5744 168.679 85.4263C169.568 85.4263 169.568 85.8707 169.716 85.13C169.42 83.6486 169.42 83.6486 169.123 82.3154C167.79 81.7229 168.087 82.0191 166.457 82.6117C166.605 84.2412 166.753 83.2042 166.901 83.9449C167.05 84.8337 167.05 84.8337 167.198 85.7225ZM161.569 67.0574C162.309 67.3536 162.605 67.5018 162.309 67.0574C162.309 66.613 161.865 66.4648 161.42 66.1686C161.42 66.613 161.42 66.613 161.569 67.0574ZM180.826 101.869C181.122 101.869 181.271 101.869 181.122 100.981C180.974 99.7955 180.974 100.092 180.382 99.9436C180.53 100.832 180.53 100.832 180.826 101.869ZM102.758 50.4661C102.61 50.7624 102.61 50.7624 102.462 51.0587C103.795 51.0587 103.795 51.0587 104.092 50.6142C103.499 50.318 103.795 50.318 102.758 50.4661ZM187.344 102.166C187.048 101.277 186.752 99.4992 186.9 99.3511C186.9 99.0548 187.048 100.092 186.9 98.9067C186.9 98.4622 186.752 98.0178 186.752 97.7216C187.048 98.166 186.604 97.4253 187.196 98.6104C187.344 98.9067 187.344 98.9067 187.492 99.3511C187.492 99.7955 187.344 99.9436 187.789 100.388C188.085 100.832 188.085 100.684 188.233 100.536C188.085 100.388 188.085 100.388 188.085 100.388C188.085 100.24 188.085 100.24 187.937 100.092C187.937 99.9436 187.937 99.9436 187.937 99.9436C187.789 99.6473 187.789 99.6473 187.64 99.3511C187.64 98.9067 187.64 98.9067 187.937 99.0548C188.233 100.24 187.789 99.0548 188.085 100.388C188.381 100.981 188.381 100.981 188.677 101.425C188.826 102.018 188.826 102.018 188.974 102.462C189.418 103.499 189.418 103.203 189.863 104.832C189.714 105.128 188.826 102.758 188.677 102.61C188.381 102.462 187.937 102.61 187.344 102.166Z" fill="url(#paint0_linear)" fill-opacity="0.4"/>
<path fill-rule="evenodd" clip-rule="evenodd" d="M20.2463 50.9113C21.1352 49.4299 22.1721 47.9486 23.2091 46.6153C61.7245 -4.78793 134.756 -15.3056 186.159 23.2098C237.562 61.8734 248.08 134.756 209.416 186.16C186.159 217.268 150.31 233.415 114.165 232.823C147.051 232.082 179.345 216.824 200.676 188.382C237.414 139.349 227.489 69.7246 178.456 32.9868C131.497 -2.26962 57.8729 5.1372 20.2463 50.9113Z" fill="url(#paint1_linear)" fill-opacity="0.4"/>
<path fill-rule="evenodd" clip-rule="evenodd" d="M97.4254 226.898C50.3181 227.194 9.87688 193.567 1.58125 147.497C-4.93675 111.944 8.83992 74.1693 40.2448 51.6526C63.0578 35.2095 90.6111 30.1728 116.091 35.3576C86.4633 33.8762 54.614 41.5793 31.9492 67.355C13.284 88.5385 5.58093 116.684 10.1732 143.793C17.4318 186.308 55.3547 220.676 97.4254 226.898Z" fill="url(#paint2_linear)" fill-opacity="0.4"/>
<path fill-rule="evenodd" clip-rule="evenodd" d="M187.641 102.166C187.493 101.425 187.789 102.61 187.789 102.61C187.345 102.462 187.641 102.314 187.641 102.166ZM174.605 75.6493C186.308 89.7222 193.27 107.647 193.27 127.349C193.27 127.645 193.27 127.941 193.27 128.682C193.27 128.386 193.122 128.089 193.122 127.053C193.122 124.979 193.122 126.164 193.122 124.534C192.826 122.608 192.826 122.608 192.529 120.683C192.529 119.942 192.381 119.053 192.233 118.461C192.085 117.424 191.937 117.276 191.789 116.535C191.492 115.202 191.641 115.498 191.344 114.757C191.196 114.461 191.196 114.461 191.048 114.165C190.9 113.572 191.048 113.72 190.752 113.276C191.048 114.609 191.196 115.498 191.492 116.387C192.085 118.164 191.789 117.424 192.085 119.646C192.233 120.238 192.233 120.386 192.381 121.275C192.529 122.164 192.529 122.757 192.678 123.497C192.826 124.534 192.826 124.534 192.974 125.719C192.974 126.46 192.974 126.46 193.122 127.053C193.122 127.645 193.122 131.052 193.27 130.015C193.27 132.385 192.974 134.607 192.826 136.83C192.678 137.422 192.678 137.866 192.529 138.607C192.233 139.644 191.789 141.866 191.492 143.496C191.344 144.681 191.048 146.31 190.752 147.199C190.455 148.532 189.863 151.051 189.419 152.384C189.122 153.125 188.974 153.273 188.678 154.013C188.53 154.606 188.382 154.902 188.085 155.495C187.641 156.976 187.641 156.976 187.196 158.161C186.604 159.494 186.604 159.346 186.308 160.235C186.011 160.679 185.715 161.272 185.567 161.716C184.974 163.198 185.419 162.161 184.974 163.05C184.382 164.235 184.826 163.494 183.641 165.42C182.604 167.197 183.345 166.161 182.308 167.642C181.271 168.975 181.864 168.234 180.975 169.123C180.678 169.716 180.678 169.568 180.382 170.16C179.79 170.605 179.493 170.753 179.79 169.864C180.234 168.827 180.234 169.42 180.382 168.531C180.382 168.383 180.382 168.383 180.382 168.234C180.53 167.494 180.678 166.753 180.678 165.864C180.53 165.272 181.567 162.457 181.567 160.976C181.271 156.828 181.123 157.42 183.641 152.532C183.641 150.31 183.641 150.31 183.493 148.088C183.493 147.347 183.493 147.792 183.493 147.199C183.789 144.236 181.715 145.273 182.752 141.866C183.049 141.125 183.345 139.348 183.197 138.311C182.604 137.866 182.308 138.015 181.567 137.718C180.678 137.274 180.975 136.83 180.678 135.496C178.308 135.496 178.308 136.978 176.975 137.274C176.383 137.422 175.494 137.126 174.605 137.422C172.087 138.015 173.716 141.274 170.309 135.793C170.013 135.496 170.161 135.644 169.865 135.348L169.716 135.2C167.939 132.385 167.939 132.385 166.013 129.423C166.309 128.386 166.309 128.386 166.606 127.497C166.161 127.201 165.865 127.053 165.272 126.756C166.013 125.571 166.902 125.127 166.754 123.349C166.606 119.498 166.013 118.313 167.05 114.757C167.791 112.387 168.087 114.905 168.383 111.498C169.568 111.646 169.568 111.054 170.161 110.313C171.642 108.684 170.161 107.202 171.05 106.017C171.79 104.832 171.938 105.721 172.383 104.98C172.827 104.091 172.827 104.091 173.124 103.203C174.605 104.091 174.901 104.388 175.79 103.647C176.679 103.351 176.679 103.351 177.568 102.906C178.901 102.758 182.308 102.166 182.752 104.98C182.901 105.721 182.901 106.017 182.604 106.462C182.604 106.61 182.604 106.61 182.604 106.758C184.086 108.536 184.234 108.091 185.271 109.424C185.715 109.869 185.715 109.869 186.16 110.313C186.456 110.609 186.604 110.758 186.752 110.906C187.048 110.313 186.9 109.128 187.196 108.536C187.641 108.684 188.233 109.572 188.53 110.165C188.974 110.609 188.974 110.609 189.27 110.906C189.715 111.202 189.419 110.906 189.863 111.943C189.863 111.795 189.863 111.795 189.863 111.498C190.011 110.906 190.011 111.35 190.752 111.795C190.604 109.721 190.9 110.609 190.307 107.499C188.826 106.61 189.567 106.313 188.974 106.906C187.937 104.832 187.789 104.832 187.493 102.314C187.196 102.018 187.196 102.018 186.752 101.573C186.604 102.166 186.604 102.166 186.604 102.758C186.752 102.906 186.604 102.906 186.9 103.203C187.048 103.647 187.048 103.499 187.196 103.647C187.196 104.98 187.345 102.906 187.196 104.091V104.24C187.048 104.98 187.196 104.98 186.604 104.684C186.456 104.24 186.604 104.684 186.456 104.24C185.715 102.462 185.715 102.462 184.974 100.684C184.086 98.3141 183.789 99.0548 181.567 94.7588C181.123 95.2033 181.271 95.3514 181.715 96.2402C182.752 98.4622 183.345 98.9067 184.382 100.536C184.678 100.981 184.826 101.129 185.123 101.573C184.974 101.721 184.826 101.573 184.382 101.573C184.53 102.462 184.974 102.906 184.234 103.203C183.789 101.573 184.382 102.61 183.641 101.129C183.345 100.684 182.901 100.092 182.456 99.4992C180.678 97.5734 181.567 98.3141 180.382 95.9439C179.79 96.3883 179.79 96.3883 179.049 96.8328C178.16 95.9439 178.605 96.0921 177.568 95.7958C177.271 96.5365 177.271 97.4253 176.827 98.166C176.679 98.4622 176.679 98.3141 176.531 98.4622C176.234 99.0548 176.086 98.9067 176.234 100.092C176.234 100.092 176.383 100.388 176.234 101.129C175.938 101.869 175.938 101.869 175.494 102.61C173.864 102.314 174.457 102.314 173.124 102.61C172.383 102.018 172.679 101.869 172.235 101.573C171.79 101.425 171.642 101.573 170.901 101.277C170.309 100.24 170.309 100.24 169.716 99.0548C170.161 97.4253 170.457 99.0548 170.161 96.0921C169.865 94.907 169.568 94.4626 170.161 93.7219C171.642 93.7219 172.827 94.7588 174.309 95.0551C174.309 93.87 174.457 93.1293 173.864 91.7961C172.975 90.0185 172.531 90.9073 171.79 89.4259C172.087 88.6853 171.938 89.2778 172.531 88.9815C173.716 88.5371 172.975 88.5371 173.124 88.389V88.2408V88.0927C173.864 88.6853 174.16 88.5371 174.457 88.0927C175.049 87.2039 174.309 87.0558 175.79 87.5002C175.642 86.9076 175.494 86.4632 175.642 86.1669C175.79 86.1669 175.79 86.1669 175.938 86.0188C176.383 85.8707 176.827 86.0188 177.271 86.0188C176.531 83.9449 176.383 84.8337 175.79 83.2042C176.086 82.9079 175.79 82.9079 176.531 83.2042C176.086 82.4635 175.494 81.5747 176.531 82.3154C176.531 83.2042 176.975 82.7598 177.271 84.093C177.419 85.13 177.419 85.13 178.16 86.3151C178.753 86.6114 179.345 86.9076 179.642 86.7595C180.382 86.6114 180.234 87.0558 181.123 87.5002C181.123 87.352 180.975 86.9076 180.827 86.3151C180.678 85.5744 180.382 84.9819 180.382 84.8337C180.827 85.4263 180.827 85.7225 181.271 85.8707C181.271 85.8707 181.123 85.7225 181.123 85.8707C180.975 85.4263 180.975 85.4263 180.678 85.13C180.678 84.8337 180.382 84.6856 180.382 84.3893C180.234 83.9449 180.827 84.6856 181.271 85.2781C179.938 83.2042 180.975 84.8337 179.493 83.0561C178.753 82.0191 178.308 81.2784 177.716 80.0934C177.864 80.2415 178.012 80.3896 177.864 80.0934C177.864 79.9452 178.012 80.0934 177.864 79.9452C177.419 79.2045 177.123 78.9083 176.827 78.612C177.123 79.2045 177.419 79.5008 177.419 79.7971C177.419 80.0934 176.975 79.3527 177.123 79.9452C177.568 81.2784 178.16 81.4266 179.197 83.5005C178.901 83.7968 179.049 83.9449 179.049 84.5374C179.197 84.9819 178.901 85.4263 178.901 85.5744C178.16 84.9819 178.753 85.7225 178.16 84.6856C177.419 83.3524 177.419 83.3524 176.531 81.871C175.346 81.1303 175.642 81.871 174.605 81.4266C173.864 80.0934 173.864 80.0934 173.124 78.7601C171.198 76.0937 173.42 77.575 173.568 76.9825C174.012 75.9455 173.568 75.5011 173.716 75.0567C173.716 74.7605 174.309 75.5011 174.605 75.6493C174.605 75.6493 174.457 75.5011 174.605 75.6493ZM98.3147 60.3912C100.389 60.5394 100.389 60.2431 101.277 59.3543C102.166 59.6506 102.314 59.7987 102.463 60.5394C102.166 60.8356 101.722 60.9838 101.277 61.4282C98.611 60.9838 103.499 61.8726 100.537 61.1319C100.389 61.1319 100.092 60.9838 99.9442 60.9838C98.611 60.8356 98.7591 61.5763 96.8334 61.8726C94.0188 62.317 94.1669 61.4282 92.6856 61.4282C91.6486 62.1689 91.9449 62.317 91.2042 62.9096C90.3154 62.7614 90.0191 62.4651 89.4266 62.0207C88.6859 62.4651 88.6859 62.4651 87.7971 62.7614V62.6133C87.6489 62.317 87.6489 62.317 87.5008 62.0207C86.7601 61.2801 84.5381 62.1689 83.353 61.8726C81.4272 61.5763 82.4641 61.7245 81.1309 62.0207C80.9828 62.0207 80.9828 62.1689 80.8346 62.1689C80.094 62.317 80.094 62.317 79.2052 62.4651C78.9089 62.1689 78.7607 62.0207 78.4645 61.7245C77.1312 62.6133 77.4275 62.9096 75.6499 63.354C76.3906 62.9096 76.3906 62.9096 77.1312 62.317C75.3536 62.4651 73.7241 64.2428 72.9834 64.8353C70.7614 64.8353 70.7614 64.8353 68.6875 64.9835C67.5024 64.9835 67.3543 65.576 66.1692 65.7241C64.9841 65.8723 65.4285 65.8723 63.9471 66.613C63.799 66.3167 63.9471 66.1686 63.6508 66.1686C62.762 66.7611 63.2064 66.613 62.3176 67.0574C62.1695 66.9092 62.1695 66.9092 62.0213 66.613C61.1325 67.3536 60.54 67.6499 59.9474 68.0943C58.9105 68.835 60.2437 67.9462 59.0586 68.835C58.7623 68.9831 58.4661 69.1313 58.0217 69.4275C57.5773 70.0201 57.5773 70.0201 57.1329 70.6126C55.7996 71.3533 55.9478 71.2052 54.9108 72.2421C54.6145 73.131 55.9478 72.094 56.5403 72.2421C55.0589 73.5754 54.7627 73.2791 54.1701 73.5754C53.2813 74.6123 53.7257 74.0198 52.6888 74.9086C52.6888 75.2049 52.6888 75.2049 52.5406 75.6493C52.5406 76.5381 53.7257 75.353 54.7627 74.4642C53.8739 75.6493 53.5776 75.9455 52.6888 76.5381C52.6888 76.6862 52.5406 76.6862 52.5406 76.6862C51.0593 77.7232 51.7999 77.2788 50.3186 78.9083C50.3186 79.0564 50.3186 79.0564 50.3186 79.2045C50.3186 79.6489 50.1704 79.2045 49.726 80.5378C50.3186 80.5378 50.3186 80.3896 51.0593 79.6489C49.2816 82.7598 50.0223 81.4266 51.7999 80.6859C51.3555 83.0561 47.6521 84.6856 46.467 86.7595C47.504 87.6483 51.7999 81.871 53.5776 80.6859C53.2813 81.1303 52.985 81.2784 52.6888 82.0191C52.8369 82.0191 52.8369 82.0191 53.1332 82.1673C53.2813 81.871 53.7257 81.5747 53.8739 81.2784C54.022 80.834 54.022 80.9822 54.022 80.834C54.1701 80.2415 53.4294 80.3896 54.6145 78.9083C55.5034 78.0194 55.5034 78.0194 56.244 77.1306C56.9847 76.2418 57.1329 76.0937 57.8735 76.0937C56.8366 77.1306 56.244 77.2788 55.7996 78.4639C55.6515 78.612 55.6515 78.612 55.6515 78.7601C56.3922 79.0564 56.8366 78.3157 57.5773 77.575C58.6142 76.5381 58.3179 76.8344 59.0586 75.6493C59.6512 75.5011 59.9474 75.6493 60.0956 76.0937C60.3918 76.6862 60.0956 75.7974 60.0956 76.39C61.8732 75.9455 61.5769 75.5011 62.6139 76.2418C63.6508 76.6862 63.6508 76.6862 64.8359 76.9825C65.7248 76.9825 65.2803 78.1676 66.7617 79.2045C66.3173 79.9452 66.1692 80.3896 66.4654 80.9822L66.6136 81.1303C67.5024 82.4635 66.9098 83.3524 67.7987 84.093C67.058 85.5744 67.5024 84.093 67.2061 85.13C66.6136 87.2039 69.28 85.13 66.7617 91.3517C64.9841 95.9439 64.2434 98.166 66.3173 99.4992C66.021 100.536 66.021 100.536 65.7248 101.425C67.058 102.758 66.1692 102.166 66.9098 103.351C67.5024 104.24 68.5393 104.24 69.28 104.684C68.6875 108.387 68.8356 107.943 70.6132 110.017C70.4651 111.202 70.6132 111.202 69.8726 111.646C71.2058 113.128 71.9465 112.387 72.3909 114.609C72.8353 116.535 72.9834 117.424 75.0573 117.72C75.0573 116.387 73.7241 112.98 73.1316 111.943C72.2427 110.461 71.2058 109.869 71.0577 106.906C72.0946 107.499 71.2058 106.906 71.9465 107.647L72.539 108.387C73.2797 109.572 73.1316 110.461 74.3167 112.239C74.9092 113.424 74.9092 113.424 75.6499 114.757C77.4275 117.72 77.8719 116.979 78.0201 120.979C79.2052 121.72 80.3902 122.46 81.1309 123.201C84.8343 126.016 84.3899 125.719 88.3896 125.719C90.7598 125.867 90.1672 126.904 91.2042 127.793C93.4262 129.571 94.7595 126.756 97.1296 132.534C97.8703 134.459 98.3147 133.867 99.7961 135.2C100.833 135.644 100.833 135.644 101.722 136.089C102.611 136.385 102.314 136.533 103.648 136.681C104.092 135.793 103.203 137.422 103.944 135.941C104.24 135.052 103.796 135.941 104.24 135.348C106.166 136.83 106.61 138.607 106.462 141.718C106.166 141.866 105.573 142.311 105.425 142.459C100.833 147.347 102.463 146.755 103.351 149.569C102.166 150.014 102.166 149.421 102.018 151.051C101.722 152.976 103.351 152.828 104.24 155.05C105.722 158.013 105.722 158.013 107.203 160.976C108.092 162.753 108.24 163.05 109.869 164.235C111.203 165.272 112.536 165.124 113.573 166.457C115.35 168.827 114.313 171.197 114.313 172.827C114.313 174.012 114.906 172.827 114.61 174.604C114.165 177.567 112.536 179.641 113.128 182.011C114.313 186.455 111.647 185.418 112.684 188.973C112.98 189.862 112.832 190.751 113.128 191.64C113.425 191.936 113.425 191.936 113.573 192.232C114.61 193.566 113.128 194.158 113.276 195.195C113.573 196.232 114.017 194.751 113.573 196.232C113.128 197.565 113.425 197.417 114.61 198.306C116.387 199.491 116.387 199.491 118.017 200.528C118.461 199.491 118.609 200.232 118.906 199.195C119.054 198.899 118.906 198.158 118.906 197.714C119.794 196.973 119.35 197.714 120.091 196.825C122.017 194.01 120.683 195.64 119.646 194.158C120.239 193.418 119.943 193.862 120.831 193.121C123.498 190.899 121.72 191.047 121.276 189.566C124.387 189.714 123.646 190.899 124.09 187.788C125.424 187.492 126.461 187.344 127.646 186.751C127.942 186.603 129.127 186.159 128.831 185.122C128.831 185.122 128.683 184.678 128.535 184.381C128.386 184.085 128.386 184.085 128.09 183.789C127.498 183.196 127.942 184.381 127.646 183.196C130.46 183.196 131.794 184.974 133.127 179.048C133.571 179.937 133.127 179.937 134.016 180.085C134.904 178.604 134.904 178.604 135.793 177.123C136.534 176.234 136.386 174.604 136.978 173.567C137.275 173.123 137.571 172.827 137.867 172.53C139.497 171.197 141.867 170.456 143.644 170.308C143.941 168.383 144.385 167.494 145.126 165.568C146.311 162.457 145.57 163.642 146.015 160.383C146.163 159.791 149.866 155.05 150.311 153.717C150.607 152.828 150.607 153.421 150.311 152.68C149.718 150.162 149.274 150.31 147.348 148.829C145.126 147.199 142.756 148.088 141.867 147.347C141.126 146.755 140.978 145.866 139.497 145.866C139.348 145.718 139.348 145.718 139.348 145.718C137.719 145.718 137.423 146.162 137.126 147.051C136.83 146.162 136.83 146.162 136.534 145.273C134.608 145.421 134.756 146.014 133.571 147.199C134.904 143.644 137.126 144.977 134.312 140.681C131.942 137.274 130.757 137.274 128.683 138.311C127.942 137.126 127.053 136.237 125.868 135.2C124.831 134.311 125.276 135.348 124.387 134.015C123.794 133.126 124.239 133.867 123.942 132.83C123.646 132.089 123.942 132.534 123.646 131.941C120.98 131.645 121.72 132.385 119.943 132.682C116.684 133.126 116.832 130.608 111.647 130.015C110.462 132.385 110.017 130.312 107.647 134.163C107.351 134.756 107.351 134.756 107.055 135.348C106.462 134.607 105.722 133.867 104.536 133.571C102.314 133.274 103.796 134.163 101.722 134.163C98.9073 133.126 99.9442 128.534 100.685 126.904C98.611 125.127 98.4629 125.423 96.2408 125.867C95.352 122.757 97.8703 119.942 96.9815 118.905C96.0927 117.868 94.1669 118.461 93.5744 119.201C93.13 119.646 92.6856 121.275 92.3893 121.868C90.0191 122.312 88.9821 122.46 87.0564 121.572C86.1676 118.461 85.8713 116.239 86.7601 112.98C87.0564 111.498 90.0191 108.387 90.4635 108.387C90.4635 108.387 90.6116 108.387 90.7598 108.387C91.5005 108.536 90.7598 108.536 92.093 109.128C92.5374 108.684 92.5374 108.684 92.9818 108.239C92.9818 108.387 93.13 108.387 93.13 108.536C93.2781 108.536 93.2781 108.684 93.4262 108.832C93.8706 109.128 93.8706 109.128 94.4632 109.424C97.2778 109.869 93.13 106.61 100.24 107.795C102.611 108.239 101.87 109.424 102.314 111.795C102.463 112.535 104.092 115.794 104.981 114.905C106.907 112.387 102.166 107.054 105.425 104.536C106.314 103.795 106.314 103.795 107.203 103.054C109.129 101.721 112.091 101.129 110.314 98.166C111.499 97.129 111.351 97.7216 111.943 96.0921C112.684 95.2033 112.684 95.2033 113.276 94.4626C113.276 94.3144 113.425 94.3144 113.425 94.3144C115.499 92.6849 114.165 93.7219 116.387 92.9812C118.313 92.2405 116.387 92.8331 116.832 90.611C118.165 89.7222 119.794 89.5741 120.683 88.6853C122.017 87.352 121.276 86.9076 124.09 86.4632C123.498 88.5371 121.72 87.6483 121.424 88.9815C120.98 90.7592 121.276 89.5741 121.72 90.0185C123.053 90.4629 123.498 89.2778 124.387 88.6853C126.164 87.6483 126.461 88.6853 127.053 86.7595C126.461 86.6114 124.387 86.1669 123.942 85.8707C122.165 84.6856 123.498 84.6856 123.498 83.7968C123.498 81.7229 120.387 83.9449 119.054 84.093C120.091 82.6117 120.98 83.0561 122.017 81.7229C129.571 82.7598 126.905 81.871 129.72 80.9822C130.46 80.834 130.905 80.9822 131.942 80.834C131.942 79.9452 132.09 78.7601 131.645 78.0194C130.905 77.1306 130.312 78.4639 129.275 77.575C129.72 77.1306 129.72 77.1306 130.312 76.5381C129.127 75.9455 128.535 76.0937 128.09 75.5011C126.905 74.1679 127.646 73.5754 127.053 72.6865C126.609 71.9459 126.757 72.094 126.312 71.6496C126.016 71.5015 126.016 71.5015 125.868 71.2052C125.72 71.2052 125.72 71.057 125.72 71.057C125.276 70.4645 125.276 70.4645 124.979 70.0201C123.053 70.9089 124.535 72.3903 120.683 71.7977C120.091 70.0201 120.387 70.0201 121.128 68.835C119.202 68.3906 119.202 68.0943 118.313 67.2055C115.202 66.9092 115.054 66.613 114.313 66.4648C112.24 67.798 114.017 69.1313 112.832 70.6126C112.091 71.5015 111.795 70.7608 112.24 72.3903C113.425 76.9825 111.203 74.1679 110.906 76.9825C110.758 77.7232 111.203 79.3527 110.314 79.7971C109.869 80.0934 109.869 80.0934 109.425 80.2415C109.425 80.2415 109.277 80.2415 109.129 80.2415C108.388 80.3896 108.092 80.834 107.499 79.6489C107.203 78.9083 107.944 77.1306 107.944 76.0937C106.907 75.7974 106.907 75.7974 105.573 75.5011C105.573 75.5011 105.573 75.353 105.425 75.353C104.685 75.0567 104.685 75.0567 103.796 74.7605C102.611 74.0198 103.499 74.0198 102.314 73.5754C101.426 73.2791 100.833 73.5754 99.7961 73.4272C98.4629 70.6126 99.9442 72.5384 98.1666 71.057C98.611 68.835 100.389 68.2425 102.166 67.2055C103.648 66.3167 103.055 66.1686 104.388 65.7241C106.166 64.9835 106.018 65.576 106.462 63.7984C105.425 63.6502 105.129 63.7984 104.981 63.2058C108.684 63.7984 106.758 63.7984 108.092 62.4651C110.166 62.6133 108.24 62.9096 110.166 62.9096C112.684 62.7614 111.943 61.4282 112.091 60.9838C112.24 59.9468 113.869 59.058 109.721 59.2061C109.425 60.2431 108.981 60.6875 107.795 61.5763C107.499 61.7245 107.499 61.7245 107.351 61.7245C107.351 60.9838 107.351 60.3912 107.055 59.7987C105.87 59.9468 106.61 59.7987 105.87 60.5394C105.573 60.095 105.573 60.095 105.277 59.7987C104.833 59.2061 104.981 59.9468 104.833 59.058C104.536 58.3173 105.722 58.4655 104.388 57.7248C102.907 57.1322 101.426 58.7617 100.685 59.5024C100.092 58.9099 100.537 58.9099 99.0554 59.2061C98.611 59.5024 98.4629 59.6506 98.3147 60.3912ZM132.238 50.7624C130.312 50.1698 129.868 50.4661 128.979 50.6142C128.238 50.9105 127.942 50.6142 127.053 50.6142C125.72 50.7624 127.053 50.9105 126.312 51.2068C126.016 51.5031 125.424 51.3549 124.683 51.5031C123.942 51.5031 123.942 51.6512 123.053 51.7993C121.72 51.9475 121.72 51.6512 121.572 52.2437C122.905 52.54 123.35 52.0956 125.276 52.54C124.831 52.9844 125.276 52.8363 124.239 52.8363C123.498 52.8363 123.794 52.6882 122.905 52.8363C125.424 55.5027 131.497 52.2437 133.571 58.7617C133.719 58.7617 134.312 58.6136 134.46 58.7617C134.608 58.7617 134.756 58.7617 134.756 58.7617C135.053 58.7617 134.904 58.6136 135.349 58.9099C135.201 59.7987 135.349 58.9099 134.904 59.3543C134.608 59.3543 134.608 59.3543 134.46 59.5024C133.275 60.3912 134.608 58.7617 134.164 59.7987C134.608 59.9468 134.608 59.9468 135.053 60.095C135.645 60.2431 135.645 60.2431 136.238 60.3912C136.386 61.2801 135.941 61.5763 135.349 61.5763C134.46 61.7245 133.127 61.2801 135.793 65.576C135.941 65.8723 135.941 65.8723 136.089 66.1686C138.904 71.2052 137.867 68.5387 140.385 70.4645C141.126 71.057 140.089 70.6126 141.274 71.2052C143.496 71.2052 142.904 70.4645 143.2 68.835C143.644 67.0574 144.385 68.835 144.089 65.8723C147.2 65.4279 148.829 67.0574 149.125 65.1316C149.274 64.8353 149.274 64.6872 149.274 64.3909C152.236 64.9835 151.792 65.8723 153.866 64.9835C156.088 64.2428 154.606 64.6872 154.903 63.9465C155.051 63.7984 156.384 63.7984 154.458 62.4651C153.125 61.5763 153.57 62.317 152.977 61.4282C153.866 61.2801 153.421 61.7245 154.606 61.7245C154.903 61.7245 154.903 61.7245 155.199 61.5763C155.199 61.7245 155.199 61.5763 155.199 61.5763C155.347 61.5763 155.347 61.5763 155.495 61.5763C155.94 61.5763 155.792 61.7245 155.94 61.2801C154.903 60.3912 157.273 62.317 155.051 60.6875C154.606 60.3912 154.606 60.6875 154.31 60.095C154.014 59.3543 155.792 60.8356 154.606 59.5024C153.421 58.7617 153.866 59.2061 152.681 58.4655C152.088 58.0211 153.125 58.1692 153.57 58.3173C152.977 58.0211 152.977 58.0211 152.384 57.5767C153.718 58.1692 155.199 58.9099 155.347 58.9099C153.273 57.5767 150.459 56.6878 150.459 56.6878C150.311 56.3916 150.903 56.6878 150.607 56.2434C149.274 55.6509 149.866 56.0953 148.977 55.799C148.681 55.5027 148.681 55.5027 148.385 55.3546C148.385 55.3546 148.385 55.3546 148.237 55.2065C146.903 54.7621 146.015 54.6139 145.126 54.1695C146.163 54.3177 148.977 55.5027 149.866 55.799C149.422 55.5027 150.014 55.799 148.681 55.2065C146.459 54.1695 146.163 54.3177 144.681 53.7251C145.274 53.7251 145.718 54.0214 146.311 54.1695C145.274 53.577 143.941 53.1326 142.904 52.8363C140.978 52.2437 141.422 52.3919 140.83 52.54C139.497 52.0956 139.793 52.0956 138.312 51.6512C138.46 51.9475 138.46 51.9475 138.756 52.2437C138.163 52.0956 138.904 52.2437 138.312 52.0956C137.126 51.6512 137.423 51.6512 136.089 51.3549C135.793 51.5031 136.386 51.7993 135.645 51.6512C134.164 51.2068 135.793 51.5031 134.46 51.0587C132.979 50.6142 133.719 51.0587 133.571 51.0587C133.127 50.9105 132.682 50.7624 132.238 50.7624ZM113.869 56.2434C113.869 56.2434 113.721 55.9472 113.869 55.9472C114.017 55.9472 114.758 56.2434 113.869 56.3916C113.425 56.5397 113.869 56.3916 113.869 56.2434ZM110.314 56.3916C109.869 56.0953 110.166 56.5397 110.166 56.0953C110.166 55.5027 110.61 55.6509 110.462 55.0583C108.388 54.7621 107.203 56.0953 107.351 57.4285C107.944 57.7248 108.092 57.7248 108.388 57.8729C108.684 58.3173 108.388 58.4655 108.536 58.7617C110.906 58.7617 110.61 58.1692 112.388 58.7617C114.462 59.3543 113.425 58.7617 115.202 58.4655C117.276 59.9468 116.239 59.3543 116.535 59.9468C116.98 60.5394 116.98 60.095 118.758 60.3912C119.794 62.6133 118.906 62.9096 115.647 63.354C114.165 63.5021 113.276 64.3909 114.462 64.9835C115.647 65.576 116.387 64.8353 118.165 64.8353C119.202 65.7241 121.868 68.0943 123.646 67.6499C123.202 66.3167 122.609 66.613 122.461 65.7241C123.942 66.3167 123.053 66.4648 124.831 66.9092C126.461 64.2428 123.498 63.9465 122.905 63.6502C122.905 63.0577 123.053 62.9096 123.202 62.6133C124.979 62.7614 124.683 63.9465 126.757 64.5391C127.942 63.5021 128.683 62.4651 126.609 61.7245C124.387 60.9838 125.127 62.0207 123.35 60.2431C123.646 59.5024 124.535 59.6506 123.794 58.7617C122.757 57.5767 119.943 58.1692 118.461 56.5397C118.313 56.2434 118.165 55.5027 115.943 55.799C114.462 55.9472 115.054 55.9472 114.61 56.0953C114.165 55.6509 114.462 55.5027 114.165 55.0583C110.906 54.6139 111.499 55.3546 110.61 56.2434C110.462 56.3916 110.462 56.3916 110.314 56.3916ZM120.683 49.1329C120.683 49.1329 120.091 48.9847 119.943 48.8366C119.646 48.8366 119.646 48.8366 119.35 48.8366C118.165 48.8366 118.313 48.8366 116.832 48.6885C115.647 49.5773 114.906 48.9847 114.165 48.8366C112.832 48.8366 113.425 48.9847 112.536 49.1329C111.499 49.281 111.795 49.1329 110.906 49.281C111.351 49.7254 111.795 50.1698 113.869 50.1698C114.462 50.1698 117.128 49.8736 117.721 49.8736C117.721 50.318 117.128 50.1698 115.943 50.1698C113.128 50.4661 115.647 50.4661 115.202 50.6142C114.017 50.6142 114.017 50.4661 112.832 50.318C112.832 50.9105 113.128 51.0587 113.425 51.3549C112.388 51.5031 112.536 51.6512 111.647 52.0956C109.721 52.8363 110.462 52.0956 109.277 52.3919C109.573 53.4288 110.758 53.4288 113.128 53.4288C115.943 53.4288 116.387 53.2807 117.572 52.6882C117.276 52.2437 117.276 52.54 116.832 51.9475C119.202 51.9475 119.646 51.2068 120.98 50.7624C122.609 50.9105 122.905 51.2068 124.387 50.9105C125.868 50.6142 125.424 50.6142 124.979 49.8736C126.609 50.0217 127.794 50.318 128.683 50.1698C127.942 49.4292 126.905 49.5773 124.683 49.281C121.424 48.8366 122.313 48.8366 120.683 49.1329ZM88.5377 57.8729L88.3896 58.0211C88.5377 58.0211 88.5377 58.0211 88.5377 57.8729ZM89.1303 57.7248C87.7971 56.0953 87.3526 57.4285 85.7231 56.6878C85.1306 56.9841 85.1306 56.9841 84.3899 57.1322C84.2418 57.1322 84.2418 57.2804 84.2418 57.1322C83.7974 57.4285 83.7974 57.4285 83.353 57.5767C83.2048 57.7248 83.2048 57.7248 82.9086 58.0211C82.4641 58.4655 82.4641 58.6136 81.8716 59.058C81.2791 59.5024 81.4272 59.2061 80.8346 59.9468C82.6123 61.5763 83.2048 59.5024 88.3896 58.0211C88.0933 58.3173 88.0933 58.3173 87.7971 58.6136C86.3157 59.5024 86.3157 58.6136 85.4269 59.7987C86.4638 60.095 87.0564 59.6506 88.3896 59.6506C87.5008 60.095 86.612 60.2431 85.575 60.5394C85.8713 61.1319 86.9082 61.2801 87.6489 61.4282C88.9821 61.5763 93.8706 60.8356 95.352 60.5394C97.1296 60.2431 96.6852 60.095 96.2408 59.3543C97.7222 58.6136 96.9815 59.5024 97.4259 58.6136C92.6856 57.8729 98.611 56.0953 94.0188 56.6878C93.7225 57.2804 94.0188 57.2804 93.2781 57.8729C92.8337 57.4285 92.8337 57.4285 92.3893 57.1322C91.5005 57.2804 91.9449 57.1322 91.3523 57.7248C91.2042 57.2804 91.3523 57.5767 91.2042 57.4285C90.1672 57.5767 90.1672 57.5767 89.1303 57.7248ZM115.202 54.7621C115.647 54.1695 115.499 54.3177 115.202 53.7251C113.573 53.4288 112.536 53.7251 110.758 53.577C108.388 53.4288 109.277 53.1326 108.536 52.3919C104.388 52.2437 105.722 53.577 107.795 54.3177C109.129 54.9102 109.869 54.6139 111.351 54.4658C114.017 54.1695 113.869 54.7621 115.202 54.7621ZM110.906 51.5031C112.388 50.1698 110.314 49.5773 108.092 49.5773C107.647 49.8736 107.499 49.8736 107.055 50.1698C105.87 50.9105 106.758 50.4661 107.647 51.2068C107.795 51.3549 107.647 51.9475 110.906 51.5031ZM90.4635 55.3546C90.3154 55.799 90.3154 55.799 90.0191 56.2434C91.6486 56.2434 92.3893 56.0953 94.0188 55.6509C96.5371 54.7621 95.6483 55.0583 97.8703 55.2065C97.8703 54.0214 96.8334 54.4658 95.9445 54.0214C95.2039 53.8732 96.2408 53.7251 95.0557 53.7251C93.7225 53.8732 94.6113 54.0214 93.13 54.7621C91.5005 55.3546 91.7967 54.9102 90.4635 55.3546ZM133.867 87.0558C134.608 86.1669 134.312 86.0188 133.867 83.5005C132.534 82.7598 132.534 83.3524 131.645 82.0191C131.349 81.5747 131.645 81.7229 131.349 81.2784C130.312 81.5747 130.016 82.1673 129.275 82.7598C127.942 83.7968 128.09 83.6486 128.238 85.5744C129.571 85.4263 129.571 85.4263 130.905 85.2781C131.201 86.0188 131.201 86.0188 131.645 86.7595C132.83 86.4632 131.942 87.0558 132.534 86.0188C133.275 87.0558 132.682 86.6114 133.867 87.0558ZM107.055 121.423C107.203 121.423 109.425 122.46 110.758 120.535C110.166 119.053 110.017 119.349 108.092 118.609C105.425 117.572 102.759 115.202 99.4998 117.572C100.092 118.609 99.3517 118.016 100.537 118.016C100.537 118.016 104.388 117.127 106.166 119.349C106.907 120.09 106.314 119.498 106.758 120.535C106.907 120.979 106.907 120.979 107.055 121.423ZM101.574 55.2065C100.389 55.2065 100.24 55.2065 99.3517 55.6509C99.3517 56.0953 99.3517 56.0953 99.3517 56.6878C98.611 56.5397 98.611 56.5397 97.8703 56.3916C97.7222 57.2804 97.4259 56.9841 99.0554 57.5767C100.981 58.3173 101.87 57.5767 101.87 56.6878C101.722 56.5397 101.722 55.9472 101.722 55.799C101.574 55.5027 101.574 55.5027 101.574 55.2065ZM85.8713 55.799C86.0194 55.9472 85.7231 55.9472 86.3157 55.9472C86.612 55.9472 86.7601 55.9472 87.2045 55.9472C88.5377 55.6509 88.3896 55.5027 88.9821 55.0583C90.1672 54.4658 91.9449 54.6139 91.056 53.7251C90.1672 53.8732 89.2784 54.3177 88.5377 54.6139C86.9082 55.2065 86.612 54.9102 85.8713 55.799ZM99.7961 54.7621C101.129 54.6139 101.129 54.6139 102.611 54.3177C103.203 52.9844 102.018 52.9844 100.092 53.7251C99.7961 53.577 99.9442 53.4288 99.2035 53.4288C98.611 53.4288 99.4998 53.2807 98.611 53.4288C98.4629 54.3177 99.0554 54.3177 99.7961 54.7621ZM115.35 120.979C114.165 120.09 114.017 119.942 112.388 120.238C111.943 121.127 111.943 120.979 112.24 122.016C110.758 122.016 110.906 121.572 110.017 122.46C111.054 123.794 111.351 123.349 113.425 123.201C115.943 123.201 118.906 123.645 115.35 120.979ZM103.203 57.1322C103.796 56.9841 106.462 55.9472 107.203 55.2065C105.722 54.7621 104.981 55.0583 103.499 55.3546C103.351 55.5027 103.203 55.9472 103.055 56.2434C103.055 56.2434 102.907 56.5397 102.907 56.6878C102.907 57.1322 102.907 56.836 103.203 57.1322ZM98.9073 51.6512C98.611 52.3919 98.7591 51.9475 100.389 52.3919C100.981 52.54 100.092 52.54 100.981 52.54C104.24 52.8363 102.018 50.7624 98.9073 51.6512ZM107.647 66.3167C108.388 66.1686 110.314 65.1316 110.61 64.5391C109.721 63.5021 108.684 63.6502 106.907 64.0946C106.462 65.2797 106.462 65.7241 107.647 66.3167ZM118.461 200.528C119.498 200.824 119.35 200.676 120.387 200.973C121.276 200.676 121.276 200.676 122.313 200.38C121.572 199.936 118.758 198.602 118.461 200.528ZM125.127 198.75C125.868 198.602 127.498 198.454 128.535 197.862C128.09 197.565 127.646 197.417 127.053 197.269C126.609 197.714 127.053 197.565 126.164 197.714C125.868 197.714 125.572 197.862 125.127 197.862C125.127 198.306 125.127 198.306 125.127 198.75ZM103.944 51.6512C104.092 51.9475 104.092 51.9475 104.092 52.3919C104.833 52.2437 104.833 52.2437 105.573 52.2437C106.758 51.0587 104.833 51.0587 103.944 51.6512ZM93.2781 52.9844C94.315 52.8363 95.5001 52.54 96.2408 52.2437C96.0927 51.9475 95.9445 51.7993 94.7595 52.0956C93.7225 52.2437 93.4262 52.54 93.2781 52.9844ZM92.9818 54.0214C95.6483 53.2807 95.352 53.2807 95.6483 52.9844C95.2039 52.8363 96.5371 52.6882 93.7225 53.1326C93.4262 53.4288 93.13 53.577 92.9818 54.0214ZM133.127 60.6875C133.275 60.6875 133.127 60.9838 134.46 60.9838C134.904 60.9838 135.201 60.9838 135.201 60.9838C135.349 60.9838 135.349 60.9838 135.201 60.8356C135.201 60.8356 135.201 60.8356 135.201 60.6875H135.349C135.201 60.6875 135.201 60.6875 135.201 60.5394C134.46 59.9468 133.423 59.5024 133.127 60.6875ZM103.499 54.4658C104.685 54.7621 105.425 54.7621 105.722 53.8732C104.388 53.7251 103.648 53.7251 103.499 54.4658ZM108.536 122.905C107.795 122.016 107.499 121.868 105.722 122.312C106.018 122.905 105.425 123.497 107.055 123.645C108.388 123.794 108.24 123.349 108.536 122.905ZM114.906 62.1689C115.647 62.1689 116.091 62.1689 116.387 61.8726C117.128 61.1319 116.387 60.9838 116.387 60.9838C115.943 60.9838 115.943 60.9838 115.499 60.8356C115.054 61.2801 115.202 60.9838 115.054 61.4282C115.054 61.5763 115.054 62.1689 114.906 62.1689ZM152.088 62.6133C152.088 62.6133 151.792 61.5763 154.014 63.2058C154.31 63.354 154.31 63.354 154.606 63.5021C154.606 63.6502 154.606 63.6502 154.755 63.6502C154.162 63.5021 153.421 63.354 152.681 63.0577C152.088 62.6133 152.681 63.0577 152.088 62.6133ZM170.605 80.834C170.753 80.6859 170.901 80.6859 170.901 80.0934C169.716 79.2045 171.938 80.9822 170.457 79.7971C168.976 78.7601 170.161 79.3527 169.124 78.612C168.383 78.612 168.828 78.1676 168.679 79.2045C167.939 78.9083 168.679 79.3527 168.087 78.7601C167.791 78.4639 168.235 78.612 167.642 78.3157C167.642 78.7601 167.642 78.7601 167.642 79.2045C168.235 79.5008 168.383 79.2045 168.828 79.9452C169.124 80.5378 168.976 80.6859 168.976 81.1303C168.976 81.1303 169.42 81.5747 169.568 81.7229C170.901 83.3524 170.309 82.3154 171.346 83.6486C171.05 84.093 171.346 83.9449 170.457 83.7968C170.753 84.6856 170.753 84.5374 170.753 85.13C170.901 85.8707 170.753 85.13 171.198 85.8707C171.642 86.9076 170.901 86.0188 170.901 87.6483C171.79 87.6483 171.79 87.352 172.679 87.5002C173.568 87.6483 173.272 87.352 174.309 87.5002C174.012 86.6114 174.012 87.0558 174.012 86.7595C174.16 86.6114 175.049 86.9076 173.864 85.4263C172.975 83.9449 172.975 83.9449 171.938 82.6117C171.346 81.2784 171.642 81.5747 170.605 80.834ZM161.273 71.057C161.865 70.9089 161.717 70.1682 160.976 69.1313C159.643 68.2425 159.791 68.9831 158.014 68.2425C157.421 67.9462 157.865 67.9462 157.273 67.9462C155.792 67.6499 157.125 68.0943 155.643 67.2055C155.199 67.5018 155.051 67.5018 155.051 68.3906C155.94 68.5387 155.94 68.5387 156.68 68.835C156.68 69.4275 156.68 69.4275 156.68 70.1682C157.421 70.1682 157.569 70.0201 158.31 70.4645C158.754 70.9089 158.754 70.9089 159.347 71.2052L159.495 71.3533C160.68 70.4645 160.384 71.3533 161.273 71.057ZM167.494 85.2781C168.679 85.2781 168.235 85.13 168.976 84.9819C169.865 84.9819 169.865 85.4263 170.013 84.5374C169.716 83.3524 169.716 83.3524 169.42 82.0191C168.087 81.2784 168.383 81.5747 166.902 82.1673C167.05 83.7968 167.05 82.7598 167.198 83.5005C167.346 84.3893 167.346 84.3893 167.494 85.2781ZM162.013 66.7611C162.606 67.0574 163.05 67.2055 162.754 66.7611C162.606 66.4648 162.31 66.3167 161.717 66.0204C161.865 66.3167 161.865 66.3167 162.013 66.7611ZM180.975 101.277C181.271 101.129 181.419 101.129 181.271 100.24C181.123 99.0548 181.123 99.4992 180.53 99.3511C180.678 100.24 180.678 100.24 180.975 101.277ZM103.796 50.4661C103.796 50.7624 103.796 50.7624 103.499 51.0587C104.833 51.0587 104.833 50.9105 105.277 50.6142C104.685 50.318 104.981 50.318 103.796 50.4661ZM187.345 101.573C187.196 100.536 186.752 98.9067 186.9 98.7585C187.048 98.4622 187.196 99.4992 187.048 98.3141C186.9 97.8697 186.752 97.4253 186.752 96.9809C187.048 97.5734 186.752 96.8328 187.196 98.0178C187.345 98.3141 187.345 98.3141 187.493 98.7585C187.641 99.2029 187.345 99.3511 187.789 99.7955C188.085 100.24 188.233 100.092 188.233 99.7955V99.6473C188.085 99.6473 188.085 99.4992 188.085 99.4992C187.937 99.3511 187.937 99.3511 187.937 99.2029C187.789 99.0548 187.789 98.9067 187.641 98.7585C187.641 98.166 187.789 98.166 187.937 98.4622C188.233 99.4992 187.789 98.4622 188.233 99.6473C188.53 100.24 188.53 100.24 188.678 100.832C188.974 101.425 188.826 101.277 189.122 101.869C189.419 102.758 189.419 102.61 189.863 104.091C189.715 104.388 188.826 102.166 188.826 102.018C188.382 101.869 187.937 101.869 187.345 101.573Z" fill="url(#paint3_linear)" fill-opacity="0.4"/>
<defs>
<linearGradient id="paint0_linear" x1="118.905" y1="48.6885" x2="118.905" y2="202.898" gradientUnits="userSpaceOnUse">
<stop stop-color="white"/>
<stop offset="1" stop-color="white" stop-opacity="0"/>
</linearGradient>
<linearGradient id="paint1_linear" x1="126.495" y1="0" x2="126.495" y2="232.838" gradientUnits="userSpaceOnUse">
<stop stop-color="white"/>
<stop offset="1" stop-color="white" stop-opacity="0"/>
</linearGradient>
<linearGradient id="paint2_linear" x1="58.0453" y1="33.4041" x2="58.0453" y2="226.9" gradientUnits="userSpaceOnUse">
<stop stop-color="white"/>
<stop offset="1" stop-color="white" stop-opacity="0"/>
</linearGradient>
<linearGradient id="paint3_linear" x1="119.869" y1="48.6885" x2="119.869" y2="200.973" gradientUnits="userSpaceOnUse">
<stop stop-color="white"/>
<stop offset="1" stop-color="white" stop-opacity="0"/>
</linearGradient>
</defs>
</svg>
